<?xml version="1.0" encoding="utf-8"?>
<!-- Generator: Adobe Illustrator 26.2.1, SVG Export Plug-In . SVG Version: 6.00 Build 0)  -->
<svg version="1.1" id="Layer_1" xmlns="http://www.w3.org/2000/svg" xmlns:xlink="http://www.w3.org/1999/xlink" x="0px" y="0px"
	 viewBox="0 0 716.9 267.6" style="enable-background:new 0 0 716.9 267.6;" xml:space="preserve">
<style type="text/css">
	.st0{fill:#ED6C50;}
</style>
<g>
	<path d="M118.9,35.8h8.6c26.5,2,46.7,14.6,60.5,37.2c6.7,11.2,10.2,24,10.1,37c0.4,6.3-4.3,11.8-10.5,12.5
		c-6,0.8-11.6-3.2-12.8-9.1c-0.3-1.8-0.5-3.6-0.5-5.4c-1.5-28.2-25.5-49.8-53.7-48.3c-23.9,1.3-43.7,18.9-47.7,42.5
		c-0.5,2.6-0.7,5.2-0.6,7.8c0.3,6.6-4.9,12.2-11.5,12.5c0,0,0,0,0,0h-0.5c-6.5,0-11.8-5.2-11.8-11.7v-1.1c0.1-15.5,5.1-30.6,14.4-43
		C76,48.6,94,38.4,116.3,35.9L118.9,35.8z"/>
	<path d="M140.4,228.4H96.3c-6.8,0-11.5-3.7-13.1-9.7c-1.6-6.7,2.6-13.4,9.2-15.1c0.7-0.2,1.4-0.3,2.1-0.3h90.1
		c6.5,0,11.2,3.2,12.8,9.1c2,6.5-1.7,13.4-8.2,15.4c0,0-0.1,0-0.1,0c-1,0.3-2,0.5-3.1,0.5c-13,0.2-26.1,0.2-39.1,0.2L140.4,228.4z"
		/>
	<path d="M140.3,192.9H95.5c-7,0-12.6-5.6-12.6-12.6c0-4.9,2.8-9.3,7.2-11.4c1.6-0.8,3.4-1.3,5.2-1.3h90.4
		c6.9,0.3,12.4,6.1,12.1,13.1c-0.3,6.6-5.5,11.8-12.1,12.1C170.5,192.9,155.4,192.9,140.3,192.9z"/>
	<path d="M140.3,157.3H95.7c-7,0.1-12.7-5.5-12.8-12.5v-0.2c0-6.8,5.5-12.4,12.3-12.5h90.1c6.9,0,12.5,5.5,12.5,12.4
		c0,5.9-4,10.9-9.8,12.2c-1,0.2-1.9,0.3-2.9,0.3L140.3,157.3z"/>
	<path class="st0" d="M60.1,168.5c6.7-0.1,12.3,5.3,12.3,12c0,0,0,0.1,0,0.1l0,0c0,6.8-5.5,12.4-12.3,12.5
		c-6.8,0-12.3-5.5-12.3-12.3c-0.1-6.7,5.4-12.3,12.1-12.3C60,168.5,60,168.5,60.1,168.5z"/>
	<path class="st0" d="M60.1,133c6.7,0,12.2,5.4,12.3,12.2c0,6.8-5.5,12.4-12.3,12.5c-6.8,0-12.3-5.5-12.3-12.3
		C47.8,138.5,53.3,133,60.1,133L60.1,133L60.1,133z"/>
	<path class="st0" d="M60.1,204.1c6.8,0,12.3,5.5,12.3,12.3c0,6.8-5.5,12.3-12.3,12.3c0,0,0,0,0,0c-6.8-0.1-12.3-5.7-12.3-12.5
		C47.8,209.5,53.4,204,60.1,204.1L60.1,204.1z"/>
	<path d="M284.9,145.1c5.7,3.9,10,9.6,12.3,16.1v-21h18.7v90.4h-18.7v-21c-2.3,6.5-6.6,12.2-12.3,16.1c-5.8,4-12.8,6.1-21,6.1
		c-7.4,0.1-14.7-1.8-21.1-5.6c-6.3-3.8-11.3-9.4-14.5-16.1c-3.5-7-5.2-15.3-5.2-24.8c0-9.4,1.8-17.6,5.2-24.6
		c3.2-6.7,8.2-12.2,14.5-16.1c6.4-3.8,13.7-5.7,21.1-5.6C272.1,139.1,279.1,141.1,284.9,145.1z M249.7,163.4
		c-5,5.3-7.5,12.6-7.5,21.9c0,9.3,2.5,16.6,7.5,21.9c5,5.3,11.6,8,19.9,8c5,0.1,9.9-1.2,14.1-3.7c4.2-2.5,7.6-6.1,9.9-10.4
		c4.8-9.9,4.8-21.5,0-31.4c-2.2-4.4-5.6-8-9.9-10.5c-4.3-2.5-9.2-3.8-14.1-3.7C261.3,155.5,254.7,158.1,249.7,163.4z"/>
	<path d="M345.5,106.1c2.4-2.1,5.5-3.3,8.7-3.1c3.2-0.1,6.4,1,8.8,3.1c2.2,2,3.4,4.9,3.4,7.9c0.1,2.9-1.1,5.8-3.4,7.7
		c-2.5,2-5.6,3.1-8.8,3c-3.2,0.2-6.3-0.9-8.7-3c-2.2-2-3.4-4.8-3.3-7.7C342.1,111,343.3,108.1,345.5,106.1z M363.5,140.2v90.4h-18.7
		v-90.4H363.5z"/>
	<path d="M424.4,143.9c6-3.5,12.8-5.3,19.7-5.2v20.4h-5.6c-8.2,0-14.8,2-19.8,6s-7.5,10.6-7.5,19.8v45.8h-18.7v-90.5h18.7V158
		C414.2,152.1,418.8,147.3,424.4,143.9z"/>
	<path d="M483.2,109.2v121.5h-18.7V109.2H483.2z"/>
	<path d="M512.9,106.1c2.4-2.1,5.5-3.3,8.7-3.1c3.2-0.1,6.4,1,8.8,3.1c2.2,2,3.4,4.9,3.4,7.9c0.1,2.9-1.1,5.8-3.4,7.7
		c-2.5,2-5.6,3.1-8.8,3c-3.2,0.2-6.3-0.9-8.7-3c-2.2-2-3.4-4.8-3.3-7.7C509.5,111,510.7,108.1,512.9,106.1z M530.9,140.2v90.4h-18.7
		v-90.4H530.9z"/>
	<path d="M586.8,125c-3,2.7-4.4,7.2-4.4,13.7v1.5h19.9v16.1h-19.9v74.3h-18.9v-74.3h-12.3v-16.1h12.3v-3c0-11,3.2-19.3,9.7-24.9
		c6.5-5.5,16.1-8,29-7.3v16.4C594.8,121.2,589.7,122.3,586.8,125z"/>
	<path d="M669.1,214.4v16.2h-11.5c-9.6,0-16.9-2.3-21.9-7c-5-4.7-7.5-12.4-7.5-23.2v-44.3h-13v-15.9h13v-22.5h18.9v22.5H669v15.9
		h-21.8v44.6c0,5.1,1,8.7,2.9,10.7c1.9,2,5.3,3,10.1,3L669.1,214.4z"/>
</g>
</svg>
