<svg xmlns="http://www.w3.org/2000/svg" viewBox="0 0 621.35 196.07"><defs><style>.cls-1{fill:#fff;}.cls-2{fill:#ed6c50;}</style></defs><title>airliftAsset 1</title><g id="Layer_2" data-name="Layer 2"><g id="Layer_1-2" data-name="Layer 1"><path class="cls-1" d="M71.09,0h8.6c26.45,2,46.74,14.61,60.53,37.16a70.47,70.47,0,0,1,10.06,37,11.83,11.83,0,0,1-10.55,12.5,11.5,11.5,0,0,1-12.82-9.09,30.07,30.07,0,0,1-.48-5.35A51.11,51.11,0,0,0,25,66.37a41.52,41.52,0,0,0-.65,7.79,12,12,0,0,1-11.48,12.5h-.53A11.76,11.76,0,0,1,.5,75V73.84a72.2,72.2,0,0,1,14.44-43C28.25,12.84,46.26,2.61,68.49.17Z"/><path class="cls-1" d="M92.67,192.63H48.53c-6.81,0-11.52-3.73-13.14-9.74a12.6,12.6,0,0,1,9.25-15.09,8.44,8.44,0,0,1,2.11-.33h90.06c6.49,0,11.2,3.25,12.82,9.09A12.32,12.32,0,0,1,141.46,192l-.1,0a10.45,10.45,0,0,1-3.09.49c-13,.16-26.12.16-39.11.16Z"/><path class="cls-1" d="M92.51,157.09H47.72a12.6,12.6,0,0,1-5.36-24,11.77,11.77,0,0,1,5.2-1.3H138A12.59,12.59,0,0,1,138,157C122.69,157.09,107.6,157.09,92.51,157.09Z"/><path class="cls-1" d="M92.51,121.55H47.88a12.68,12.68,0,0,1-12.82-12.5v-.16A12.48,12.48,0,0,1,47.4,96.4h90.06a12.48,12.48,0,0,1,2.76,24.66,17.88,17.88,0,0,1-2.92.33Z"/><path class="cls-2" d="M12.34,132.75a12.19,12.19,0,0,1,12.34,12v.13h0a12.57,12.57,0,0,1-12.34,12.49A12.44,12.44,0,0,1,0,145.08a12.22,12.22,0,0,1,12.11-12.33Z"/><path class="cls-2" d="M12.34,97.21a12.39,12.39,0,0,1,12.34,12.17,12.57,12.57,0,0,1-12.34,12.49,12.33,12.33,0,0,1,0-24.66Z"/><path class="cls-2" d="M12.34,168.29a12.33,12.33,0,1,1,0,24.66h0A12.57,12.57,0,0,1,0,180.46a12.29,12.29,0,0,1,12.33-12.17Z"/><path class="cls-1" d="M237.12,109.38a32.7,32.7,0,0,1,12.31,16.08v-21h18.71V194.9H249.43v-21A32.72,32.72,0,0,1,237.12,190q-8.7,6.07-21,6.07a40.12,40.12,0,0,1-21.12-5.6,38.07,38.07,0,0,1-14.53-16.08q-5.25-10.51-5.25-24.79,0-14.11,5.25-24.62A38.07,38.07,0,0,1,195,108.89a40.09,40.09,0,0,1,21.09-5.59Q228.41,103.3,237.12,109.38Zm-35.21,18.3q-7.47,8-7.47,21.91t7.47,21.91q7.47,8,19.94,8A27.25,27.25,0,0,0,236,175.77a26.2,26.2,0,0,0,9.85-10.42,36,36,0,0,0,0-31.43A26.1,26.1,0,0,0,236,123.41a27.2,27.2,0,0,0-14.12-3.69Q209.39,119.72,201.91,127.68Z"/><path class="cls-1" d="M297.68,70.31a12.15,12.15,0,0,1,8.7-3.11,12.41,12.41,0,0,1,8.78,3.11,10.33,10.33,0,0,1,3.37,7.88,9.78,9.78,0,0,1-3.37,7.72,12.82,12.82,0,0,1-8.78,3,12.49,12.49,0,0,1-8.7-3,9.87,9.87,0,0,1-3.28-7.7A10.42,10.42,0,0,1,297.68,70.31Zm18.06,34.14v90.44H297V104.45Z"/><path class="cls-1" d="M376.63,108.15a37.25,37.25,0,0,1,19.7-5.17v20.35h-5.58q-12.31,0-19.78,6t-7.47,19.78V194.9H344.79V104.45H363.5v17.76A34.8,34.8,0,0,1,376.63,108.15Z"/><path class="cls-1" d="M435.39,73.43V194.89H416.68V73.43Z"/><path class="cls-1" d="M465.1,70.31a12.15,12.15,0,0,1,8.7-3.11,12.45,12.45,0,0,1,8.78,3.11,10.29,10.29,0,0,1,3.36,7.88,9.78,9.78,0,0,1-3.36,7.72,12.87,12.87,0,0,1-8.78,3,12.49,12.49,0,0,1-8.7-3,9.91,9.91,0,0,1-3.29-7.72A10.43,10.43,0,0,1,465.1,70.31Zm18,34.14v90.44H464.44V104.45Z"/><path class="cls-1" d="M539,89.27q-4.44,4-4.43,13.71v1.47h19.86v16.09h-19.9v74.35H515.65V120.54H503.34V104.45h12.31v-3q0-16.57,9.69-24.87t29-7.3V85.74Q543.41,85.22,539,89.27Z"/><path class="cls-1" d="M621.35,178.64v16.25H609.86q-14.45,0-21.91-7t-7.47-23.23V120.38h-13V104.45h13V82h18.88v22.48h21.83v15.93H599.36V165q0,7.71,2.87,10.67t10.1,2.95Z"/></g></g></svg>