<svg width="211" height="132" viewBox="0 0 211 132" fill="none" xmlns="http://www.w3.org/2000/svg">
<path opacity="0.7" d="M199.38 92.637C198.641 99.7631 192.567 106.702 187.389 113.536C182.897 119.464 176.407 124.269 169.009 125.032L105.198 131.609C102.674 131.869 100.132 131.889 97.6042 131.667L15.638 124.483C10.567 124.039 5.56646 121.797 3.45447 117.165C2.49765 115.067 1.76983 112.86 1.06017 110.491C-0.564744 105.015 0.446657 85.0694 5.75 81.9773C13.413 77.5084 12.1657 85.5028 20.9826 83.352C29.5923 81.2539 29.4934 71.1814 29.4934 63.207C29.4934 55.2326 25.6878 47.7024 22.0141 40.4362C18.3403 33.1699 19.7298 27.0516 19.9982 19.0816C20.3844 7.62362 39.5168 2.89953 52.0451 0.783867C61.8087 -0.869956 81.8259 0.528757 91.7355 1.03458C193.074 6.23797 153.911 41.1398 190.459 59.8729C201.424 65.4853 200.557 81.179 199.38 92.637Z" fill="#FFE2DA"/>
<g clip-path="url(#clip0_439_201476)">
<path d="M97.5329 18.0981H13.2502C12.2383 18.0981 11.418 18.9192 11.418 19.9321V89.6225C11.418 90.6354 12.2383 91.4565 13.2502 91.4565H97.5329C98.5448 91.4565 99.3651 90.6354 99.3651 89.6225V19.9321C99.3651 18.9192 98.5448 18.0981 97.5329 18.0981Z" fill="#F3F3FC"/>
<g filter="url(#filter0_d_439_201476)">
<path d="M174.118 30.936H27.5395C25.5156 30.936 23.875 32.5782 23.875 34.604V115.298C23.875 117.324 25.5156 118.966 27.5395 118.966H174.118C176.142 118.966 177.783 117.324 177.783 115.298V34.604C177.783 32.5782 176.142 30.936 174.118 30.936Z" fill="#F3F3FC"/>
<path d="M174.115 31.4858H27.5367C25.8164 31.4858 24.4219 32.8817 24.4219 34.6036V115.298C24.4219 117.02 25.8164 118.415 27.5367 118.415H174.115C175.836 118.415 177.23 117.02 177.23 115.298V34.6036C177.23 32.8817 175.836 31.4858 174.115 31.4858Z" stroke="white" stroke-width="1.42104"/>
</g>
<path d="M23.875 33.1368C23.875 31.9213 24.8594 30.936 26.0737 30.936H175.584C176.798 30.936 177.783 31.9213 177.783 33.1368V35.3375H23.875V33.1368Z" fill="white"/>
<path d="M28.3125 33.9438C28.7375 33.9438 29.082 33.599 29.082 33.1736C29.082 32.7482 28.7375 32.4033 28.3125 32.4033C27.8875 32.4033 27.543 32.7482 27.543 33.1736C27.543 33.599 27.8875 33.9438 28.3125 33.9438Z" fill="#FF4611"/>
<path d="M31.0586 33.9438C31.4836 33.9438 31.8281 33.599 31.8281 33.1736C31.8281 32.7482 31.4836 32.4033 31.0586 32.4033C30.6336 32.4033 30.2891 32.7482 30.2891 33.1736C30.2891 33.599 30.6336 33.9438 31.0586 33.9438Z" fill="#FFA205"/>
<path d="M33.8047 33.9438C34.2297 33.9438 34.5742 33.599 34.5742 33.1736C34.5742 32.7482 34.2297 32.4033 33.8047 32.4033C33.3797 32.4033 33.0352 32.7482 33.0352 33.1736C33.0352 33.599 33.3797 33.9438 33.8047 33.9438Z" fill="#6DBF28"/>
<path d="M169.362 41.7563H32.3106C31.8047 41.7563 31.3945 42.1669 31.3945 42.6733V58.8122C31.3945 59.3186 31.8047 59.7291 32.3106 59.7291H169.362C169.868 59.7291 170.278 59.3186 170.278 58.8122V42.6733C170.278 42.1669 169.868 41.7563 169.362 41.7563Z" fill="white" stroke="#BECDD7" stroke-width="0.473682"/>
<path d="M55.7632 83.5703H32.3106C31.8047 83.5703 31.3945 83.9809 31.3945 84.4873V111.63C31.3945 112.136 31.8047 112.547 32.3106 112.547H55.7632C56.2692 112.547 56.6793 112.136 56.6793 111.63V84.4873C56.6793 83.9809 56.2692 83.5703 55.7632 83.5703Z" fill="white" stroke="#BECDD7" stroke-width="0.473682"/>
<path d="M83.9781 83.5703H60.5255C60.0195 83.5703 59.6094 83.9809 59.6094 84.4873V111.63C59.6094 112.136 60.0195 112.547 60.5255 112.547H83.9781C84.484 112.547 84.8942 112.136 84.8942 111.63V84.4873C84.8942 83.9809 84.484 83.5703 83.9781 83.5703Z" fill="white" stroke="#BECDD7" stroke-width="0.473682"/>
<path d="M112.197 83.5703H88.7442C88.2383 83.5703 87.8281 83.9809 87.8281 84.4873V111.63C87.8281 112.136 88.2383 112.547 88.7442 112.547H112.197C112.703 112.547 113.113 112.136 113.113 111.63V84.4873C113.113 83.9809 112.703 83.5703 112.197 83.5703Z" fill="white" stroke="#BECDD7" stroke-width="0.473682"/>
<path d="M140.412 83.5703H116.959C116.453 83.5703 116.043 83.9809 116.043 84.4873V111.63C116.043 112.136 116.453 112.547 116.959 112.547H140.412C140.918 112.547 141.328 112.136 141.328 111.63V84.4873C141.328 83.9809 140.918 83.5703 140.412 83.5703Z" fill="white" stroke="#BECDD7" stroke-width="0.473682"/>
<path d="M168.63 83.5703H145.178C144.672 83.5703 144.262 83.9809 144.262 84.4873V111.63C144.262 112.136 144.672 112.547 145.178 112.547H168.63C169.136 112.547 169.547 112.136 169.547 111.63V84.4873C169.547 83.9809 169.136 83.5703 168.63 83.5703Z" fill="white" stroke="#BECDD7" stroke-width="0.473682"/>
<path d="M139.306 64.8643H62.3523C60.4297 64.8643 58.8711 66.4243 58.8711 68.3488C58.8711 70.2732 60.4297 71.8333 62.3523 71.8333H139.306C141.229 71.8333 142.787 70.2732 142.787 68.3488C142.787 66.4243 141.229 64.8643 139.306 64.8643Z" stroke="#656F76" stroke-width="0.473682"/>
<path d="M111.457 65.4141H62.3534C60.7344 65.4141 59.4219 66.7278 59.4219 68.3484C59.4219 69.969 60.7344 71.2827 62.3534 71.2827H111.457C113.076 71.2827 114.389 69.969 114.389 68.3484C114.389 66.7278 113.076 65.4141 111.457 65.4141Z" fill="#FF7651"/>
<path d="M89.0859 77.8852L89.7529 74.5474H90.3722L89.81 77.3607H91.5536L91.4488 77.8852H89.0859ZM93.115 77.9186C92.8673 77.9186 92.6496 77.8724 92.4624 77.7803C92.2781 77.685 92.1351 77.5547 92.0336 77.3893C91.9318 77.221 91.8812 77.0236 91.8812 76.798C91.8812 76.512 91.9461 76.2578 92.0765 76.0351C92.2066 75.8095 92.3843 75.6331 92.6101 75.5058C92.8387 75.3756 93.0989 75.3103 93.3913 75.3103C93.642 75.3103 93.8596 75.3566 94.044 75.4486C94.2312 75.5378 94.3756 75.6665 94.4775 75.8349C94.579 76.0003 94.6299 76.1972 94.6299 76.4261C94.6299 76.7089 94.5647 76.9635 94.4346 77.1891C94.3041 77.4146 94.1249 77.5929 93.8963 77.7231C93.6706 77.8533 93.4104 77.9186 93.115 77.9186ZM93.1531 77.4084C93.3246 77.4084 93.4752 77.3688 93.6057 77.2892C93.7358 77.2067 93.8391 77.0937 93.9153 76.9506C93.9916 76.8076 94.0297 76.6422 94.0297 76.4547C94.0297 76.2578 93.9707 76.1019 93.8534 75.9874C93.7358 75.873 93.5705 75.8158 93.358 75.8158C93.1894 75.8158 93.0388 75.8572 92.9054 75.9398C92.775 76.0194 92.672 76.1305 92.5958 76.2735C92.5195 76.4166 92.4814 76.582 92.4814 76.7694C92.4814 76.9697 92.5401 77.1271 92.6577 77.2415C92.775 77.3526 92.9402 77.4084 93.1531 77.4084ZM96.0708 77.9186C95.8645 77.9186 95.6754 77.8742 95.5039 77.7851C95.3357 77.696 95.2008 77.569 95.099 77.4036C95.0008 77.2353 94.9513 77.0332 94.9513 76.798C94.9513 76.582 94.9865 76.3832 95.0561 76.202C95.1294 76.0208 95.2309 75.8635 95.361 75.73C95.4914 75.5964 95.642 75.493 95.8135 75.42C95.9883 75.347 96.1789 75.3103 96.3852 75.3103C96.5981 75.3103 96.7806 75.3485 96.933 75.4248C97.0888 75.5011 97.2064 75.617 97.2855 75.7729C97.3651 75.9255 97.4017 76.1162 97.3951 76.3451C97.3889 76.6598 97.3317 76.9363 97.2236 77.1747C97.1159 77.4099 96.9649 77.5929 96.7711 77.7231C96.5776 77.8533 96.3441 77.9186 96.0708 77.9186ZM96.2232 77.4084C96.3947 77.4084 96.5457 77.3688 96.6758 77.2892C96.8062 77.2067 96.9092 77.0937 96.9854 76.9506C97.0616 76.8076 97.0998 76.6422 97.0998 76.4547C97.0998 76.2578 97.0411 76.1019 96.9235 75.9874C96.8062 75.873 96.641 75.8158 96.4281 75.8158C96.2599 75.8158 96.1089 75.8572 95.9755 75.9398C95.8454 76.0194 95.7421 76.1305 95.6659 76.2735C95.5896 76.4166 95.5515 76.582 95.5515 76.7694C95.5515 76.9664 95.6105 77.1223 95.7278 77.2367C95.8454 77.3512 96.0107 77.4084 96.2232 77.4084ZM96.8473 77.8852L96.9616 77.3035L97.1236 76.6264L97.2046 75.9445L97.3237 75.339H97.9191L97.4142 77.8852H96.8473ZM99.3417 77.9186C99.135 77.9186 98.9463 77.8742 98.7748 77.7851C98.6033 77.696 98.4681 77.569 98.3699 77.4036C98.2713 77.2353 98.2222 77.0332 98.2222 76.798C98.2222 76.582 98.257 76.3832 98.327 76.202C98.3999 76.0208 98.5014 75.8635 98.6319 75.73C98.762 75.5964 98.9129 75.493 99.0844 75.42C99.2589 75.347 99.4479 75.3103 99.6513 75.3103C99.8609 75.3103 100.042 75.347 100.194 75.42C100.347 75.493 100.464 75.6027 100.547 75.749C100.629 75.8954 100.671 76.0766 100.671 76.2926C100.671 76.531 100.64 76.7504 100.58 76.9506C100.52 77.1476 100.433 77.3193 100.318 77.4656C100.204 77.6087 100.064 77.7198 99.899 77.7994C99.7371 77.879 99.5513 77.9186 99.3417 77.9186ZM99.4941 77.4084C99.6623 77.4084 99.8115 77.3688 99.9419 77.2892C100.075 77.2067 100.178 77.0937 100.252 76.9506C100.328 76.8076 100.366 76.6422 100.366 76.4547C100.366 76.2578 100.307 76.1019 100.19 75.9874C100.075 75.873 99.91 75.8158 99.6942 75.8158C99.5289 75.8158 99.3798 75.8572 99.2464 75.9398C99.113 76.0194 99.0082 76.1305 98.932 76.2735C98.8587 76.4166 98.8224 76.582 98.8224 76.7694C98.8224 76.9664 98.8796 77.1223 98.9939 77.2367C99.1112 77.3512 99.2779 77.4084 99.4941 77.4084ZM100.113 77.8852L100.233 77.3035L100.39 76.6264L100.471 75.9445L100.79 74.3472H101.385L100.68 77.8852H100.113ZM101.464 77.8852L101.969 75.339H102.564L102.059 77.8852H101.464ZM102.402 74.9193C102.295 74.9193 102.207 74.8874 102.14 74.824C102.077 74.7572 102.045 74.6776 102.045 74.5856C102.045 74.4774 102.082 74.3868 102.155 74.3138C102.231 74.2408 102.329 74.2041 102.45 74.2041C102.555 74.2041 102.64 74.236 102.707 74.2995C102.774 74.36 102.807 74.4344 102.807 74.5236C102.807 74.6413 102.771 74.7367 102.698 74.8097C102.625 74.8827 102.526 74.9193 102.402 74.9193ZM104.732 75.3103C104.951 75.3103 105.137 75.3547 105.289 75.4439C105.442 75.533 105.549 75.6647 105.609 75.8396C105.672 76.0113 105.679 76.2226 105.628 76.4738L105.347 77.8852H104.751L105.027 76.4881C105.069 76.2816 105.05 76.121 104.97 76.0065C104.891 75.8888 104.746 75.8301 104.537 75.8301C104.318 75.8301 104.137 75.8906 103.994 76.0113C103.851 76.132 103.754 76.3165 103.703 76.5644L103.436 77.8852H102.841L103.346 75.339H103.913L103.77 76.0637L103.675 75.8349C103.795 75.6537 103.946 75.5216 104.127 75.4391C104.311 75.3533 104.513 75.3103 104.732 75.3103ZM107.136 78.8437C106.895 78.8437 106.672 78.8136 106.469 78.753C106.266 78.6958 106.091 78.61 105.945 78.4956L106.254 78.0473C106.353 78.1332 106.483 78.2014 106.645 78.2524C106.807 78.3063 106.983 78.3334 107.174 78.3334C107.453 78.3334 107.664 78.2715 107.807 78.1475C107.95 78.0268 108.046 77.8438 108.093 77.5991L108.198 77.0746L108.355 76.5358L108.45 75.9588L108.57 75.339H109.136L108.708 77.499C108.612 77.9725 108.435 78.3144 108.174 78.5242C107.914 78.7373 107.568 78.8437 107.136 78.8437ZM107.283 77.7708C107.064 77.7708 106.869 77.7293 106.697 77.6468C106.526 77.561 106.391 77.4403 106.292 77.2844C106.194 77.1256 106.145 76.9363 106.145 76.717C106.145 76.5167 106.18 76.3322 106.25 76.1639C106.323 75.9922 106.423 75.8429 106.55 75.7157C106.68 75.5884 106.833 75.4901 107.007 75.42C107.185 75.347 107.379 75.3103 107.588 75.3103C107.773 75.3103 107.943 75.3437 108.098 75.4105C108.254 75.4739 108.378 75.5788 108.469 75.7252C108.562 75.8682 108.605 76.0575 108.598 76.2926C108.592 76.5725 108.536 76.8252 108.431 77.0508C108.327 77.2734 108.177 77.4498 107.984 77.5801C107.79 77.7073 107.557 77.7708 107.283 77.7708ZM107.417 77.2653C107.588 77.2653 107.739 77.2287 107.869 77.1557C108 77.0794 108.101 76.9759 108.174 76.8457C108.25 76.7122 108.288 76.5629 108.288 76.3975C108.288 76.2163 108.23 76.0747 108.112 75.9731C107.995 75.8682 107.831 75.8158 107.622 75.8158C107.45 75.8158 107.299 75.8539 107.169 75.9302C107.039 76.0032 106.936 76.1052 106.859 76.2354C106.783 76.3656 106.745 76.5153 106.745 76.6836C106.745 76.8648 106.804 77.0079 106.921 77.1128C107.042 77.2144 107.207 77.2653 107.417 77.2653ZM109.658 77.9186C109.553 77.9186 109.464 77.8838 109.391 77.8137C109.321 77.7436 109.286 77.6549 109.286 77.5467C109.286 77.4227 109.327 77.3226 109.41 77.2463C109.492 77.1667 109.589 77.1271 109.7 77.1271C109.805 77.1271 109.892 77.1619 109.962 77.232C110.032 77.2987 110.067 77.3879 110.067 77.499C110.067 77.5815 110.048 77.6549 110.01 77.7183C109.972 77.7818 109.921 77.8313 109.858 77.8661C109.797 77.901 109.73 77.9186 109.658 77.9186ZM110.821 77.9186C110.716 77.9186 110.627 77.8838 110.554 77.8137C110.484 77.7436 110.449 77.6549 110.449 77.5467C110.449 77.4227 110.49 77.3226 110.573 77.2463C110.655 77.1667 110.752 77.1271 110.863 77.1271C110.968 77.1271 111.056 77.1619 111.126 77.232C111.195 77.2987 111.23 77.3879 111.23 77.499C111.23 77.5815 111.211 77.6549 111.173 77.7183C111.135 77.7818 111.084 77.8313 111.021 77.8661C110.96 77.901 110.894 77.9186 110.821 77.9186ZM111.983 77.9186C111.879 77.9186 111.79 77.8838 111.717 77.8137C111.647 77.7436 111.612 77.6549 111.612 77.5467C111.612 77.4227 111.653 77.3226 111.736 77.2463C111.818 77.1667 111.915 77.1271 112.026 77.1271C112.131 77.1271 112.219 77.1619 112.288 77.232C112.358 77.2987 112.393 77.3879 112.393 77.499C112.393 77.5815 112.374 77.6549 112.336 77.7183C112.298 77.7818 112.247 77.8313 112.183 77.8661C112.123 77.901 112.057 77.9186 111.983 77.9186Z" fill="#3F3F68"/>
<g filter="url(#filter1_d_439_201476)">
<path d="M191.707 52.5761C191.707 72.8333 175.301 89.2553 155.063 89.2553C134.825 89.2553 118.418 72.8333 118.418 52.5761C118.418 32.3188 134.825 15.897 155.063 15.897C175.301 15.897 191.707 32.3188 191.707 52.5761Z" fill="#F6F6F6"/>
<path fill-rule="evenodd" clip-rule="evenodd" d="M155.063 89.0459C175.185 89.0459 191.498 72.7178 191.498 52.5761C191.498 32.4345 175.185 16.1066 155.063 16.1066C134.94 16.1066 118.627 32.4345 118.627 52.5761C118.627 72.7178 134.94 89.0459 155.063 89.0459ZM155.063 89.2553C175.301 89.2553 191.707 72.8333 191.707 52.5761C191.707 32.3188 175.301 15.897 155.063 15.897C134.825 15.897 118.418 32.3188 118.418 52.5761C118.418 72.8333 134.825 89.2553 155.063 89.2553Z" fill="#A7A7A7"/>
<path d="M145.931 36.6048L138.3 23.4199C133.212 26.3618 128.979 30.6046 126.027 35.6921L139.222 43.3234C140.824 40.5369 143.144 38.2165 145.931 36.6048Z" fill="#FE6521"/>
<path d="M145.931 36.6048L138.3 23.4199C133.212 26.3618 128.979 30.6046 126.027 35.6921L139.222 43.3234C140.824 40.5369 143.144 38.2165 145.931 36.6048Z" stroke="white" stroke-width="2.88946" stroke-miterlimit="10"/>
<path d="M155.064 34.168V18.9346C148.957 18.9346 143.229 20.5657 138.297 23.4201L145.928 36.605C148.618 35.0516 151.734 34.168 155.064 34.168Z" fill="#FFB020"/>
<path d="M155.064 34.168V18.9346C148.957 18.9346 143.229 20.5657 138.297 23.4201L145.928 36.605C148.618 35.0516 151.734 34.168 155.064 34.168Z" stroke="white" stroke-width="2.88946" stroke-miterlimit="10"/>
<path d="M170.91 43.3234L184.095 35.6921C181.153 30.6046 176.91 26.3618 171.823 23.4199L164.191 36.6048C166.978 38.2165 169.298 40.5369 170.91 43.3234Z" fill="#B8D420"/>
<path d="M170.91 43.3234L184.095 35.6921C181.153 30.6046 176.91 26.3618 171.823 23.4199L164.191 36.6048C166.978 38.2165 169.298 40.5369 170.91 43.3234Z" stroke="white" stroke-width="2.88946" stroke-miterlimit="10"/>
<path d="M164.193 36.605L171.824 23.4201C166.892 20.5657 161.173 18.9346 155.066 18.9346V34.168C158.387 34.168 161.503 35.0516 164.193 36.605Z" fill="#F8DC21"/>
<path d="M164.193 36.605L171.824 23.4201C166.892 20.5657 161.173 18.9346 155.066 18.9346V34.168C158.387 34.168 161.503 35.0516 164.193 36.605Z" stroke="white" stroke-width="2.88946" stroke-miterlimit="10"/>
<path d="M173.343 52.4502H188.577C188.577 46.3432 186.946 40.6246 184.091 35.6924L170.906 43.3237C172.46 46.0034 173.343 49.1297 173.343 52.4502Z" fill="#6CC922"/>
<path d="M173.343 52.4502H188.577C188.577 46.3432 186.946 40.6246 184.091 35.6924L170.906 43.3237C172.46 46.0034 173.343 49.1297 173.343 52.4502Z" stroke="white" stroke-width="2.88946" stroke-miterlimit="10"/>
<path d="M139.215 43.3237L126.021 35.6924C123.176 40.6246 121.535 46.3432 121.535 52.4502H136.769C136.769 49.1297 137.662 46.0034 139.215 43.3237Z" fill="#F00C01"/>
<path d="M139.215 43.3237L126.021 35.6924C123.176 40.6246 121.535 46.3432 121.535 52.4502H136.769C136.769 49.1297 137.662 46.0034 139.215 43.3237Z" stroke="white" stroke-width="2.88946" stroke-miterlimit="10"/>
<path d="M169.722 52.576C169.722 60.6788 163.159 67.2476 155.064 67.2476C146.969 67.2476 140.406 60.6788 140.406 52.576C140.406 44.4732 146.969 37.9043 155.064 37.9043C163.159 37.9043 169.722 44.4732 169.722 52.576Z" fill="#F0EFF8"/>
<path d="M163.435 52.5766C163.435 57.2066 159.685 60.9604 155.059 60.9604C150.433 60.9604 146.684 57.2066 146.684 52.5766C146.684 47.9463 150.433 44.1929 155.059 44.1929C159.685 44.1929 163.435 47.9463 163.435 52.5766Z" fill="#D4D2E2"/>
<g filter="url(#filter2_d_439_201476)">
<path d="M181.104 42.6671C181.217 42.6334 181.336 42.6932 181.377 42.8036C181.417 42.914 181.364 43.0368 181.256 43.0831L155.419 54.1565C154.478 54.5596 153.392 54.089 153.042 53.1262C152.692 52.1637 153.222 51.1044 154.201 50.8077L181.104 42.6671Z" fill="#365B66"/>
</g>
<g filter="url(#filter3_d_439_201476)">
<path fill-rule="evenodd" clip-rule="evenodd" d="M155.336 53.9636L181.173 42.8905C181.179 42.8879 181.182 42.8813 181.18 42.8751C181.178 42.8692 181.171 42.8659 181.165 42.8677L154.262 51.0083C153.397 51.2702 152.93 52.2052 153.238 53.0547C153.547 53.9041 154.506 54.3197 155.336 53.9636ZM181.377 42.8036C181.336 42.6932 181.217 42.6334 181.104 42.6671L154.201 50.8077C153.222 51.1044 152.692 52.1637 153.042 53.1262C153.392 54.089 154.478 54.5596 155.419 54.1565L181.256 43.0831C181.364 43.0368 181.417 42.914 181.377 42.8036Z" fill="white"/>
</g>
<path d="M152.898 81.7093L152.874 73.1997H150.894L147.979 78.111L144.991 73.1997H143.012V81.7093H145.234V77.3206L147.408 80.8704H148.477L150.663 77.1992L150.687 81.7093H152.898Z" fill="#32325A"/>
<path d="M156.932 75.0107C155.9 75.0107 154.782 75.2781 154.029 75.7766L154.806 77.345C155.256 76.9925 155.96 76.7735 156.592 76.7735C157.503 76.7735 157.952 77.1502 157.989 77.8189H156.677C154.636 77.8189 153.75 78.5727 153.75 79.7882C153.75 80.9311 154.624 81.8184 156.203 81.8184C157.163 81.8184 157.819 81.4901 158.147 80.8581V81.7091H160.296V78.05C160.296 75.9589 159.069 75.0107 156.932 75.0107ZM156.847 80.3597C156.3 80.3597 155.985 80.0802 155.985 79.691C155.985 79.2901 156.252 79.0223 156.993 79.0223H157.989V79.5938C157.807 80.1165 157.357 80.3597 156.847 80.3597Z" fill="#32325A"/>
<path d="M168.203 81.7093L165.69 78.3297L168.118 75.1206H165.678L164.463 76.7858L163.297 75.1206H160.698L163.127 78.4148L160.625 81.7093H163.127L164.39 79.9832L165.568 81.7093H168.203Z" fill="#32325A"/>
</g>
</g>
<defs>
<filter id="filter0_d_439_201476" x="15.1847" y="24.1438" width="171.283" height="105.403" filterUnits="userSpaceOnUse" color-interpolation-filters="sRGB">
<feFlood flood-opacity="0" result="BackgroundImageFix"/>
<feColorMatrix in="SourceAlpha" type="matrix" values="0 0 0 0 0 0 0 0 0 0 0 0 0 0 0 0 0 0 127 0" result="hardAlpha"/>
<feOffset dy="1.89473"/>
<feGaussianBlur stdDeviation="4.26313"/>
<feColorMatrix type="matrix" values="0 0 0 0 0.048125 0 0 0 0 0.0583125 0 0 0 0 0.15 0 0 0 0.08 0"/>
<feBlend mode="normal" in2="BackgroundImageFix" result="effect1_dropShadow_439_201476"/>
<feBlend mode="normal" in="SourceGraphic" in2="effect1_dropShadow_439_201476" result="shape"/>
</filter>
<filter id="filter1_d_439_201476" x="94.7339" y="-3.99765" width="120.657" height="120.727" filterUnits="userSpaceOnUse" color-interpolation-filters="sRGB">
<feFlood flood-opacity="0" result="BackgroundImageFix"/>
<feColorMatrix in="SourceAlpha" type="matrix" values="0 0 0 0 0 0 0 0 0 0 0 0 0 0 0 0 0 0 127 0" result="hardAlpha"/>
<feOffset dy="3.78945"/>
<feGaussianBlur stdDeviation="11.842"/>
<feComposite in2="hardAlpha" operator="out"/>
<feColorMatrix type="matrix" values="0 0 0 0 0.0352941 0 0 0 0 0.0352941 0 0 0 0 0.105882 0 0 0 0.2 0"/>
<feBlend mode="normal" in2="BackgroundImageFix" result="effect1_dropShadow_439_201476"/>
<feBlend mode="normal" in="SourceGraphic" in2="effect1_dropShadow_439_201476" result="shape"/>
</filter>
<filter id="filter2_d_439_201476" x="147.249" y="38.8683" width="39.8254" height="23.0119" filterUnits="userSpaceOnUse" color-interpolation-filters="sRGB">
<feFlood flood-opacity="0" result="BackgroundImageFix"/>
<feColorMatrix in="SourceAlpha" type="matrix" values="0 0 0 0 0 0 0 0 0 0 0 0 0 0 0 0 0 0 127 0" result="hardAlpha"/>
<feOffset dy="1.89473"/>
<feGaussianBlur stdDeviation="2.84209"/>
<feComposite in2="hardAlpha" operator="out"/>
<feColorMatrix type="matrix" values="0 0 0 0 0.0457247 0 0 0 0 0.0337326 0 0 0 0 0.120833 0 0 0 0.2 0"/>
<feBlend mode="normal" in2="BackgroundImageFix" result="effect1_dropShadow_439_201476"/>
<feBlend mode="normal" in="SourceGraphic" in2="effect1_dropShadow_439_201476" result="shape"/>
</filter>
<filter id="filter3_d_439_201476" x="147.249" y="38.8683" width="39.8254" height="23.0119" filterUnits="userSpaceOnUse" color-interpolation-filters="sRGB">
<feFlood flood-opacity="0" result="BackgroundImageFix"/>
<feColorMatrix in="SourceAlpha" type="matrix" values="0 0 0 0 0 0 0 0 0 0 0 0 0 0 0 0 0 0 127 0" result="hardAlpha"/>
<feOffset dy="1.89473"/>
<feGaussianBlur stdDeviation="2.84209"/>
<feComposite in2="hardAlpha" operator="out"/>
<feColorMatrix type="matrix" values="0 0 0 0 0.0457247 0 0 0 0 0.0337326 0 0 0 0 0.120833 0 0 0 0.2 0"/>
<feBlend mode="normal" in2="BackgroundImageFix" result="effect1_dropShadow_439_201476"/>
<feBlend mode="normal" in="SourceGraphic" in2="effect1_dropShadow_439_201476" result="shape"/>
</filter>
<clipPath id="clip0_439_201476">
<rect width="198.614" height="126.543" fill="white" transform="translate(11.418 0.492188)"/>
</clipPath>
</defs>
</svg>
