<svg viewBox="0 0 720 144" xmlns="http://www.w3.org/2000/svg" preserveAspectRatio="xMidYMax slice">
<path class="elementor-shape-fill" d="M250.31 122.96V94.69C250.31 89.57 254.46 85.41 259.59 85.41C264.71 85.41 268.87 89.56 268.87 94.69V126.14C268.87 127.65 270.09 128.87 271.6 128.87H273.15C274.66 128.87 275.88 127.65 275.88 126.14V69.51C275.88 64.98 279.55 61.31 284.08 61.31C288.61 61.31 292.28 64.98 292.28 69.51V136.04C292.28 137.55 293.5 138.77 295.01 138.77H296.14C297.65 138.77 298.87 137.55 298.87 136.04V36.32C298.87 31.91 302.45 28.33 306.86 28.33C311.27 28.33 314.85 31.91 314.85 36.32V98.79V141.26C314.85 142.77 316.07 143.99 317.58 143.99C319.09 143.99 320.31 142.77 320.31 141.26V54.25C320.31 49.44 324.21 45.54 329.02 45.54C333.83 45.54 337.73 49.44 337.73 54.25V120V140.85C337.73 142.41 338.99 143.67 340.55 143.67H341.92C343.48 143.67 344.74 142.41 344.74 140.85V43.63C344.74 39.53 348.06 36.21 352.16 36.21C356.26 36.21 359.58 39.53 359.58 43.63V137.85C359.58 139.41 360.84 140.67 362.4 140.67C363.96 140.67 365.22 139.41 365.22 137.85V99.89V35.22C365.22 30.91 368.71 27.42 373.02 27.42C377.33 27.42 380.82 30.91 380.82 35.22V99.89V130.98C380.82 132.49 382.04 133.71 383.55 133.71H385.16C386.67 133.71 387.89 132.49 387.89 130.98V71.25C387.89 66.83 391.47 63.25 395.89 63.25C400.31 63.25 403.89 66.83 403.89 71.25V120.71V123.14C403.89 124.65 405.11 125.87 406.62 125.87H408.23C409.74 125.87 410.96 124.65 410.96 123.14V92.71C410.96 88.68 414.23 85.42 418.25 85.42C422.28 85.42 425.54 88.68 425.54 92.71L425.58 120.63C425.58 122.39 427.01 123.81 428.77 123.8H429.88C431.39 123.78 432.61 122.56 432.61 121.05V113.19C432.61 109 436.01 105.6 440.2 105.6C444.39 105.6 447.79 109 447.79 113.19V116C447.79 119.35 450.5 122.06 453.85 122.06H719.97V0H0V122.05H222.19C225.54 122.05 228.25 119.34 228.25 115.99V113.11C228.25 108.95 231.62 105.58 235.78 105.58C239.94 105.58 243.31 108.95 243.31 113.11V114.05V123.06C243.31 124.57 244.53 125.79 246.04 125.79H247.49C249.05 125.79 250.32 124.52 250.32 122.96H250.31Z" />
</svg>
