<svg viewBox="0 0 720 133" xmlns="http://www.w3.org/2000/svg" preserveAspectRatio="xMidYMax slice">
<path class="elementor-shape-fill" d="M250.31 95.54V67.27C250.31 62.15 254.46 57.99 259.59 57.99C264.71 57.99 268.87 62.14 268.87 67.27V98.72C268.87 100.23 270.09 101.45 271.6 101.45H273.15C274.66 101.45 275.88 100.23 275.88 98.72V42.09C275.88 37.56 279.55 33.89 284.08 33.89C288.61 33.89 292.28 37.56 292.28 42.09V108.62C292.28 110.13 293.5 111.35 295.01 111.35H296.14C297.65 111.35 298.87 110.13 298.87 108.62V8.9C298.87 4.49 302.45 0.91 306.86 0.91C311.27 0.91 314.85 4.49 314.85 8.9V71.37V113.84C314.85 115.35 316.07 116.57 317.58 116.57C319.09 116.57 320.31 115.35 320.31 113.84V26.82C320.31 22.01 324.21 18.11 329.02 18.11C333.83 18.11 337.73 22.01 337.73 26.82V92.57V113.42C337.73 114.98 338.99 116.24 340.55 116.24H341.92C343.48 116.24 344.74 114.98 344.74 113.42V16.21C344.74 12.11 348.06 8.79 352.16 8.79C356.26 8.79 359.58 12.11 359.58 16.21V110.43C359.58 111.99 360.84 113.25 362.4 113.25C363.96 113.25 365.22 111.99 365.22 110.43V72.47V7.8C365.22 3.49 368.71 0 373.02 0C377.33 0 380.82 3.49 380.82 7.8V72.47V103.56C380.82 105.07 382.04 106.29 383.55 106.29H385.16C386.67 106.29 387.89 105.07 387.89 103.56V43.83C387.89 39.41 391.47 35.83 395.89 35.83C400.31 35.83 403.89 39.41 403.89 43.83V93.29V95.72C403.89 97.23 405.11 98.45 406.62 98.45H408.23C409.74 98.45 410.96 97.23 410.96 95.72V65.29C410.96 61.26 414.23 58 418.25 58C422.28 58 425.54 61.26 425.54 65.29L425.58 93.21C425.58 94.97 427.01 96.39 428.77 96.38H429.88C431.39 96.36 432.61 95.14 432.61 93.63V85.77C432.61 81.58 436.01 78.18 440.2 78.18C444.39 78.18 447.79 81.58 447.79 85.77V88.58C447.79 91.93 450.5 94.64 453.85 94.64H719.97V132.59H0V94.64H222.19C225.54 94.64 228.25 91.93 228.25 88.58V85.7C228.25 81.54 231.62 78.17 235.78 78.17C239.94 78.17 243.31 81.54 243.31 85.7V86.64V95.65C243.31 97.16 244.53 98.38 246.04 98.38H247.49C249.05 98.38 250.32 97.11 250.32 95.55L250.31 95.54Z" />
</svg>
