<svg viewBox="0 0 720 157" xmlns="http://www.w3.org/2000/svg" preserveAspectRatio="xMidYMax slice">
<path class="elementor-shape-fill" d="M414.18 137.17L414.71 134.39L411.39 131.04L416.07 130.44L418.23 126.25L420.24 130.51L424.89 131.27L421.46 134.5L422.16 139.04C424.1 139.45 426.08 139.85 428.07 140.21L424.91 136.78L431.58 134.33C431.58 134.33 423.26 131.78 425.48 129.65C427.7 127.52 432.4 133.7 432.4 133.7C432.4 133.7 430.59 126.32 432.96 126.92C435.33 127.52 433.38 133.47 433.38 133.47L440.39 130.73L441.19 139.42L435.84 141.51C544.4 157.85 719.99 112.96 719.99 112.96V156.96H0V112.96C0 112.96 183.83 159.97 291.56 140.27L284.74 139.28L282.71 130.52L289.72 131.68C289.72 131.68 283.75 125.36 286.73 124.61C289.71 123.86 290.75 131.55 290.75 131.55C290.75 131.55 292.81 124.24 294.58 125.93C296.35 127.62 291.71 131.83 291.71 131.83L299.16 132.91L296.24 139.37C299.65 138.67 302.98 137.9 306.22 137.05L305.14 135.42L300.43 135.35L303.36 131.65L301.97 127.14L306.39 128.78L310.25 126.07L310.06 130.78L313.83 133.61L309.29 134.88L308.79 136.35C314.91 134.64 320.68 132.65 326.04 130.36L313.48 130.72L307.94 117.62L319.17 117.52C319.17 117.52 308.15 109.3 312.59 107.31C317.03 105.32 320.73 117.02 320.73 117.02C320.73 117.02 321.96 105.08 325.17 107.23C328.38 109.39 322.31 117.2 322.31 117.2L334.21 116.86L331.37 127.9C334.86 126.17 338.15 124.29 341.21 122.25L334.44 120.62L338.62 114.87C338.62 114.87 330.29 117.38 330.95 114.38C331.61 111.38 338.95 113.89 338.95 113.89C338.95 113.89 333.34 108.77 335.64 107.95C337.94 107.13 339.63 113.15 339.63 113.15L343.93 106.97L349.43 113.74L345.85 118.88C348.14 117.08 350.28 115.17 352.24 113.15C352.24 113.15 349.87 99.29 349.49 99.84C349.12 100.39 348.29 100.41 348.29 100.41C345.74 100.46 347.44 96.62 347.44 96.62C347.44 96.62 346.19 99.17 343.8 99.07C341.4 98.97 343.5 95.23 343.5 95.23C343.5 95.23 340.75 97.68 338.51 97.43C336.27 97.18 338.06 94.24 338.06 94.24C338.06 94.24 334.42 96.74 332.77 96.39C331.12 96.04 333.62 92.85 333.62 92.85C333.62 92.85 332.17 94.6 329.73 94.4C327.29 94.2 330.43 91.31 330.43 91.31C330.43 91.31 328.28 92.31 325.24 91.76C322.2 91.21 324.99 88.72 324.99 88.72C322.14 89.62 320.4 88.42 319.75 87.62C319.1 86.82 323.19 84.38 323.19 84.38C322.64 84.43 318.7 81.78 321.99 81.44C325.28 81.09 330.58 77.2 330.58 77.2C326.69 76.95 325.19 75.1 330.38 73.61C335.57 72.11 340.06 64.83 337.42 65.57C334.77 66.32 333.38 66.27 332.78 65.07C332.18 63.87 336.37 62.77 333.48 63.02C330.58 63.27 327.74 62.32 328.34 61.37C328.94 60.42 330.54 59.62 330.54 59.62C328.59 59.37 325.85 57.22 328.64 57.15C331.44 57.08 335.48 55.58 335.48 55.58C334.18 55.63 329.19 53.83 333.28 52.93C337.37 52.03 342.06 46.99 342.06 46.99C342.06 46.99 341.26 47.44 340.36 46.74C339.46 46.04 341.01 44.14 341.01 44.14C336.12 45.44 333.97 42.24 336.07 42.54C338.17 42.84 340.76 39.99 340.76 39.99C337.47 39.39 338.81 37.14 338.81 37.14C351.19 34.99 351.54 26.66 351.54 26.66C344.2 28.01 344.75 25.01 344.75 25.01C352.84 23.01 359.47 10.29 359.47 10.29L356.08 12.04L356.93 7.99999L353.89 4.75999L358.03 4.52999L359.98 0.019989L361.93 4.52999L366.07 4.75999L363.03 7.99999L363.88 12.04L360.49 10.29C360.49 10.29 367.13 23.02 375.21 25.01C375.21 25.01 375.76 28 368.42 26.66C368.42 26.66 368.77 35 381.15 37.14C381.15 37.14 382.5 39.39 379.2 39.99C379.2 39.99 381.8 42.84 383.89 42.54C385.99 42.24 383.84 45.44 378.95 44.14C378.95 44.14 380.5 46.04 379.6 46.74C378.7 47.44 377.9 46.99 377.9 46.99C377.9 46.99 382.59 52.03 386.68 52.93C390.77 53.83 385.78 55.63 384.48 55.58C384.48 55.58 388.52 57.08 391.32 57.15C394.12 57.22 391.37 59.37 389.42 59.62C389.42 59.62 391.02 60.42 391.62 61.37C392.22 62.32 389.37 63.27 386.48 63.02C383.58 62.77 387.78 63.87 387.18 65.07C386.58 66.27 385.18 66.32 382.54 65.57C379.89 64.82 384.39 72.11 389.58 73.61C394.77 75.11 393.27 76.95 389.38 77.2C389.38 77.2 394.67 81.09 397.97 81.44C401.26 81.79 397.32 84.43 396.77 84.38C396.77 84.38 400.86 86.83 400.21 87.62C399.56 88.42 397.81 89.62 394.97 88.72C394.97 88.72 397.77 91.22 394.72 91.76C391.68 92.31 389.53 91.31 389.53 91.31C389.53 91.31 392.67 94.21 390.23 94.4C387.79 94.59 386.34 92.85 386.34 92.85C386.34 92.85 388.84 96.04 387.19 96.39C385.54 96.74 381.9 94.24 381.9 94.24C381.9 94.24 383.7 97.18 381.45 97.43C379.2 97.68 376.46 95.23 376.46 95.23C376.46 95.23 378.56 98.97 376.16 99.07C373.76 99.17 372.52 96.62 372.52 96.62C372.52 96.62 374.22 100.46 371.67 100.41C371.67 100.41 370.85 100.39 370.47 99.84C370.1 99.29 367.72 113.15 367.72 113.15C368.5 113.95 369.31 114.74 370.15 115.51C369.53 114.44 368.82 112.52 370.35 110.76C372.62 108.15 377.37 116.71 377.37 116.71C377.37 116.71 374.5 111.52 377.36 109.87C380.22 108.22 385.21 120.05 385.21 120.05C385.21 120.05 382.04 107.85 388.98 108.56C395.93 109.27 388.84 118.65 388.84 118.65C388.84 118.65 393.34 111.99 397.66 115.24C401.99 118.5 389.77 122.71 389.77 122.71C391.68 121.4 397.17 123.44 397.72 125.93L401.23 120.49L405.27 126.33C405.27 126.33 405.65 117.64 408.27 119.26C410.88 120.88 406.09 126.97 406.09 126.97C406.09 126.97 412.78 123.37 412.79 125.81C412.8 128.25 406.56 127.86 406.56 127.86L410.97 133.96L407.41 135.23C409.63 135.91 411.9 136.55 414.22 137.15" />
</svg>
