<svg xmlns="http://www.w3.org/2000/svg" viewBox="0 0 720 160" preserveAspectRatio="xMidYMax slice">
  <circle class="elementor-shape-fill"  cx="165.11" cy="91.02" r="3.04"/>
  <path class="elementor-shape-fill"  d="m536.74,94.06c1.68,0,3.04-1.36,3.04-3.04s-1.36-3.04-3.04-3.04-3.04,1.36-3.04,3.04,1.36,3.04,3.04,3.04Z"/>
  <circle class="elementor-shape-fill"  cx="627.85" cy="69.37" r="3.04"/>
  <circle class="elementor-shape-fill"  cx="597.47" cy="107.95" r="3.04"/>
  <path class="elementor-shape-fill"  d="m100.17,53.69c2.47,0,4.47-2,4.47-4.47s-2-4.47-4.47-4.47-4.47,2-4.47,4.47,2,4.47,4.47,4.47Z"/>
  <path class="elementor-shape-fill"  d="m38.83,93.5c1.37,0,2.47-1.11,2.47-2.47s-1.11-2.47-2.47-2.47-2.47,1.11-2.47,2.47,1.11,2.47,2.47,2.47Z"/>
  <path class="elementor-shape-fill"  d="m594.49,133.13c-10.07.91-20.09.57-30.09-.49l.05-3.9c4.09-.13,7.34-2.16,7.34-10.92s-3.49-20.15-7.79-20.15-7.79,11.06-7.79,20.15,3.2,10.76,7.25,10.92l-.05,3.79c-35.34-3.94-70.37-16.77-106.11-15.63-25.06.8-49.45,8.46-74.07,13.27l.03-2.3c2.38-.08,4.26-1.25,4.26-6.35s-2.03-11.71-4.53-11.71-4.53,6.43-4.53,11.71,1.86,6.25,4.21,6.35l-.03,2.41c-12.2,2.36-24.46,4.01-36.88,3.76l.04-2.86c4.37-.14,7.84-2.31,7.84-11.67s-3.73-21.53-8.32-21.53-8.32,11.82-8.32,21.53,3.42,11.5,7.74,11.67l-.04,2.84c-34.37-1-67.36-16.39-101.5-17.8,2.91-.58,5.22-1.04,6.38-1.25,2.96-.55,6.27-2.67,8.32-4.58,3.61-3.38,6.19-11.51.76-15.43-4.12-2.98-10.32.92-8.3,5.46,1.08,2.42,5.26,1.63,4.45.16-.18-.33-1.21.2-1.63-.83-.41-1,.28-2.55,2.12-2.45,3.88.21,3.58,4.61,2.47,7.1-1.92,4.27-6.57,6.36-10.95,7.1-5.17.88-7.43,1.47-8.23-2.89,2.98-.41,5.02-.7,5.01-.73,3.05-3.21-.45-11.69,2.65-13.61.43-.27,1.23-.15,1.38.39.2.73-.33.9-.4,1.12-.05.17,1.55.26,1.68-1.19.06-.71-.02-1.64-.5-2.32-2.1-2.99-5.68-2.35-7.2.34-.56,1-1.17,2.02-1.85,2.99-.26-1.53-.75-3.02-1.44-4.41.54-.19,1.15-.42,1.77-.65.21.18.47.28.73.28.26,0,.51-.07.74-.17.41-.17.78-.4,1.15-.64.23-.15.48-.31.61-.55.14-.24.12-.59-.1-.75.65.21,1.29.27,1.86.08.57-.19,1.05-.66,1.2-1.24.11-.41.04-.84-.08-1.25,5.76-2.44,32.54-13.07,59.27-11.78-.12.39-.13.72.04.83-.67.59-1.46,1.03-2.41,1.2-1.65.3-3.34-.11-5.01-.32-1.91-.24-3.88-.21-5.74.26-1.87.48-3.64,1.42-4.96,2.83-.31.33-.61.75-.53,1.19.07.41.68.66.93.38-.97,1.36-1.89,2.9-2.59,4.49-.54,1.22-1.26,2.74-2.08,3.98-.85.53-1.88.77-2.88.65-.21-.02-.43-.06-.61.04-.22.11-.31.37-.38.6-.11.38-.21.77-.28,1.16-.4,0-.73,0-.97.07-.55.18-2.18,4.09-3.26,6.07-.25.46-.67.97-1.03,1.34-.36.37-.82.28-1.29.49-.34.15-.43,2.4-.2,2.56.83.6,4.39-4.42,5.9-7.17-.26,1.74-1.09,3.64-2.49,4.62-.7.49-.45,2.49-.05,2.45,1.69-.18,3.79-5.42,4.44-8.17,2.65-.61,4.8-1.01,7.18-2.22,2.38-1.21,5.05-3.1,6.29-5.47.95-.9,2.54-.99,3.29-1.16.91-.21,3.12-.31,4.43-.1,3.09.5,6.27.68,9.16-.52,2.87.25,5.76.43,8.84.38,1.96.4,3.84,1.38,5.53,1.96.47,1.3-.53,1.22-.63,1.91-.1.72.84,2.23,1.12,2.3.42.1,1.85-2.06,1.05-3.84,1.05.4,1.99.81,1.88,1.55-.06.4.72.51,1.34.67.4.1.92.26,1.28.06.11-.63-.31-1.3-.77-1.74-1.26-1.2-2.78-2.01-4.42-2.58-.29-2.09-1.07-3.94-2.06-5.76-.3-.56-.57-1.28-1.16-1.51-.47-.18-4.31.28-5.76.45.17-.5.28-1,.36-1.5.11,0,.22,0,.33-.01.78-.04.7-1.69.22-2.53,10.22-1.1,19.32-4.77,28.82-8.6,10.77-4.34,21.82-8.79,35.28-9.72-.21.65-.25,1.27.03,1.37.08.03.16.04.24.06-.78.76-1.72,1.33-2.79,1.61-1.63.42-3.34.14-5.02.06-1.93-.09-3.88.08-5.71.7-1.83.62-3.52,1.69-4.73,3.19-.28.35-.55.79-.43,1.23.11.4.72.61.96.31-.86,1.43-1.67,3.04-2.24,4.67-.44,1.25-1.05,2.82-1.77,4.13-.81.59-1.82.91-2.82.87-.21,0-.43-.03-.6.08-.21.13-.28.39-.33.63-.08.39-.15.78-.19,1.18-.39.03-.73.05-.96.14-.53.22-1.86,4.24-2.78,6.3-.21.47-.59,1.02-.92,1.42-.33.4-.79.34-1.25.59-.33.18-.25,2.42,0,2.57.87.54,4.04-4.74,5.34-7.6-.13,1.76-.81,3.71-2.14,4.79-.66.54-.26,2.52.13,2.45,1.67-.31,3.37-5.69,3.8-8.49,2.59-.81,4.71-1.37,6.99-2.76,2.28-1.39,4.8-3.47,5.86-5.93.88-.97,2.45-1.18,3.19-1.4.89-.27,3.09-.55,4.41-.44,3.12.26,6.31.2,9.09-1.21,4.36-1.82,5.53-2.34,7.32-3.09,1-.42,1.79-.76,2.53-1.07.26.47.68,1.01.96,2.42.14.69.03,1.67-.57,2.17-.41.34-.85.37-.95.62-.24.58.45,2.15,1.13,2.18.32.01,1.27-.47,1.93-3.29.17-.73.22-1.93.07-2.72.9,1.3,1.85,2.92,2.27,3.97.51,1.28-.62,1.31-.67,2-.05.72,1.01,2.16,1.29,2.21.42.07,1.72-2.76.23-5.83-.92-1.9-1.69-3.91-2.81-5.65-.31-.49-.6-1.11-1.11-1.35-.11-.49-.23-.92-.32-1.28-.05-.19-.42-1.5-.82-1.48-.46.03-2.67,1.12-4.5,2.5.08-.48.13-.95.14-1.41.15-.03.3-.05.45-.08.42-.08.52-.61.42-1.19.33.03.66.05.99.08.35,0,33.49-.17,56.92,4.08-.07.25-.07.44.06.53.09.06.19.11.28.17-.82.73-1.8,1.21-2.97,1.3-1.67.13-3.31-.44-4.95-.81-1.88-.43-3.84-.59-5.74-.3-1.91.29-3.76,1.05-5.21,2.32-.34.3-.68.68-.64,1.13.03.42.61.72.89.47-1.09,1.26-2.17,2.7-3.02,4.21-.65,1.16-1.52,2.6-2.46,3.76-.9.44-1.95.58-2.93.37-.2-.04-.42-.1-.61-.02-.22.09-.34.33-.43.56-.15.37-.28.75-.39,1.13-.39-.04-.73-.08-.97-.02-.56.13-2.57,3.86-3.84,5.72-.29.43-.76.9-1.16,1.23-.4.33-.84.2-1.33.36-.35.12-.66,2.34-.45,2.53.76.68,4.8-3.97,6.58-6.56-.43,1.71-1.44,3.51-2.94,4.35-.74.42-.69,2.44-.29,2.43,1.7-.02,4.3-5.02,5.22-7.7,2.69-.35,4.88-.53,7.37-1.5,2.49-.97,5.33-2.59,6.8-4.82,1.03-.8,2.62-.73,3.39-.83.93-.12,3.14,0,4.42.33,3.02.8,6.17,1.29,9.17.38,2.83.53,5.69,1,8.76,1.25,1.91.59,3.69,1.75,5.31,2.5.34,1.34-.65,1.17-.81,1.84-.17.71.62,2.31.89,2.4.4.14,2.05-1.87,1.42-3.72,1.01.5,1.9,1,1.72,1.73-.1.4.66.58,1.26.8.38.14.89.35,1.27.19.17-.61-.18-1.32-.6-1.81-1.13-1.32-2.57-2.28-4.14-3.01-.09-2.11-.68-4.03-1.48-5.94-.25-.59-.44-1.33-1.01-1.62-.45-.22-4.32-.14-5.78-.12.22-.49.39-.99.52-1.49.12.01.24.03.36.04,1.04.1.96-2.85.07-3.02-.06-.01-.12-.03-.18-.04-.06-.75-.19-1.49-.4-2.23-.57-2.01-.92-3.33-2.1-6.23-.4-.98-1.54-3.37-1.54-3.37,0,0,.59-.08,1.37-.46.78-.38,1.73-1.05,2.86-1.15.37-.03.57-.43.69-.78.11-.35.23-1.11-.01-1.39-.22-.25-3.16-.61-4.23-.67-1.28-.08-2.51-.13-3.5-.09.61-.72.99-1.64,1.1-2.68.01-.13-.02-.32-.17-.4-.16-.08-.24.06-.27.19-.14.62-.31,1.23-.63,1.73-.23.35-.56.64-.97.8-1.72-1.88-1.88-2.65-2.06-5.48-.03-.47.09-1.27-.25-1.14-.2.08-.24.33-.25.54-.15,2.03.09,4.05,1.06,5.83-1.8-.39-2.28-.84-2.67-1.09-.17-.11-.27-.24-.27-.24,0,0-.05-.05-.12-.18h0c-.15-.25-.41-.77-.64-1.69-.26-1.07.12-1.69-.13-1.78-.2-.08-.29.32-.33.64-.08.62-.01,1.16.11,1.68.07.3.16.58.25.88-.39-.28-.74-.61-1.07-.98-1.15-1.31-1.89-3.1-2.08-4.79-.24-2.16.1-4.34.38-6.5.02-.16.09-.56.01-.74-.14-.29-.53.43-.69.98-.75,2.54-.79,4.22-.48,7.17-.76-.83-1.62-1.44-2.24-3.67-.44-1.55.01-2.62-.25-2.68-.42-.1-.73,1.91-.22,3.46.37,1.12.8,1.91,1.83,2.97.82.84,1.54,2.04,1.8,3.19-.71-.07-1.58-.44-2.16-.92-.82-.66-1.04-1.04-1.35-1.25-.09-.06-.16-.05-.2-.02-.29.25.79,1.48,1.41,1.96,1.43,1.1,2.91.92,3.35,1.31.96.85,1.8,1.46,2.64,1.92.37.37.76.71,1.2,1.01-2.14.37-3.22.13-3.22.13,0,0-.6-.25-1.51-1.32-.71-.84-.66-1.56-.92-1.53-.21.02-.11.41,0,.72.32.92.89,1.52,1.47,2.12-2.15-.35-4.22-1.91-5.41-3.74-1.19-1.82-1.86-3.92-2.58-5.98-.05-.15-.17-.54-.32-.66-.25-.2-.27.62-.17,1.19.47,2.61,1.19,4.12,2.79,6.62-1.06-.4-2.09-.56-3.65-2.27-1.09-1.19-1.17-2.34-1.43-2.28-.42.1.21,2.03,1.36,3.19.83.83,1.58,1.35,2.97,1.83,1.11.38,2.3,1.13,3.04,2.04-.66.26-1.61.31-2.34.15-1.03-.22-1.39-.46-1.77-.51-.1-.01-.16.03-.19.08-.15.36,1.37.97,2.15,1.12,1.77.34,3.02-.49,3.58-.34,2.7.71,4.34.7,6.61,0,.37-.11.74-.24,1.12-.22.31.02.63.16.8.41-.07.07-.13.14-.19.21-.99-.15-2,.04-2.85.53-.17.09-.35.25-.3.44.15.58,1.18.99,2.36,1.38,1.31,1.56,1.58,2.15,1.7,3,.2,1.38.07,3.8-.4,5.56-.16.61-.38,1.21-.64,1.78-.1-.04-.18-.06-.2-.06-.49-.12-1.22.59-1.66,1.29-23.52-4.31-56.91-4.14-57.22-4.13-.43-.05-.83-.07-1.25-.1-.23-.55-.6-1-.96-.96-.05,0-.1,0-.15.01-.11-.33-.24-.66-.4-.98-.88-1.81-2.21-4.38-3.71-6.23-.02-.02-.04-.05-.06-.07-.01-.02-.03-.03-.04-.05-.02-.02-.04-.04-.05-.06-.46-.55-1.18-1.54-1.18-1.54,0,0,.57-.18,1.28-.68.7-.5,1.54-1.32,2.62-1.61.36-.1.49-.51.55-.88.05-.37.05-1.13-.25-1.36-.26-.21-3.22-.07-4.28.04-1.27.14-2.5.29-3.47.49.48-.81.7-1.78.64-2.82,0-.13-.07-.32-.24-.36-.17-.05-.22.1-.23.23-.04.63-.1,1.26-.34,1.81-.17.39-.44.73-.82.95-2.01-1.56-2.3-2.29-2.94-5.06-.11-.46-.13-1.27-.44-1.08-.18.11-.18.37-.16.58.19,2.02.76,3.98,2.02,5.57-1.84-.08-2.39-.45-2.81-.62-.18-.08-.31-.2-.31-.2,0,0-.06-.04-.15-.15h0c-.19-.22-.54-.69-.91-1.56-.43-1.01-.17-1.68-.42-1.73-.21-.04-.23.36-.22.69.03.62.18,1.15.39,1.64.12.28.25.55.39.82-.43-.21-.84-.48-1.22-.79-1.36-1.1-2.38-2.74-2.85-4.37-.6-2.09-.63-4.3-.71-6.47,0-.16,0-.57-.11-.73-.18-.26-.45.52-.51,1.08-.31,2.63-.07,4.29.72,7.15-.89-.69-1.83-1.15-2.83-3.24-.69-1.46-.43-2.59-.69-2.6-.43-.03-.4,2,.36,3.45.55,1.04,1.11,1.75,2.3,2.62.95.69,1.86,1.76,2.31,2.85-.71.05-1.63-.17-2.29-.54-.92-.51-1.2-.85-1.54-1-.1-.04-.17-.02-.2.02-.25.3,1.02,1.33,1.72,1.7,1.6.85,3.02.42,3.53.73,1.09.68,2.02,1.14,2.92,1.45.42.3.87.57,1.35.8-2.05.72-3.16.67-3.16.67,0,0-.63-.14-1.71-1.05-.84-.71-.91-1.43-1.16-1.36-.2.05-.04.43.12.72.47.85,1.13,1.34,1.8,1.85-2.18.01-4.48-1.18-5.96-2.78-1.48-1.6-2.49-3.55-3.54-5.46-.08-.14-.26-.51-.43-.6-.28-.15-.17.66.03,1.2.9,2.49,1.86,3.87,3.85,6.06-1.11-.22-2.15-.2-3.98-1.63-1.27-.99-1.54-2.12-1.79-2.01-.4.17.54,1.97,1.87,2.91.96.68,1.78,1.07,3.23,1.31,1.16.19,2.45.73,3.34,1.51-.61.36-1.53.58-2.29.54-1.05-.05-1.45-.22-1.83-.2-.1,0-.16.05-.17.11-.09.38,1.51.73,2.3.74,1.81.04,2.89-.98,3.48-.93,2.78.25,4.39-.04,6.52-1.1.34-.17.69-.36,1.07-.41.31-.03.65.05.86.27-.06.08-.1.16-.15.24-1.01.02-1.97.38-2.72,1-.15.12-.3.31-.22.48.25.54,1.33.78,2.56.96,1.23,1.05,3.26,2.93,2.87,7.3-.06.62-.2,1.23-.4,1.82-.53-.02-.86-.04-.9-.04-.31.01-.63.36-.88.81-13.73.88-24.97,5.39-35.9,9.8-9.61,3.88-18.82,7.57-29.17,8.59-.13-.68-.33-1.35-.59-2-.85-2.16-2.31-4.38-2.69-6.67-.07-.44-.16-.92,0-1.34.33-.87,2.06-.81,2.86-.98.37-.08.61-.36.76-.71.15-.34.35-1.08.13-1.38-.2-.27-2.9-.87-3.96-.98.32-.48.57-.97.63-1.48.06-.51,0-1.02-.26-1.15-.54-.28-2.17.79-2.52,1.88-.14-.04-.26-.07-.39-.1-.1-.33.06-.71.32-.96.28-.27.65-.41,1-.56,2.18-.95,3.44-2,5.03-4.3.34-.48,1.82-.66,2.94-2.07.49-.62,1.25-2.07.91-2.24-.05-.03-.12-.01-.19.06-.26.28-.38.7-1.02,1.53-.46.6-1.21,1.17-1.88,1.41-.02-1.18.39-2.52.99-3.53.75-1.27.98-2.14,1.07-3.32.13-1.63-.65-3.5-1.04-3.31-.24.12.45,1.05.4,2.66-.08,2.32-.76,3.11-1.3,4.1-.41-2.93-.84-4.55-2.18-6.84-.29-.5-.84-1.11-.9-.79-.04.19.13.57.19.71.79,2.03,1.64,4.06,1.92,6.22.28,2.16-.28,4.69-1.69,6.35.05-.84.09-1.65-.26-2.57-.12-.31-.3-.67-.47-.55-.21.15.3.66.3,1.76,0,1.41-.29,1.99-.29,1.99,0,0-.67.88-2.54,1.99.52-1.96.27-3.98-.36-5.91-.06-.2-.16-.44-.37-.47-.36-.05-.06.7.03,1.16.55,3.06.54,3.71-1.08,6.5-.53-.34-.76-1.12-.52-1.71.2-.51.6-.79.33-.95-.15-.09-.34.06-.47.19-.83.84-.94,2.22-.27,3.18.07.1.14.17.23.22-.08.01-.16.03-.25.05-.21.05-.44.12-.67.22.03-.08.04-.16.04-.26,0-1.18-.87-2.25-2.03-2.47-.18-.03-.42-.05-.49.11-.13.29.35.29.81.59.52.35.78,1.12.54,1.7-2.91-1.38-3.29-1.9-4.57-4.74-.2-.43-.37-1.22-.64-.97-.15.14-.1.4-.04.6.58,1.95,1.52,3.75,3.06,5.07-2.17.14-3.22-.2-3.22-.2,0,0-.57-.31-1.37-1.47-.62-.91-.49-1.62-.75-1.62-.21,0-.16.4-.08.72.23.95.73,1.6,1.24,2.26-2.1-.57-4-2.34-5-4.27-1-1.94-1.45-4.09-1.95-6.21-.04-.15-.11-.56-.25-.69-.23-.22-.34.59-.29,1.16.2,2.64.76,4.22,2.09,6.87-1.01-.5-2.02-.77-3.4-2.64-.96-1.3-.92-2.45-1.18-2.42-.43.06,0,2.04,1.02,3.31.74.92,1.43,1.51,2.76,2.13,1.07.5,2.17,1.36,2.82,2.35-.69.19-1.63.14-2.35-.09-1-.33-1.34-.6-1.71-.69-.1-.02-.17,0-.19.06-.19.34,1.26,1.11,2.02,1.33,1.73.52,3.05-.17,3.6.04,2.61.99,4.24,1.14,6.58.68.38-.07.76-.16,1.14-.1.31.05.61.23.75.49-.08.06-.14.13-.21.19-.97-.25-2-.16-2.89.23-.17.08-.37.22-.34.4.09.59,1.07,1.1,2.21,1.61,1.67,2.45,2.01,5.3,1.54,8.19-.13.79-.35,1.57-.65,2.31-.14-.03-.24-.04-.25-.05-.43-.04-.95.55-1.3,1.2-26.95-1.39-54,9.33-59.87,11.82-.17-.33-.39-.63-.69-.84-.55-.38-1.27-.41-1.92-.25-.64.17-1.22.51-1.79.85-.13-.25-.34-.48-.59-.57s-.53-.07-.79.02c-.25.09-.48.23-.71.37-.19-1.33-1.04-2.48-2.2-2.98-.12-.68-.58-1.35-1.23-1.63.52-.05.98-.41,1.09-.86.11-.46-.1-.96-.48-1.24-.38-.28-.9-.33-1.34-.19-.14-.38-.29-.77-.43-1.15.22-.07.37-.26.41-.46.04-.2,0-.41-.06-.61-.1-.39-.22-.76-.36-1.14-.1-.28-.22-.56-.45-.75-.22-.17-.51-.24-.79-.23-.28.01-.55.09-.82.16-1.17-2.06-3.49-3.33-5.82-3.25-2.32.08-4.55,1.52-5.58,3.59-.06-.34-.29-.62-.58-.72-.3-.1-.65-.01-.86.22-.36-.4-1.05-.44-1.46-.1-.41.34-.49,1.02-.17,1.45-.41.22-.58.76-.45,1.2.13.44.53.78.98.9.45.12.93.04,1.35-.15.16-.07.32-.16.43-.3.11-.14.17-.33.12-.5.29.04.6-.11.76-.36.15-.25.15-.59-.02-.84.31-.35.81-.4,1.22-.24.41.16.73.5.93.89.2.39.28.84.3,1.27-.41.23-.96.5-1.13,1.03-.13.4.01.83.15,1.22.11.32.22.63.33.94.05.15.11.3.21.43.1.12.26.21.42.19-.08.36-.04.7.11.98-.25-.3-.7-.4-1.06-.25-.26.11-.45.33-.61.56-.54.73-1.21,1.68-.95,2.29.11.25.36.53.59.68-.52.9-.99,1.76-1.42,2.7-4.15-3-11.64-5.22-17.71-5.16-1.35-.06-4.15.63-3.41,2.39,11.51,3.87,6.12,21.38,16.5,26.45,0,0,1.32-.17,3.39-.44,1.64,1.84-.23,4.87-2.56,5.75-2.83,1.07-5.26.84-7.23-1.06-.83-.8-1.3-2.35-.23-2.21,2.32.13,1.2-3.12-1.32-2.01-3.42,1.5-1.34,5.97,1.37,7.85-16.5,3.35-32.85,8.06-49.66,8.8-5.13.23-10.23.08-15.31-.35l.07-4.93c3.89-.13,6.98-2.05,6.98-10.39s-3.32-19.17-7.41-19.17-7.41,10.52-7.41,19.17,3.04,10.23,6.89,10.39l-.07,4.85c-22.66-2.06-44.85-9.62-67.19-14.87l.09-6.56c4.88-.16,8.76-2.58,8.76-13.04s-4.16-24.06-9.3-24.06-9.3,13.21-9.3,24.06,3.82,12.85,8.65,13.04l-.08,6.29c-.12-.03-.24-.06-.36-.08C46.18,106.2,23.87,104.32,0,120.64v39.36h720v-50.01c-44.27-9.86-80.34,19.06-125.51,23.15Zm-273.18-52.28c.96,1.07,1.75,2.29,2.33,3.62-1.75-.81-3.5-1.62-5.37-2.38.95-.5,1.94-.92,3.05-1.24Zm145.62-12.3c.85,1.16,1.51,2.45,1.96,3.83-1.66-.98-3.33-1.95-5.11-2.9.99-.41,2.02-.72,3.15-.93Zm-233.3,40.72c1.1,2.8-2.58,5.57-7.16,4.18-2.02-.61-2.87-2.06-3.18-2.81,3.19-.42,6.94-.91,10.35-1.37Z"/>
</svg>