<svg viewBox="0 0 720 150" xmlns="http://www.w3.org/2000/svg" preserveAspectRatio="xMidYMax slice">
<path class="elementor-shape-fill" d="M414.18 141.2C411.86 140.6 409.59 139.96 407.37 139.28L410.93 138.01L406.52 131.91C406.52 131.91 412.76 132.31 412.75 129.86C412.74 127.41 406.05 131.02 406.05 131.02C406.05 131.02 410.85 124.92 408.23 123.31C405.62 121.69 405.23 130.38 405.23 130.38L401.19 124.54L397.68 129.98C397.13 127.48 391.64 125.45 389.73 126.76C389.73 126.76 401.95 122.55 397.62 119.29C393.29 116.03 388.8 122.7 388.8 122.7C388.8 122.7 395.89 113.33 388.94 112.61C381.99 111.9 385.17 124.1 385.17 124.1C385.17 124.1 380.19 112.27 377.32 113.92C374.46 115.57 377.33 120.76 377.33 120.76C377.33 120.76 372.58 112.19 370.31 114.81C368.78 116.57 369.49 118.5 370.11 119.56C369.27 118.79 368.47 118 367.68 117.2C367.68 117.2 370.05 103.34 370.43 103.89C370.8 104.44 371.63 104.46 371.63 104.46C374.18 104.51 372.48 100.67 372.48 100.67C372.48 100.67 373.73 103.22 376.12 103.12C378.52 103.02 376.42 99.28 376.42 99.28C376.42 99.28 379.17 101.73 381.41 101.48C383.65 101.23 381.86 98.29 381.86 98.29C381.86 98.29 385.5 100.79 387.15 100.44C388.8 100.09 386.3 96.9 386.3 96.9C386.3 96.9 387.75 98.65 390.19 98.45C392.63 98.25 389.49 95.36 389.49 95.36C389.49 95.36 391.64 96.36 394.68 95.81C397.72 95.26 394.93 92.77 394.93 92.77C397.78 93.67 399.52 92.47 400.17 91.67C400.82 90.87 396.73 88.43 396.73 88.43C397.28 88.48 401.22 85.83 397.93 85.49C394.64 85.14 389.34 81.25 389.34 81.25C393.23 81 394.73 79.15 389.54 77.66C384.35 76.16 379.86 68.88 382.5 69.62C385.15 70.37 386.54 70.32 387.14 69.12C387.74 67.92 383.55 66.82 386.44 67.07C389.34 67.32 392.18 66.37 391.58 65.42C390.98 64.47 389.38 63.67 389.38 63.67C391.33 63.42 394.07 61.27 391.28 61.2C388.48 61.13 384.44 59.63 384.44 59.63C385.74 59.68 390.73 57.88 386.64 56.98C382.55 56.08 377.86 51.04 377.86 51.04C377.86 51.04 378.66 51.49 379.56 50.79C380.46 50.09 378.91 48.19 378.91 48.19C383.8 49.49 385.95 46.29 383.85 46.59C381.75 46.89 379.16 44.04 379.16 44.04C382.45 43.44 381.11 41.19 381.11 41.19C368.73 39.04 368.38 30.71 368.38 30.71C375.72 32.06 375.17 29.06 375.17 29.06C367.08 27.06 360.45 14.34 360.45 14.34L363.84 16.09L362.99 12.05L366.03 8.81L361.89 8.58L359.94 4.07L357.99 8.58L353.85 8.81L356.89 12.05L356.04 16.09L359.43 14.34C359.43 14.34 352.79 27.07 344.71 29.06C344.71 29.06 344.16 32.05 351.5 30.71C351.5 30.71 351.15 39.05 338.77 41.19C338.77 41.19 337.42 43.44 340.72 44.04C340.72 44.04 338.12 46.89 336.03 46.59C333.93 46.29 336.08 49.49 340.97 48.19C340.97 48.19 339.42 50.09 340.32 50.79C341.22 51.49 342.02 51.04 342.02 51.04C342.02 51.04 337.33 56.08 333.24 56.98C329.15 57.88 334.14 59.68 335.44 59.63C335.44 59.63 331.4 61.13 328.6 61.2C325.8 61.27 328.55 63.42 330.5 63.67C330.5 63.67 328.9 64.47 328.3 65.42C327.7 66.37 330.55 67.32 333.44 67.07C336.34 66.82 332.14 67.92 332.74 69.12C333.34 70.32 334.74 70.37 337.38 69.62C340.03 68.87 335.53 76.16 330.34 77.66C325.15 79.16 326.65 81 330.54 81.25C330.54 81.25 325.25 85.14 321.95 85.49C318.66 85.84 322.6 88.48 323.15 88.43C323.15 88.43 319.06 90.88 319.71 91.67C320.36 92.47 322.11 93.67 324.95 92.77C324.95 92.77 322.15 95.27 325.2 95.81C328.24 96.36 330.39 95.36 330.39 95.36C330.39 95.36 327.25 98.26 329.69 98.45C332.13 98.64 333.58 96.9 333.58 96.9C333.58 96.9 331.08 100.09 332.73 100.44C334.38 100.79 338.02 98.29 338.02 98.29C338.02 98.29 336.22 101.23 338.47 101.48C340.72 101.73 343.46 99.28 343.46 99.28C343.46 99.28 341.36 103.02 343.76 103.12C346.16 103.22 347.4 100.67 347.4 100.67C347.4 100.67 345.7 104.51 348.25 104.46C348.25 104.46 349.07 104.44 349.45 103.89C349.82 103.34 352.2 117.2 352.2 117.2C350.23 119.22 348.1 121.13 345.81 122.93L349.39 117.79L343.89 111.02L339.59 117.2C339.59 117.2 337.9 111.18 335.6 112C333.3 112.82 338.91 117.94 338.91 117.94C338.91 117.94 331.57 115.42 330.91 118.43C330.25 121.43 338.58 118.92 338.58 118.92L334.4 124.67L341.17 126.3C338.11 128.34 334.82 130.22 331.33 131.95L334.17 120.91L322.27 121.25C322.27 121.25 328.34 113.44 325.13 111.28C321.92 109.12 320.69 121.07 320.69 121.07C320.69 121.07 316.98 109.38 312.55 111.36C308.12 113.34 319.13 121.57 319.13 121.57L307.9 121.67L313.44 134.77L326 134.41C320.64 136.71 314.87 138.7 308.75 140.4L309.25 138.93L313.79 137.66L310.02 134.83L310.21 130.12L306.35 132.83L301.93 131.19L303.32 135.7L300.39 139.4L305.1 139.47L306.18 141.1C302.94 141.95 299.61 142.72 296.2 143.42L299.12 136.96L291.67 135.88C291.67 135.88 296.3 131.67 294.54 129.98C292.78 128.29 290.71 135.6 290.71 135.6C290.71 135.6 289.67 127.91 286.69 128.66C283.71 129.41 289.68 135.73 289.68 135.73L282.67 134.57L284.7 143.33L291.52 144.32C183.83 164.01 0 117 0 117V0H720V117C720 117 544.41 161.89 435.85 145.55L441.2 143.46L440.4 134.77L433.39 137.51C433.39 137.51 435.34 131.56 432.97 130.96C430.6 130.36 432.41 137.74 432.41 137.74C432.41 137.74 427.71 131.57 425.49 133.69C423.27 135.82 431.59 138.37 431.59 138.37L424.92 140.82L428.08 144.25C426.08 143.88 424.11 143.49 422.17 143.08L421.47 138.54L424.9 135.31L420.25 134.55L418.24 130.29L416.08 134.48L411.4 135.08L414.72 138.43L414.19 141.21" />
</svg>
