<svg xmlns="http://www.w3.org/2000/svg" viewBox="0 0 720 160" preserveAspectRatio="xMidYMax slice">
  <path class="elementor-shape-fill"  d="m223.27,110.64c.32.75,1.17,2.2,3.19,2.81,4.58,1.39,8.26-1.37,7.16-4.18-3.41.46-7.15.95-10.35,1.37Z"/>
  <path class="elementor-shape-fill"  d="m321.3,80.86c-1.1.32-2.1.73-3.05,1.23,1.87.77,3.63,1.58,5.38,2.39-.58-1.34-1.37-2.55-2.33-3.62Z"/>
  <path class="elementor-shape-fill"  d="m0,0v120.64c23.87-16.32,46.18-14.43,74.36-7.96.12.03.24.06.36.08l.09-6.29c-4.83-.18-8.65-2.64-8.65-13.04s4.16-24.05,9.29-24.05,9.3,13.21,9.3,24.05-3.87,12.89-8.76,13.05l-.09,6.56c22.34,5.24,44.55,12.81,67.2,14.86l.06-4.84c-3.85-.15-6.89-2.12-6.89-10.4s3.32-19.16,7.41-19.16,7.4,10.52,7.4,19.16-3.09,10.28-6.98,10.4l-.06,4.92c5.08.43,10.17.58,15.3.35,16.8-.74,33.15-5.46,49.65-8.81-2.71-1.89-4.78-6.34-1.36-7.84,2.52-1.11,3.64,2.14,1.32,2.01-1.07-.14-.6,1.4.24,2.21,1.96,1.89,4.4,2.12,7.23,1.05,2.33-.88,4.2-3.91,2.56-5.75-2.07.27-3.38.44-3.38.44-10.39-5.06-4.99-22.57-16.51-26.45-.74-1.76,2.06-2.45,3.41-2.39,6.07-.07,13.56,2.15,17.71,5.16.43-.94.9-1.8,1.42-2.7-.23-.15-.48-.42-.59-.68-.26-.61.41-1.56.95-2.29.17-.22.36-.44.61-.55.36-.16.81-.05,1.06.25-.16-.28-.19-.63-.11-.99-.16.03-.32-.06-.42-.19-.1-.12-.15-.27-.21-.42-.11-.32-.22-.63-.33-.95-.14-.39-.28-.82-.15-1.22.17-.52.73-.8,1.13-1.02-.03-.44-.11-.88-.3-1.28-.2-.39-.52-.73-.93-.89-.41-.16-.91-.11-1.22.24.16.25.17.59.01.84-.15.25-.46.4-.76.36.06.17,0,.36-.11.5-.12.13-.28.23-.44.3-.42.19-.9.26-1.35.15-.45-.12-.85-.46-.98-.9-.13-.44.05-.98.45-1.2-.32-.43-.24-1.11.17-1.46.42-.34,1.1-.3,1.46.1.21-.23.57-.32.86-.22.3.1.52.39.58.72,1.04-2.07,3.27-3.5,5.59-3.59,2.32-.08,4.64,1.18,5.81,3.25.27-.08.54-.15.82-.17.28-.01.57.06.78.23.23.18.35.47.46.75.13.37.25.75.35,1.14.06.19.1.4.06.6s-.19.39-.41.46c.14.38.29.77.43,1.15.45-.14.97-.09,1.34.19.38.28.6.78.49,1.24-.12.45-.57.81-1.09.86.64.28,1.11.95,1.23,1.63,1.16.5,2.01,1.66,2.19,2.99.23-.15.46-.29.71-.38.26-.09.54-.11.79-.02.25.09.46.32.59.57.57-.34,1.15-.68,1.8-.85.64-.16,1.36-.13,1.91.25.3.21.52.51.7.85,5.86-2.49,32.91-13.21,59.86-11.82.36-.65.88-1.23,1.31-1.2.02.01.11.02.25.05.3-.74.52-1.52.65-2.31.47-2.89.13-5.73-1.54-8.19-1.14-.51-2.12-1.02-2.21-1.61-.03-.19.17-.33.34-.41.9-.39,1.92-.48,2.89-.23.06-.06.13-.13.21-.19-.14-.27-.45-.44-.76-.49-.38-.07-.76.02-1.14.1-2.33.46-3.96.3-6.57-.68-.56-.21-1.88.48-3.61-.04-.75-.23-2.2-.99-2.01-1.33.02-.05.09-.08.19-.06.37.08.71.36,1.71.69.71.23,1.66.27,2.34.09-.64-.99-1.74-1.85-2.81-2.35-1.34-.62-2.02-1.21-2.76-2.13-1.03-1.27-1.45-3.25-1.03-3.31.27-.03.23,1.13,1.19,2.42,1.38,1.87,2.39,2.13,3.4,2.64-1.33-2.65-1.89-4.23-2.09-6.87-.05-.57.06-1.39.29-1.17.14.14.21.54.25.7.5,2.11.96,4.27,1.95,6.21,1,1.93,2.9,3.7,5,4.27-.51-.66-1.01-1.31-1.24-2.26-.08-.32-.13-.72.08-.72.26,0,.13.71.75,1.62.8,1.16,1.37,1.47,1.37,1.47,0,0,1.05.34,3.22.2-1.54-1.32-2.48-3.13-3.06-5.07-.06-.21-.11-.46.04-.6.27-.25.45.54.64.97,1.28,2.84,1.67,3.36,4.57,4.74.24-.58,0-1.36-.53-1.7-.46-.31-.94-.31-.81-.6.08-.16.32-.14.49-.11,1.16.22,2.04,1.29,2.03,2.47,0,.09-.01.18-.04.26.23-.1.46-.18.67-.22.09-.02.18-.04.26-.05-.09-.06-.16-.13-.23-.22-.67-.97-.56-2.35.27-3.19.13-.13.32-.28.47-.19.27.17-.12.44-.33.95-.23.58,0,1.36.53,1.71,1.61-2.79,1.63-3.43,1.07-6.5-.08-.47-.38-1.22-.02-1.16.2.03.31.27.37.47.63,1.93.88,3.95.36,5.91,1.87-1.11,2.54-1.99,2.54-1.99,0,0,.3-.58.29-1.99,0-1.1-.51-1.61-.3-1.76.17-.12.36.24.47.55.36.91.31,1.72.27,2.56,1.4-1.66,1.96-4.2,1.69-6.35-.28-2.16-1.13-4.2-1.92-6.22-.06-.15-.23-.53-.19-.72.07-.31.62.3.9.79,1.34,2.3,1.77,3.91,2.18,6.85.54-.99,1.23-1.78,1.3-4.1.06-1.61-.63-2.54-.39-2.67.38-.19,1.16,1.68,1.03,3.31-.09,1.17-.32,2.05-1.06,3.32-.6,1.01-1.01,2.35-.99,3.53.67-.24,1.43-.81,1.88-1.41.64-.83.76-1.25,1.02-1.53.07-.08.14-.09.19-.06.35.17-.41,1.62-.9,2.24-1.13,1.41-2.61,1.59-2.95,2.07-1.59,2.3-2.85,3.35-5.03,4.3-.35.15-.72.29-1,.56-.25.25-.41.63-.31.96.13.03.25.06.39.1.34-1.09,1.98-2.16,2.52-1.88.26.13.32.64.26,1.15-.07.51-.32,1-.64,1.49,1.06.11,3.76.7,3.96.97.22.31.02,1.04-.13,1.38-.15.35-.4.63-.76.71-.8.17-2.53.11-2.86.98-.16.43-.07.9,0,1.35.37,2.28,1.83,4.51,2.69,6.67.25.65.45,1.32.58,2,10.35-1.02,19.57-4.72,29.18-8.59,10.93-4.41,22.16-8.93,35.9-9.81.25-.45.56-.8.87-.81.04,0,.37.02.9.04.2-.59.35-1.2.41-1.82.39-4.37-1.64-6.26-2.87-7.3-1.24-.19-2.32-.42-2.57-.96-.07-.18.08-.37.23-.49.75-.61,1.71-.98,2.72-.99.04-.08.09-.16.15-.24-.21-.22-.55-.31-.86-.28-.39.05-.73.24-1.08.41-2.12,1.06-3.73,1.35-6.52,1.1-.58-.05-1.67.97-3.47.93-.8-.02-2.39-.36-2.31-.74.02-.06.07-.1.17-.11.38-.02.78.16,1.83.2.75.04,1.68-.17,2.29-.54-.89-.77-2.18-1.31-3.34-1.5-1.45-.25-2.28-.63-3.23-1.31-1.33-.95-2.27-2.75-1.87-2.92.24-.1.51,1.02,1.78,2.01,1.83,1.43,2.88,1.42,3.99,1.63-1.99-2.19-2.96-3.57-3.86-6.06-.19-.54-.31-1.35-.03-1.2.17.09.35.47.43.6,1.05,1.91,2.07,3.87,3.54,5.46,1.48,1.6,3.79,2.8,5.96,2.78-.67-.5-1.32-.99-1.8-1.84-.16-.29-.32-.66-.12-.72.26-.07.32.65,1.16,1.36,1.08.91,1.72,1.05,1.72,1.05,0,0,1.1.05,3.15-.67-.48-.22-.93-.49-1.35-.8-.91-.3-1.83-.77-2.93-1.45-.5-.31-1.93.12-3.52-.73-.7-.37-1.97-1.4-1.72-1.7.03-.04.1-.06.2-.02.34.16.62.49,1.54,1.01.65.37,1.57.59,2.29.54-.45-1.09-1.36-2.15-2.31-2.85-1.19-.87-1.75-1.58-2.3-2.62-.76-1.44-.79-3.47-.36-3.44.26.01,0,1.14.69,2.6.99,2.1,1.93,2.55,2.83,3.24-.8-2.85-1.04-4.51-.72-7.14.06-.57.32-1.35.51-1.09.11.16.1.57.11.73.08,2.17.11,4.38.71,6.47.47,1.63,1.5,3.27,2.86,4.37.38.31.79.58,1.22.79-.14-.27-.28-.54-.39-.82-.21-.49-.37-1.01-.39-1.64-.02-.33.01-.73.22-.69.25.05-.01.73.42,1.74.37.86.72,1.33.91,1.55.09.11.15.16.15.16,0,0,.12.11.3.19.43.18.98.54,2.82.63-1.26-1.6-1.83-3.55-2.02-5.58-.02-.2-.02-.46.16-.57.31-.19.33.62.43,1.08.65,2.77.93,3.5,2.95,5.06.38-.22.65-.57.82-.95.24-.55.3-1.18.34-1.81.01-.13.06-.28.23-.23.17.05.23.23.24.36.06,1.04-.16,2.01-.64,2.82.97-.19,2.19-.35,3.46-.49,1.07-.11,4.02-.25,4.29-.04.29.23.29.99.24,1.36s-.18.79-.54.88c-1.09.29-1.93,1.11-2.63,1.61s-1.27.68-1.27.68c0,0,.72.99,1.18,1.54.01.02.03.04.05.06.01.02.03.04.04.05.02.03.04.05.06.07,1.5,1.85,2.83,4.43,3.71,6.24.16.32.29.65.4.98.05,0,.1,0,.15,0,.37-.03.73.41.96.96.43.04.83.06,1.26.11.31-.01,33.7-.18,57.22,4.13.44-.7,1.17-1.4,1.66-1.29.02,0,.09.03.2.06.26-.57.48-1.17.64-1.78.47-1.75.6-4.18.4-5.55-.12-.86-.39-1.45-1.7-3-1.19-.39-2.21-.8-2.36-1.38-.05-.19.13-.34.3-.44.84-.48,1.85-.68,2.84-.53.06-.07.12-.14.19-.21-.17-.25-.49-.39-.8-.41-.38-.02-.76.11-1.13.22-2.27.69-3.91.71-6.61,0-.57-.15-1.81.67-3.58.33-.78-.15-2.3-.76-2.15-1.12.02-.05.08-.09.19-.07.37.04.74.28,1.77.5.73.16,1.68.11,2.34-.15-.75-.91-1.93-1.66-3.04-2.04-1.39-.49-2.14-1-2.97-1.84-1.15-1.15-1.78-3.08-1.36-3.18.26-.07.34,1.09,1.43,2.28,1.57,1.71,2.6,1.87,3.66,2.27-1.6-2.49-2.32-4.01-2.79-6.62-.1-.56-.08-1.38.17-1.18.15.12.27.51.32.66.72,2.05,1.39,4.15,2.58,5.98,1.19,1.82,3.26,3.38,5.41,3.73-.58-.6-1.14-1.2-1.47-2.12-.11-.31-.2-.7.01-.72.26-.03.21.69.91,1.53.92,1.08,1.52,1.32,1.52,1.32,0,0,1.08.24,3.22-.13-.44-.3-.84-.64-1.2-1.01-.85-.46-1.68-1.07-2.64-1.92-.44-.39-1.92-.21-3.36-1.31-.62-.49-1.7-1.72-1.41-1.97.04-.03.11-.04.2.02.32.21.54.58,1.36,1.25.58.47,1.45.84,2.16.91-.26-1.15-.98-2.35-1.8-3.19-1.03-1.06-1.46-1.85-1.83-2.97-.51-1.55-.2-3.55.22-3.46.26.06-.19,1.13.25,2.69.63,2.23,1.48,2.84,2.24,3.67-.3-2.95-.26-4.63.49-7.17.16-.55.55-1.27.68-.98.09.17.01.58-.01.73-.28,2.16-.62,4.34-.38,6.5.19,1.69.93,3.48,2.09,4.79.32.37.68.7,1.07.98-.09-.29-.18-.58-.25-.87-.12-.52-.19-1.06-.11-1.68.04-.33.13-.72.33-.65.24.1-.13.72.13,1.78.22.92.48,1.44.63,1.69.08.12.12.18.12.18,0,0,.11.13.28.24.38.25.87.7,2.67,1.09-.98-1.79-1.21-3.81-1.06-5.83.01-.21.05-.47.25-.55.33-.13.22.67.25,1.14.17,2.84.33,3.61,2.05,5.48.42-.15.75-.44.98-.8.32-.49.49-1.11.63-1.72.03-.13.11-.27.27-.19.15.07.18.26.17.39-.11,1.04-.49,1.96-1.1,2.68.99-.03,2.22.02,3.5.09,1.06.07,4,.43,4.23.68.25.27.12,1.03.01,1.38-.11.36-.31.75-.69.78-1.12.1-2.08.77-2.85,1.15-.78.38-1.37.46-1.37.46,0,0,1.14,2.39,1.53,3.37,1.18,2.9,1.53,4.22,2.1,6.23.21.73.35,1.48.41,2.22.05.02.12.03.18.04.89.17.96,3.12-.07,3.02l-.36-.03c-.12.5-.29.99-.52,1.49,1.46-.03,5.33-.11,5.78.11.58.28.77,1.03,1.01,1.62.81,1.91,1.4,3.83,1.49,5.94,1.57.72,3.01,1.69,4.14,3,.41.48.76,1.19.6,1.81-.38.16-.89-.05-1.27-.19-.6-.22-1.37-.4-1.27-.8.19-.72-.71-1.23-1.71-1.73.62,1.85-1.02,3.86-1.43,3.72-.27-.09-1.06-1.69-.89-2.4.17-.67,1.16-.5.81-1.84-1.62-.75-3.39-1.91-5.3-2.5-3.07-.25-5.93-.72-8.76-1.24-2.99.91-6.14.41-9.17-.39-1.28-.34-3.48-.45-4.41-.33-.77.09-2.36.02-3.39.82-1.47,2.24-4.31,3.86-6.8,4.83s-4.67,1.15-7.37,1.5c-.91,2.68-3.52,7.68-5.22,7.69-.4.01-.45-2.01.3-2.43,1.49-.84,2.5-2.64,2.93-4.35-1.77,2.59-5.81,7.24-6.57,6.56-.21-.19.1-2.41.45-2.53.49-.17.93-.03,1.33-.37.4-.33.86-.8,1.16-1.23,1.27-1.87,3.27-5.59,3.83-5.72.25-.06.58-.02.98.02.11-.38.24-.76.39-1.13.09-.22.21-.47.43-.56.19-.07.41-.02.61.03.98.21,2.03.07,2.93-.37.94-1.16,1.81-2.6,2.47-3.76.85-1.51,1.92-2.95,3.02-4.21-.28.26-.86-.05-.89-.47-.04-.45.3-.83.64-1.13,1.45-1.27,3.3-2.03,5.21-2.32,1.91-.29,3.86-.13,5.74.3,1.64.37,3.28.94,4.95.81,1.17-.09,2.16-.58,2.98-1.3-.09-.06-.19-.11-.28-.17-.13-.09-.13-.29-.06-.53-23.43-4.26-56.56-4.09-56.92-4.09-.33-.03-.66-.05-.99-.08.09.59,0,1.11-.42,1.19-.15.03-.3.05-.45.08,0,.46-.06.93-.14,1.41,1.83-1.39,4.03-2.47,4.49-2.5.41-.03.78,1.28.83,1.48.09.36.2.79.32,1.28.51.24.8.86,1.11,1.35,1.12,1.74,1.9,3.75,2.82,5.65,1.48,3.07.18,5.9-.24,5.83-.28-.05-1.34-1.49-1.29-2.21.04-.69,1.18-.72.67-2-.42-1.05-1.37-2.67-2.27-3.97.16.8.1,1.99-.07,2.72-.65,2.82-1.61,3.3-1.92,3.29-.69-.03-1.38-1.6-1.14-2.18.1-.25.55-.28.95-.62.6-.5.71-1.48.57-2.17-.28-1.42-.7-1.95-.96-2.42-.74.3-1.53.64-2.53,1.06-1.79.75-2.97,1.27-7.32,3.09-2.79,1.42-5.98,1.48-9.1,1.22-1.32-.11-3.51.16-4.4.44-.74.22-2.32.43-3.2,1.4-1.05,2.46-3.57,4.54-5.85,5.93-2.29,1.39-4.4,1.95-7,2.76-.43,2.8-2.13,8.18-3.8,8.49-.4.07-.79-1.91-.14-2.45,1.33-1.09,2.01-3.04,2.14-4.79-1.3,2.85-4.47,8.13-5.34,7.59-.23-.14-.32-2.39.01-2.57.46-.25.92-.19,1.25-.59.33-.39.71-.94.92-1.41.93-2.06,2.25-6.08,2.79-6.3.23-.1.56-.12.96-.15.04-.39.1-.79.19-1.18.05-.24.12-.5.33-.62.17-.11.4-.1.6-.09,1,.04,2.02-.28,2.83-.87.72-1.3,1.33-2.87,1.77-4.13.57-1.63,1.38-3.24,2.24-4.67-.23.3-.85.1-.96-.31-.11-.43.16-.87.44-1.22,1.2-1.51,2.9-2.58,4.73-3.2,1.82-.61,3.78-.79,5.7-.7,1.68.08,3.39.36,5.02-.06,1.08-.28,2.02-.85,2.79-1.61-.07-.02-.16-.04-.23-.06-.29-.1-.25-.72-.04-1.37-13.47.93-24.52,5.38-35.28,9.72-9.5,3.83-18.6,7.5-28.82,8.6.47.83.56,2.49-.22,2.53-.11,0-.23,0-.33.01-.08.5-.2,1-.37,1.5,1.45-.18,5.29-.64,5.77-.46.59.23.86.95,1.16,1.51.99,1.82,1.76,3.68,2.06,5.76,1.64.57,3.16,1.39,4.42,2.59.46.44.88,1.11.77,1.73-.36.2-.89.04-1.28-.06-.62-.16-1.4-.26-1.34-.67.12-.73-.83-1.15-1.88-1.55.8,1.78-.63,3.94-1.05,3.84-.28-.07-1.22-1.58-1.12-2.3.1-.69,1.1-.61.63-1.91-1.69-.58-3.57-1.56-5.53-1.96-3.07.05-5.97-.13-8.84-.38-2.88,1.2-6.07,1.02-9.16.52-1.3-.21-3.51-.1-4.43.1-.75.17-2.34.26-3.29,1.16-1.23,2.37-3.9,4.25-6.29,5.46-2.38,1.22-4.53,1.61-7.18,2.22-.65,2.76-2.75,7.99-4.44,8.18-.4.04-.64-1.96.05-2.45,1.41-.98,2.24-2.88,2.5-4.62-1.51,2.75-5.07,7.77-5.9,7.17-.22-.16-.14-2.41.2-2.56.48-.22.93-.12,1.29-.5.36-.37.78-.88,1.03-1.34,1.08-1.98,2.71-5.89,3.26-6.07.23-.08.57-.07.96-.07.08-.39.17-.78.28-1.16.07-.24.17-.49.38-.6.18-.1.4-.06.61-.04,1,.11,2.03-.12,2.88-.65.82-1.25,1.55-2.77,2.08-3.98.7-1.59,1.63-3.13,2.59-4.49-.25.28-.85.03-.93-.38-.08-.44.22-.86.53-1.19,1.32-1.41,3.09-2.35,4.96-2.83,1.87-.47,3.83-.5,5.74-.26,1.67.21,3.35.62,5.01.32.95-.17,1.74-.61,2.41-1.2-.17-.11-.17-.43-.04-.83-26.74-1.29-53.51,9.34-59.28,11.78.13.41.19.84.08,1.25-.15.58-.63,1.05-1.2,1.24-.57.19-1.21.12-1.86-.08.23.16.24.51.1.74-.13.25-.37.41-.61.55-.37.24-.75.47-1.15.64-.24.1-.49.18-.75.17-.25,0-.52-.1-.73-.28-.61.23-1.23.45-1.77.65.7,1.39,1.18,2.88,1.44,4.41.68-.97,1.29-1.99,1.85-2.99,1.52-2.69,5.1-3.33,7.2-.34.48.68.56,1.62.5,2.32-.14,1.46-1.74,1.37-1.68,1.2.06-.22.6-.4.4-1.12-.15-.55-.95-.66-1.38-.39-3.1,1.91.4,10.39-2.66,13.6,0,.04-2.03.33-5,.73.79,4.36,3.05,3.77,8.23,2.89,4.38-.75,9.03-2.83,10.95-7.1,1.12-2.49,1.42-6.89-2.47-7.1-1.84-.11-2.52,1.45-2.12,2.44.42,1.04,1.45.51,1.63.83.81,1.47-3.37,2.27-4.45-.16-2.03-4.55,4.17-8.45,8.3-5.46,5.43,3.92,2.85,12.05-.76,15.43-2.04,1.91-5.36,4.03-8.32,4.58-1.16.22-3.47.68-6.37,1.25,34.14,1.41,67.12,16.82,101.49,17.81l.04-2.83c-4.33-.17-7.75-2.37-7.75-11.68s3.72-21.53,8.32-21.53,8.32,11.82,8.32,21.53-3.46,11.54-7.83,11.68l-.04,2.85c12.42.26,24.67-1.38,36.87-3.75l.03-2.41c-2.35-.09-4.21-1.3-4.21-6.35s2.03-11.71,4.53-11.71,4.52,6.43,4.52,11.71-1.88,6.28-4.26,6.35l-.03,2.3c24.61-4.81,49-12.47,74.06-13.27,35.74-1.15,70.78,11.7,106.12,15.64l.05-3.8c-4.05-.16-7.25-2.22-7.25-10.92s3.49-20.15,7.79-20.15,7.78,11.06,7.78,20.15-3.24,10.79-7.33,10.92l-.05,3.9c10,1.07,20.01,1.41,30.08.5,45.17-4.09,81.25-33.01,125.52-23.15V0H0Zm38.83,93.5c-1.37,0-2.47-1.11-2.47-2.47s1.1-2.48,2.47-2.48,2.47,1.11,2.47,2.48-1.1,2.47-2.47,2.47Zm61.33-39.8c-2.47,0-4.47-2.01-4.47-4.47s2-4.47,4.47-4.47,4.47,2,4.47,4.47-2,4.47-4.47,4.47Zm64.95,40.37c-1.68,0-3.04-1.36-3.04-3.04s1.36-3.04,3.04-3.04,3.04,1.36,3.04,3.04-1.36,3.04-3.04,3.04Zm371.62,0c-1.68,0-3.04-1.36-3.04-3.04s1.36-3.04,3.04-3.04,3.04,1.36,3.04,3.04-1.36,3.04-3.04,3.04Zm60.74,16.92c-1.68,0-3.04-1.36-3.04-3.04s1.36-3.04,3.04-3.04,3.04,1.36,3.04,3.04-1.36,3.04-3.04,3.04Zm30.38-38.57c-1.68,0-3.05-1.36-3.05-3.04s1.37-3.04,3.05-3.04,3.04,1.36,3.04,3.04-1.37,3.04-3.04,3.04Z"/>
  <path class="elementor-shape-fill"  d="m466.92,68.55c-1.13.21-2.16.53-3.15.93,1.79.95,3.45,1.93,5.11,2.91-.44-1.39-1.11-2.68-1.96-3.84Z"/>
</svg>