<svg viewBox="0 0 721 157" xmlns="http://www.w3.org/2000/svg" preserveAspectRatio="xMidYMax slice">
<path class="elementor-shape-fill" d="M720.01 37.52C720.01 25.01 720.02 12.51 720.03 0H0.22L0 28.78C0 28.78 11.29 31.38 30.33 33.75V87.95L27.04 94.62L17.38 96.02L24.37 102.83L22.72 112.45L31.36 107.91L40 112.45L38.35 102.83L45.34 96.02L35.68 94.62L32.39 87.95V34.01C44.91 35.51 60.54 36.88 78.38 37.37V86.31C76.57 86.82 75.24 88.47 75.24 90.45C75.24 91.66 75.74 92.75 76.54 93.53C71.97 94.82 68.59 98.95 68.45 103.9C63.94 107.28 61.01 112.66 61.01 118.73C61.01 124.8 63.94 130.18 68.46 133.57C68.66 138.51 72.06 142.61 76.65 143.85C75.79 144.64 75.25 145.76 75.25 147.02C75.25 149.4 77.18 151.34 79.57 151.34C81.96 151.34 83.89 149.41 83.89 147.02C83.89 145.76 83.34 144.64 82.49 143.85C87.08 142.6 90.48 138.5 90.68 133.57C95.2 130.19 98.13 124.81 98.13 118.73C98.13 112.65 95.2 107.28 90.69 103.9C90.54 98.95 87.17 94.82 82.6 93.53C83.4 92.75 83.9 91.66 83.9 90.45C83.9 88.48 82.57 86.83 80.76 86.31V37.43C94.4 37.75 109.29 37.55 125.02 36.51V84.29C124.79 84.5 124.55 84.71 124.33 84.93C116.79 92.47 116.79 104.69 124.33 112.23C131.87 119.77 144.09 119.77 151.63 112.23C154.18 109.68 155.87 106.59 156.69 103.32C156.23 103.93 155.73 104.51 155.17 105.06C148.63 111.6 138.03 111.6 131.49 105.06C124.95 98.52 124.95 87.92 131.49 81.38C132.04 80.83 132.62 80.32 133.23 79.86C131.09 80.4 129.03 81.32 127.14 82.61V36.36C144.57 35.13 163 32.87 181.9 29.14V105.97C180.01 106.4 178.59 108.09 178.59 110.11C178.59 110.61 178.69 111.08 178.85 111.53C170.78 113.43 164.76 120.66 164.76 129.32C164.76 137.98 171.24 145.76 179.79 147.31C179.18 148.05 178.8 148.98 178.8 150.01C178.8 152.36 180.71 154.27 183.06 154.27C185.41 154.27 187.32 152.36 187.32 150.01C187.32 148.98 186.94 148.05 186.33 147.31C194.87 145.77 201.36 138.31 201.36 129.32C201.36 120.33 195.15 113.19 186.88 111.43C187.02 111.01 187.11 110.58 187.11 110.11C187.11 108.24 185.9 106.67 184.22 106.1V28.68C196.02 26.28 208 23.32 220.03 19.67C223.79 20.82 227.74 21.97 231.87 23.12V90.75L228.24 98.11L217.57 99.66L225.29 107.18L223.47 117.8L233.01 112.78L242.55 117.8L240.73 107.18L248.45 99.66L237.78 98.11L234.15 90.75V23.74C250.05 28.07 268.56 32.24 289.32 35.38V93.8C284.11 94.26 280.03 98.62 280.03 103.95V137.06C280.03 141.76 283.21 145.71 287.53 146.89C286.75 147.61 286.27 148.64 286.27 149.79C286.27 151.97 288.04 153.75 290.23 153.75C292.42 153.75 294.19 151.98 294.19 149.79C294.19 148.65 293.7 147.61 292.93 146.89C297.25 145.71 300.43 141.76 300.43 137.06V103.95C300.43 98.63 296.35 94.26 291.14 93.8V35.65C305.62 37.78 321.18 39.4 337.7 40.22V100.65C337.48 100.76 337.26 100.9 337.08 101.08L325.95 112.21C325.03 113.13 325.03 114.62 325.95 115.54L336.84 126.43C335.92 127.04 335.31 128.09 335.31 129.28C335.31 131.17 336.85 132.71 338.74 132.71C340.63 132.71 342.17 131.17 342.17 129.28C342.17 128.09 341.56 127.04 340.64 126.43L351.53 115.54C352.45 114.62 352.45 113.13 351.53 112.21L340.4 101.08C340.15 100.83 339.87 100.66 339.56 100.55V40.31C350.64 40.82 362.14 40.96 374.03 40.66C376.43 40.6 378.81 40.51 381.17 40.42V89.93L377.88 96.6L368.22 98L375.21 104.81L373.56 114.43L382.2 109.89L390.84 114.43L389.19 104.81L396.18 98L386.52 96.6L383.23 89.93V40.34C399.48 39.61 414.84 38.1 429.22 36.06V88.29C427.41 88.8 426.08 90.45 426.08 92.43C426.08 93.64 426.58 94.73 427.38 95.51C422.81 96.8 419.43 100.93 419.29 105.88C414.78 109.26 411.85 114.64 411.85 120.71C411.85 126.78 414.78 132.16 419.3 135.55C419.5 140.49 422.9 144.59 427.49 145.83C426.63 146.62 426.09 147.74 426.09 149C426.09 151.38 428.02 153.32 430.41 153.32C432.8 153.32 434.73 151.39 434.73 149C434.73 147.74 434.18 146.62 433.33 145.83C437.92 144.58 441.32 140.48 441.52 135.55C446.04 132.17 448.97 126.79 448.97 120.71C448.97 114.63 446.04 109.26 441.53 105.88C441.38 100.93 438.01 96.8 433.44 95.51C434.24 94.73 434.74 93.64 434.74 92.43C434.74 90.46 433.41 88.81 431.6 88.29V35.72C450.22 32.99 467.15 29.4 482.2 25.53V84.45C481.97 84.66 481.73 84.87 481.51 85.09C473.97 92.63 473.97 104.85 481.51 112.39C489.05 119.93 501.27 119.93 508.81 112.39C511.36 109.84 513.05 106.75 513.87 103.48C513.41 104.09 512.91 104.67 512.35 105.22C505.81 111.76 495.21 111.76 488.67 105.22C482.13 98.68 482.13 88.08 488.67 81.54C489.22 80.99 489.8 80.48 490.41 80.02C488.27 80.56 486.21 81.48 484.32 82.77V24.98C490.95 23.24 497.2 21.45 503.06 19.66C512.32 22.27 522.23 24.82 532.74 27.18V107.95C530.85 108.38 529.43 110.07 529.43 112.09C529.43 112.59 529.53 113.06 529.69 113.51C521.62 115.41 515.6 122.65 515.6 131.3C515.6 139.95 522.08 147.74 530.63 149.29C530.02 150.03 529.64 150.96 529.64 151.99C529.64 154.34 531.55 156.25 533.9 156.25C536.25 156.25 538.16 154.34 538.16 151.99C538.16 150.96 537.78 150.03 537.17 149.29C545.71 147.75 552.2 140.29 552.2 131.3C552.2 122.31 545.99 115.17 537.72 113.41C537.86 112.99 537.95 112.56 537.95 112.09C537.95 110.22 536.74 108.65 535.06 108.08V27.71C549.81 30.97 565.72 33.87 582.71 36.13V92.73L579.08 100.09L568.41 101.64L576.13 109.16L574.31 119.78L583.85 114.76L593.39 119.78L591.57 109.16L599.29 101.64L588.62 100.09L584.99 92.73V36.42C602.32 38.65 620.75 40.21 640.16 40.8V95.8C634.95 96.26 630.87 100.62 630.87 105.95V139.06C630.87 143.76 634.05 147.71 638.37 148.89C637.59 149.61 637.11 150.64 637.11 151.79C637.11 153.97 638.88 155.75 641.07 155.75C643.26 155.75 645.03 153.98 645.03 151.79C645.03 150.65 644.54 149.61 643.77 148.89C648.09 147.71 651.27 143.76 651.27 139.06V105.95C651.27 100.63 647.19 96.26 641.98 95.8V40.85C658.32 41.29 673.87 40.99 688.54 40.17V94.65C688.32 94.76 688.1 94.9 687.92 95.08L676.79 106.21C675.87 107.13 675.87 108.62 676.79 109.54L687.68 120.43C686.76 121.04 686.15 122.09 686.15 123.28C686.15 125.17 687.69 126.71 689.58 126.71C691.47 126.71 693.01 125.17 693.01 123.28C693.01 122.09 692.4 121.04 691.48 120.43L702.37 109.54C703.29 108.62 703.29 107.13 702.37 106.21L691.24 95.08C690.99 94.83 690.71 94.66 690.4 94.55V40.06C700.75 39.45 710.65 38.58 720.08 37.52H720.01ZM36.39 98.02L33.88 100.47L34.47 103.93L31.36 102.3L28.25 103.93L28.84 100.47L26.33 98.02L29.8 97.52L31.35 94.37L32.9 97.52L36.37 98.02H36.39ZM85.71 128.14L79.56 124.91L73.41 128.14L74.58 121.29L69.6 116.44L76.48 115.44L79.56 109.21L82.63 115.44L89.51 116.44L84.53 121.29L85.7 128.14H85.71ZM176.51 127.98C174.22 131.94 170.75 134.21 168.75 133.06C166.75 131.9 166.98 127.76 169.27 123.8C171.56 119.84 175.03 117.57 177.03 118.72C179.03 119.88 178.8 124.02 176.51 127.98ZM188.53 118.16C190.47 116.91 194.05 119.02 196.52 122.86C198.99 126.71 199.42 130.84 197.47 132.08C195.53 133.33 191.95 131.22 189.48 127.38C187.01 123.54 186.58 119.4 188.53 118.16ZM182.83 134.97C180.52 134.97 178.65 131.26 178.65 126.69C178.65 122.12 180.52 118.41 182.83 118.41C185.14 118.41 187.01 122.12 187.01 126.69C187.01 131.26 185.14 134.97 182.83 134.97ZM288.37 131C288.37 132.49 287.16 133.7 285.67 133.7C284.18 133.7 282.97 132.49 282.97 131V110.03C282.97 108.54 284.18 107.33 285.67 107.33C287.16 107.33 288.37 108.54 288.37 110.03V131ZM292.04 110.03C292.04 108.54 293.25 107.33 294.74 107.33C296.23 107.33 297.44 108.54 297.44 110.03V131C297.44 132.49 296.23 133.7 294.74 133.7C293.25 133.7 292.04 132.49 292.04 131V110.03ZM335.35 111.82C334.17 113.86 332.38 115.03 331.35 114.44C330.32 113.84 330.44 111.71 331.62 109.67C332.8 107.63 334.59 106.46 335.62 107.05C336.65 107.65 336.53 109.78 335.35 111.82ZM341.55 106.76C342.55 106.12 344.4 107.2 345.67 109.19C346.94 111.18 347.16 113.3 346.16 113.95C345.16 114.59 343.31 113.51 342.04 111.52C340.77 109.54 340.55 107.41 341.55 106.76ZM340.77 111.16C340.77 113.52 339.8 115.43 338.61 115.43C337.42 115.43 336.45 113.52 336.45 111.16C336.45 108.95 337.3 107.15 338.39 106.94H338.82C339.91 107.16 340.76 108.95 340.76 111.16H340.77ZM387.22 100.01L384.71 102.46L385.3 105.92L382.19 104.29L379.08 105.92L379.67 102.46L377.16 100.01L380.63 99.51L382.18 96.36L383.73 99.51L387.2 100.01H387.22ZM436.54 130.13L430.39 126.9L424.24 130.13L425.41 123.28L420.43 118.43L427.31 117.43L430.38 111.2L433.46 117.43L440.34 118.43L435.36 123.28L436.53 130.13H436.54ZM527.34 129.97C525.05 133.93 521.58 136.2 519.58 135.05C517.58 133.89 517.81 129.75 520.1 125.79C522.39 121.83 525.86 119.56 527.86 120.71C529.86 121.87 529.63 126.01 527.34 129.97ZM539.36 120.15C541.3 118.9 544.88 121.01 547.35 124.85C549.82 128.7 550.25 132.83 548.3 134.07C546.36 135.32 542.78 133.21 540.31 129.37C537.84 125.52 537.41 121.39 539.36 120.15ZM533.66 136.96C531.35 136.96 529.48 133.25 529.48 128.68C529.48 124.11 531.35 120.4 533.66 120.4C535.97 120.4 537.84 124.11 537.84 128.68C537.84 133.25 535.97 136.96 533.66 136.96ZM639.2 132.99C639.2 134.48 637.99 135.69 636.5 135.69C635.01 135.69 633.8 134.48 633.8 132.99V112.02C633.8 110.53 635.01 109.32 636.5 109.32C637.99 109.32 639.2 110.53 639.2 112.02V132.99ZM642.87 112.02C642.87 110.53 644.08 109.32 645.57 109.32C647.06 109.32 648.27 110.53 648.27 112.02V132.99C648.27 134.48 647.06 135.69 645.57 135.69C644.08 135.69 642.87 134.48 642.87 132.99V112.02ZM686.18 105.81C685 107.85 683.21 109.02 682.18 108.43C681.15 107.83 681.27 105.7 682.45 103.66C683.63 101.62 685.42 100.45 686.45 101.04C687.48 101.64 687.36 103.77 686.18 105.81ZM692.38 100.75C693.38 100.11 695.23 101.19 696.5 103.18C697.77 105.17 697.99 107.29 696.99 107.94C695.99 108.58 694.14 107.5 692.87 105.51C691.6 103.53 691.38 101.4 692.38 100.75ZM691.6 105.15C691.6 107.51 690.63 109.42 689.44 109.42C688.25 109.42 687.28 107.51 687.28 105.15C687.28 102.94 688.13 101.14 689.22 100.92H689.65C690.74 101.14 691.59 102.93 691.59 105.15H691.6Z" />
</svg>
