<svg xmlns="http://www.w3.org/2000/svg" viewBox="0 0 720 160" preserveAspectRatio="xMidYMax slice">
  <path class="elementor-shape-fill"  d="m453.81,80.57c1.8-2.19,6.14-2.35,7.59,1.84,1.28-2.65,6.56-1.3,11.54,3.41-2.08-4.83-.9-10.51,2.57-10.8-1.37-2.99,1.3-6.59,3.6-6.49-2.24-3.51,3.41-6.36,6.33-6.82-4.61-5.15-15.58-2.64-17.02,1.39,1.16.55,2.5,2.1,2.32,4.54s-2.97,3.14-4.19,1.22c-1.23-1.92-3.24-5.22-3.24-5.22.55,2.56-.11,3.72-1.58,3.82s-2.6-2.16-2.6-2.16c0,0,.18.61.9,2.9.72,2.29,1.16,4.93-1.68,5.1s-4.66-2.86-4.16-6.28c-1.64,1.03-9.95,6.44-10.02,13.62,1.94-3.23,8.81-3.67,9.64-.08Z"/>
  <path class="elementor-shape-fill"  d="m256.83,37.85c2.31.2,4.41,3.05,2.26,5.95,2.37-.36,3.9,3.81,3.04,9.33,2.29-3.63,6.65-5.45,8.44-3.26,1.38-2.3,5.03-2.17,6.03-.57,1.32-3.13,5.85-.64,7.51,1.11,1.33-5.48-5.42-11.69-8.79-10.8.17,1.03-.26,2.65-1.98,3.66s-3.48-.55-2.76-2.26c.72-1.71,2.01-4.59,2.01-4.59-1.47,1.55-2.55,1.65-3.3.7-.74-.94.25-2.74.25-2.74,0,0-.33.4-1.53,1.94-1.2,1.54-2.78,3.06-4.2,1.22-1.42-1.83-.23-4.45,2.3-5.7-1.45-.63-8.92-3.71-13.78-.45,3.07-.18,6.54,4.23,4.5,6.44Z"/>
  <polygon points="307.62 101.31 307.62 101.31 307.62 101.31 307.62 101.31"/>
  <path class="elementor-shape-fill"  d="m578,140.12c-.52-.09-1.03-.18-1.55-.28.92-3.32,2.11-6.96,3.3-9.1,1.4-2.51,4.01-4.18,5.23-6.73,1.44-3,.16-6.18,3.68-8,.1-.06.2-.13.27-.23l1.85-2.43c.09-.11.2-.19.34-.21,1.04-.22,2,.14,2.98.07,2.25-.16,3.47.85,5.41,1.76.12.06.25.07.39.04l2.71-.72c1.14-.65,3.12,1.07,4.1,1.52.42.19.45.14.1-.16l-1.74-1.46c.25-3.48,3.77-2.6,5.97-2.31l1.8.2c.35.04.37-.02.05-.18-1.75-.89-3.6-1.4-5.55-1.51-.29-.01-.52-.26-.5-.55.11-2.97,1.53-4.73,4.26-5.29.15-.03.45-.24.51-.35.07-.15.02-.23-.14-.22-1.07.02-2.08.31-3.01.86-.12.07-.23.05-.32-.07-.16-.22-.22-.48-.18-.77.02-.12-.02-.23-.1-.32-2.23-2.61.19-5.35,3.04-5.05.13.01.25-.07.28-.19.03-.12-.03-.25-.15-.31-2.49-1.05-3.48,1.18-5.23,2.31-.32.2-.44.6-.3.95l1.25,3.07c.05.11.06.23.04.35-.27,1.52-.78,2.94-1.52,4.25-1.25,2.22-4.79,4.29-7.22,2.64-1.52-1.03-5.38-4.25-7.11-3.94-3.87.69-6.42,3.09-7.44,6.82-1.04,3.83-3.7,7.03-8,6.88-.11,0-.17-.06-.19-.17-.34-2.4-.44-4-.3-4.82.17-.97.81-1.79,1.92-2.45.77-.75,1.57-1.43,2.4-2.04,2.13-1.55,3.32-2.86,4.65-4.89l.81-1.33c.07-.12.08-.24.03-.37-.74-2.03-1.45-4.07-2.12-6.11-1.28-3.92-7.22-8.96-4.4-13.22.8-1.2,2.26-3.04,4.4-5.51,1.43-2.03,1.92-4.23,1.47-6.59l-1.33-3.68c-.09-.24-.07-.51.07-.73l2.1-3.58c.07-.12.04-.18-.11-.17-.52.03-2.12,2.55-2.56,3.08-.1.13-.2.13-.3,0-1.12-1.42-2.1-3-1.94-4.85-.07-1.04.16-2.03.69-2.97l2.18-2.51.33-.74-3.58,2.72c-.21.16-.33.42-.31.69.21,3.14-.24,4.72-2.51,6.92-2.64,2.56-2.72,3.91-3.08,7.48,0,.06,0,.06.03,0,.76-1.94,1.33-3.73,2.55-5.48.91-1.31,1.8-2.65,2.68-4.01.07-.11.23-.11.3,0,1.5,2.37,4.17,8.36,2.76,11.06-.72,1.38-2.78,2.37-4.19,2.88-.15.06-.24,0-.28-.15l-.73-3.27c-.02-.1-.12-.17-.22-.16-.1,0-.18.09-.18.2-.05,1.79,1,4.31-.89,5.38-.13.08-.21.04-.23-.12-.22-1.67-.7-3.24-1.46-4.71-.91-1.76-1-3.08-.9-4.93.06-1.04.47-2.24.56-3.4.02-.24-.3-.35-.43-.14-1.27,2.09-2.45,4.49-1.61,6.91.85,2.45,2.85,4.41,2.17,7.55-.04.16-.08.17-.14,0-1.04-2.91-2.56-5.54-4.56-7.89-.81-.95-.86-4.06-.97-5.36-.01-.11-.17-.13-.2-.01-.36,1.42-.41,2.82-.14,4.23.3,1.55,1.61,2.76,2.3,4.21,1.02,2.12,3.03,3.66,3,6.23-.03,2.9-.3,5.21.92,8.23.66,1.63,1.71,3.53,3.14,5.68.59.89,2.01,1.66,2.29,2.57.42,1.39.19,2.58-1.15,3.37-2.13,1.25-4.02,2.81-5.67,4.7-.18.21-.51.19-.67-.04-.93-1.33-1.44-2.69-1.49-4.39-.04-1.32.14-2.75-.21-3.95-.92-3.15-2.39-4.3-5.14-6.53-2.72-2.23-5.52-6.39-4.17-10,.66-1.77,2.37-2.9,3.33-4.59,2.02-3.54,1.03-5.93-.08-9.43-.04-.13,0-.25.1-.34.86-.72,1.58-1.56,2.17-2.52.12-.2.07-.34-.15-.4l-.46-.14c-.12-.04-.16-.11-.13-.23.09-.34.01-.62-.24-.85-.12-.11-.33,0-.3.16.22,1.37-.25,2.4-1.43,3.1-.12.07-.22.05-.31-.06-.6-.74-.96-1.57-1.07-2.5-.03-.19-.1-.22-.25-.09-.38.33-.51.78-.4,1.34.72,3.69,3.12,6.02,1.25,10.01-.98,2.08-3.87,2.76-4.52,4.74-.59,1.8-1.15,3.62-1.67,5.45-.8,2.81,1.2,5.33,3.15,8.14,1.78,2.57,5.47,1.48,5.01,6.07-.29,2.85-.89,4.61.54,7.64,1.44,3.03,3.02,5.49,3.4,9.08.35,3.32.26,6.62-.28,9.89-.35,2.13-1.39,5.92-2.38,9.24-21.73-3.77-42.31-6.81-61.91-9.21l6.21-15.85c.25-.64.97-.95,1.61-.69l6.72,2.72c.6.24,1.29-.02,1.57-.61l1.45-3.02c.31-.65,0-1.44-.68-1.69l-7-2.59c-.64-.24-.97-.95-.72-1.59l1.54-4.05c.25-.65-.09-1.37-.74-1.6l-4.42-1.56c-.65-.23-1.35.12-1.57.77l-1.41,4.16c-.22.65-.93.99-1.57.77l-5.72-2c-.65-.23-1.36.13-1.58.78l-.78,2.4c-.2.61.11,1.27.7,1.52l5.67,2.36c.6.25.91.93.69,1.55l-6.24,17.48c-13.46-1.57-26.46-2.84-39.06-3.84,3.07-3.54,4.62-9.63,4.16-13.48-.67-5.48-5.22-10.08-11.02-8.81-.28.06-.37-.04-.28-.31l1.29-3.73c.06-.16,0-.33-.15-.42l-3.25-2.11c-.53-.34-1.23.06-1.2.68l.23,4.95c0,.21-.24.31-.39.17-3.08-3.18-8.16-2.94-11.51-.47-3.22,2.37-4.89,6.3-5.42,10.36-.63,4.88.7,8.77,3.56,11.57-12.22-.68-24.07-1.1-35.6-1.31l6.53-22.07h0c2.32.64,4.85.69,7.2.2.82-.17,1.63-.4,2.4-.69.02,0,.03-.01.05-.02.1-.04.19-.08.29-.12.2-.08.4-.16.59-.24.02-.01.05-.02.07-.03.17-.08.34-.17.51-.25.4-.2.79-.41,1.17-.64.02-.01.04-.02.06-.04,0,0,0,0,0,0,.45-.28.87-.58,1.28-.9.04-.02.08-.06.11-.08.04-.03.08-.07.12-.1.33-.27.64-.56.94-.85.05-.05.11-.1.15-.15-5.59,3.58-8.59-3.12-14.15-9.08.47-4.86,1.25-12.93,1.7-17.11h.23c.45-.04.9-.06,1.35-.1l1.33-.18.67-.09.66-.14,1.31-.27c.86-.22,1.71-.49,2.55-.75,0,0-.69-.07-3.97-3.04-3.77-3.41-3.92-22.52-3.92-22.52,0,0-7.07,24.34-14.91,22.87.76.52,1.53.97,2.3,1.37-.06-.03-.13-.06-.2-.09.71.48,1.5.86,2.31,1.21.4.16.8.32,1.21.45l-3.02,14.76c-3.6-.5-7.38-.85-11.25-1.06-.69-3.72-1.13-9.55,1.6-13.8,0,0,0,0,0,0,1.49.04,2.97.09,4.46.12,2.25.11,4.11.23,5.44.34-6.45-1.48-12.25-13.56-11.59-21.02-.62,1.8-3.56,4.03-6.16,4.04-.75,0-2.6.1-5.17.25-.6-3.2-1.31-9.3.91-13.52,0,0,0,0,0,0,.04,0,.09,0,.13,0l2.89.05c1.93.05,3.85.15,5.78.21-.44-.04-.88-.06-1.31-.1.49.03.94.07,1.31.1-4.35-1-8.26-9.15-7.81-14.17-.42,1.21-2.4,2.72-4.16,2.73-.69,0-2.74.12-5.51.29l-8.59-22.7-5.08,23.47c-.71.03-1.41.07-2.1.1-8.95.4-8.7-2.53-8.7-2.53-.23,1.45-.11,2.72.4,4.97.66,2.92.43,6.79-4.19,11.57,1.82-.55,3.69-.99,5.56-1.37.95-.2,1.92-.39,2.88-.55,0,0,0,0,0,0,.62,2.97,1.57,8.49,1.09,12.93,0,0,0,0,0,0-13.15.56-12.79-3.75-12.79-3.75-.34,2.16-.16,4.03.59,7.37.97,4.33.63,10.07-6.21,17.16,2.5-.74,5.04-1.34,7.59-1.88l1.92-.4,1.02-.19s0,0,0,0c1.05,2.21,2.83,6.54,3.44,11.62-4.87.48-9.11.98-12.4,1.41,0,0,0,0,0,0l-4.42-12.53c.14-.06.27-.12.41-.19l1.18-.64c.4-.21.76-.46,1.12-.72.36-.25.72-.5,1.08-.76-.01,0-.03.02-.04.03.49-.36.98-.75,1.46-1.17-7.57,2.31-17.99-21.08-17.99-21.08,0,0,2.52,18.98-.74,22.77-2.85,3.31-3.52,3.45-3.52,3.45,1.77.45,3.61.65,5.46.69.92.03,1.85,0,2.77-.08,1.03,4.12,2.96,12.13,4.1,16.9,0,0,0,0,0,0h0c-1.42,3.65-3.56,7.96-6.13,9.38-1.87,1.04-7.37.99-7.37.99,0,0,0,0,0,0,0,0,0,0,0,0,3.24,2.66,6.46,3.57,9.31,3.58-1.72.05-3.45-.23-5.03-.85-1.62-.63-3.11-1.56-4.28-2.74,1.15,1.2,2.62,2.15,4.24,2.81,1.62.66,3.43.98,5.22.94.9-.03,1.79-.14,2.67-.32.87-.2,1.73-.44,2.55-.76.24-.09.47-.2.71-.3h0s5.5,18.91,5.5,18.91c-12.82.69-25.36,1.6-37.74,2.65.68-.56,1.34-1.16,1.99-1.86,4.3-4.68,3-15.23-.03-20.19-3.35-5.47-10.39-8.14-15.91-4-.27.2-.41.13-.44-.19l-.44-4.57c-.02-.2-.17-.35-.36-.38l-4.46-.67c-.73-.11-1.27.65-.93,1.3l2.63,5.12c.11.21-.1.45-.33.36-4.79-1.88-10.05.83-12.41,5.06-2.27,4.07-2.13,9.03-.73,13.57,1.23,3.98,3.31,6.9,6.03,8.8-13.82,1.39-27.54,2.92-41.3,4.5l-5.51-19.06,10.45-2.92c1.92-.53,3.09-2.47,2.68-4.41l-.22-1.03c-.46-2.18-2.69-3.49-4.81-2.82l-10.37,3.23-1.82-6.06c-.61-2.03-2.77-3.16-4.79-2.5l-2.89.95c-2,.66-3.07,2.82-2.4,4.81l2.08,6.1-8.46,2.81c-2.01.67-3.08,2.86-2.36,4.85.66,1.85,2.63,2.88,4.53,2.37l8.8-2.36,5.81,17.12c-22.28,2.57-44.79,5.2-68.2,7.52-.93-3.78-2.16-9.34-2.44-12.11-.33-3.3-.22-6.59.34-9.88.61-3.57,2.35-5.92,3.97-8.85,1.62-2.93,1.13-4.73,1.02-7.59-.17-4.61,3.44-3.3,5.38-5.75,2.13-2.69,4.28-5.07,3.65-7.93-.4-1.86-.85-3.71-1.33-5.55-.53-2.02-3.37-2.88-4.21-5.02-1.62-4.09.93-6.28,1.88-9.91.14-.55.04-1.01-.32-1.36-.13-.14-.22-.11-.25.08-.17.92-.58,1.73-1.22,2.43-.1.1-.2.11-.31.04-1.13-.77-1.54-1.83-1.23-3.18.04-.17-.16-.29-.29-.18-.27.22-.37.49-.29.83.02.12-.02.2-.15.22l-.47.11c-.23.05-.29.19-.18.39.52.99,1.19,1.87,2,2.65.1.1.13.21.08.34-1.33,3.42-2.47,5.74-.67,9.4.85,1.74,2.48,2.97,3.04,4.79,1.12,3.69-1.94,7.67-4.79,9.72-2.88,2.06-4.42,3.11-5.54,6.2-.43,1.18-.34,2.62-.46,3.93-.16,1.7-.76,3.02-1.77,4.29-.17.22-.5.21-.67,0-1.53-1.98-3.32-3.66-5.37-5.04-1.29-.87-1.44-2.07-.93-3.43.33-.89,1.8-1.57,2.45-2.42,1.56-2.06,2.72-3.88,3.49-5.47,1.41-2.93,1.28-5.26,1.43-8.15.14-2.57,2.23-3.97,3.39-6.03.79-1.4,2.17-2.52,2.56-4.05.36-1.38.4-2.79.12-4.23-.02-.11-.18-.11-.2,0-.2,1.29-.44,4.39-1.31,5.29-2.14,2.21-3.82,4.74-5.04,7.59-.06.16-.11.15-.14-.02-.48-3.18,1.64-5,2.64-7.39.99-2.37-.03-4.84-1.17-7-.12-.22-.45-.13-.44.11.02,1.16.36,2.39.35,3.43-.02,1.86-.19,3.16-1.21,4.86-.85,1.42-1.43,2.95-1.75,4.61-.03.15-.11.19-.24.1-1.82-1.18-.61-3.64-.55-5.43,0-.11-.07-.19-.17-.21-.1-.02-.2.05-.23.15l-.94,3.21c-.04.15-.14.2-.28.14-1.37-.6-3.37-1.71-4-3.14-1.24-2.79,1.8-8.59,3.45-10.86.08-.1.23-.09.3.02.79,1.41,1.59,2.8,2.42,4.17,1.11,1.82,1.57,3.64,2.2,5.62.02.06.03.06.03,0-.13-3.59-.12-4.94-2.6-7.66-2.13-2.34-2.48-3.95-2.07-7.07.04-.26-.07-.53-.27-.7l-3.4-2.93.28.75,2.01,2.64c.46.96.63,1.97.5,3,.04,1.86-1.04,3.37-2.24,4.72-.11.12-.21.12-.3-.02-.4-.56-1.84-3.17-2.36-3.24-.14-.02-.18.04-.12.16l1.87,3.7c.12.23.12.5.02.73l-1.56,3.59c-.6,2.33-.25,4.55,1.05,6.67,1.97,2.6,3.32,4.52,4.04,5.78,2.55,4.43-3.69,9.09-5.22,12.92-.8,2-1.63,3.99-2.5,5.97-.06.13-.05.25.01.37l.72,1.38c1.2,2.1,2.31,3.49,4.34,5.17.8.66,1.55,1.39,2.27,2.18,1.07.72,1.66,1.58,1.76,2.56.08.82-.12,2.42-.6,4.79-.02.11-.09.16-.2.15-4.3-.12-6.75-3.48-7.55-7.37-.79-3.79-3.18-6.34-7-7.27-1.71-.42-5.77,2.55-7.35,3.49-2.53,1.5-5.93-.8-7.04-3.09-.66-1.36-1.07-2.8-1.25-4.34-.02-.12,0-.24.06-.35l1.44-2.98c.16-.34.06-.75-.24-.97-1.68-1.24-2.53-3.52-5.08-2.63-.12.04-.2.17-.17.3.02.13.14.22.27.21,2.87-.12,5.11,2.77,2.72,5.23-.09.09-.12.19-.12.32.02.29-.06.54-.23.75-.09.11-.2.13-.32.05-.89-.61-1.87-.96-2.95-1.05-.17-.02-.22.06-.16.21.05.12.33.34.48.39,2.69.73,4,2.58,3.92,5.54,0,.29-.25.52-.54.52-1.96-.01-3.83.37-5.64,1.15-.32.14-.31.2.04.18l1.81-.09c2.21-.15,5.78-.81,5.81,2.68l-1.82,1.35c-.37.27-.34.33.09.16,1-.38,3.09-1.98,4.18-1.26l2.66.89c.13.04.26.04.39-.01,1.99-.78,3.28-1.72,5.51-1.41.97.13,1.96-.17,2.98.11.14.04.24.11.32.23l1.7,2.54c.06.1.15.18.25.24,3.4,2.04,1.93,5.13,3.17,8.21,1.06,2.61,3.56,4.45,4.8,7.04,1.33,2.8,2.51,7.99,3.24,11.87-3.77.35-7.57.7-11.4,1.03-58.74,5.09-100.84-2.42-124.89-11.04v29.29h720.5v-32.22c-16.67,12-85.57,21.69-142.28,11.34Zm-299.22-32.38l1.32-4.55c.16-.54.83-.71,1.23-.31l3.48,3.48c.41.41.21,1.11-.36,1.24l-4.81,1.06c-.55.12-1.02-.38-.86-.92Zm-3.11,7.49l1.13-3.55c.04-.12.19-.15.27-.05l2.18,2.65c.07.09.03.23-.08.26l-3.31.9c-.12.03-.24-.08-.2-.2Zm-6.1-10.33c.43-.52,1.24-.46,1.59.12l2.49,4.11c.1.16.05.25-.13.29l-5.88,1c-.25.04-.47-.17-.42-.42.32-1.9,1.1-3.59,2.35-5.1Zm17.15,15.14c-.12.17-.28.27-.49.28l-.16.02c-.23.02-.31-.08-.25-.3.08-.25.06-.49-.03-.73-.07-.18-.21-.26-.4-.22-2.9.52-.1,3.78-3.36,3.95-.2,0-.31-.08-.32-.28l-.09-1.32-.75-.47c-.74.07-1.38.4-1.9.97l-.16.55c.29.3.4.66.33,1.07-.02.19-.14.31-.32.35l-1.72.35c-.16.03-.29-.02-.39-.15-.09-.13-.12-.26-.09-.39.06-.19.02-.37-.1-.53-.59-.81-1.38-.98-2.37-.5-.19.09-.31.24-.38.44l-.17.55c-.08.26-.26.37-.54.32l-1.12-.22c-.23-.04-.32-.18-.3-.41.08-.67-.13-1.12-.63-1.36-.16-.07-.33-.1-.51-.07l-1.63.29c-.19.03-.35-.03-.46-.18-1.54-2.01-2.84-4.14-3.92-6.42-.05-.12-.01-.26.1-.33.11-.07.26-.05.34.05,1.42,1.72,3.06,3.18,4.94,4.38.17.1.27.06.31-.13.13-.61.33-2.53,1.46-1.86.16.1.23.23.23.41,0,1.3.41,2.45,1.24,3.45.1.13.23.15.38.08.65-.34.96-.86.92-1.56-.01-.18.05-.33.18-.45.4-.38.89-.5,1.47-.36.22.05.35.18.4.4l.14.6c.05.23.19.31.42.23l1.24-.43c.21-.07.24-.19.1-.36-.36-.43-.47-.92-.31-1.46.04-.15.15-.26.3-.32l1.13-.38c.2-.07.32,0,.38.2l.24.95c.04.17.14.3.3.38,1.03.54,1.77.33,2.22-.63.08-.17.21-.3.37-.4l.8-.46c.15-.09.23-.23.21-.41,0-.11-.05-.2-.11-.28-.12-.13-.18-.28-.17-.45.02-.75.48-1.08,1.4-1.01.24.02.43.21.45.45l.03.28c.05.5.71.63.95.19,1-1.84,1.67-3.79,2.01-5.85.11-.64.21-.64.3,0,.52,3.46-.19,6.62-2.11,9.47Zm52.13-19.72l.03.65.21,3.87-4.43.62-.71-4.3v-.03s4.9-.81,4.9-.81Zm-11,1.82l4.84-.8,1.06,4.25-4.51.63-1.39-4.08Zm3.2,9.38l-1.56-4.57,4.42-.7,1.16,4.68-4.02.59Zm4.53-.66l-.8-4.75,4.34-.69.27,4.88-3.81.56Zm35.79-41.86l-.12,4.37-4.48-.13-.39-4.52,4.99.28Zm-.14,5.03l-.13,4.8-3.86-.14-.42-4.87,4.41.21Zm-5.46-34.75l-.4,4.51-4.48.13-.11-4.37,4.99-.27Zm-.45,5.09l-.43,4.87-3.86.14-.12-4.8,4.41-.21Zm-4.8,5.03l-4.08.14-.9-4.71,4.49-.21.49,4.78Zm-1.42,29.73l-3.82.56-.8-4.75,4.35-.69.27,4.88Zm.42-39.51l.44,4.33-4.56.13-.81-4.19,4.93-.27Zm-.96,29.53l.24,4.52-4.43.62-.73-4.33,4.92-.81Zm-11,1.82l4.84-.8,1.06,4.25-4.51.63-1.39-4.08Zm1.64,4.81l4.42-.7,1.16,4.68-4.02.59-1.56-4.57Zm24.54,45.37c-6.37.06-12.64.18-18.84.35-.59-4.56-1.74-13.55-2.1-16.28-.5-3.7,15.77-5.76,20.54-1.86.75,1.17.53,12.97.41,17.79Zm1.95-42.15l-4.08-.15.5-4.78,4.49.22-.91,4.71Zm1.05-5.46l-4.56-.14.45-4.33,4.92.27-.81,4.2Zm16.78,34.17l-3.86-.14-.43-4.87,4.42.21-.13,4.8Zm.23-8.89l-.09,3.43-4.48-.13-.27-3.11-.12-1.41,4.99.28-.03.94Zm4.35,9.06l-4.07-.15.49-4.78,4.49.22-.91,4.71Zm-3.51-5.6l.36-3.5.09-.83,4.93.27-.07.36-.74,3.84-4.57-.14Zm55.94,7l2.66-3.08c.31-.36.91-.26,1.07.19l1.48,3.97c.17.47-.24.95-.72.84l-4.14-.89c-.47-.1-.66-.66-.35-1.03Zm-2.72,2.44l.76,2.85c.03.1-.06.19-.16.17l-2.91-.48c-.11-.02-.16-.15-.08-.23l2.15-2.37c.07-.08.21-.05.23.06Zm-7.13-4.79c.93-1.37,2.14-2.42,3.66-3.15.52-.25,1.14.08,1.21.66l.48,4.11c.02.16-.05.22-.2.18l-4.96-1.31c-.21-.06-.3-.3-.18-.48Zm16.7,8.16c-.83,2.9-2.51,5.12-5.03,6.66-.15.09-.32.11-.49.05l-.13-.04c-.19-.07-.21-.17-.08-.33.15-.17.22-.36.24-.58,0-.17-.07-.28-.24-.32-2.46-.63-1.43,2.93-4.04,1.89-.16-.06-.21-.17-.15-.33l.4-1.07-.42-.63c-.61-.21-1.22-.18-1.83.08l-.32.37c.12.34.08.66-.12.96-.09.14-.22.19-.38.16l-1.47-.34c-.13-.03-.22-.12-.25-.25-.03-.14,0-.25.07-.34.11-.13.15-.28.11-.45-.17-.85-.73-1.26-1.68-1.24-.18,0-.33.07-.45.21l-.33.37c-.16.18-.34.19-.53.06l-.8-.57c-.16-.11-.19-.26-.09-.43.3-.5.3-.92,0-1.29-.1-.12-.22-.19-.37-.23l-1.38-.35c-.16-.04-.26-.14-.3-.3-.48-2.12-.74-4.26-.78-6.42,0-.11.08-.21.2-.22.11-.02.22.05.25.16.49,1.85,1.26,3.58,2.3,5.19.09.14.19.15.29,0,.32-.43,1.16-1.86,1.81-.94.09.13.1.27.04.41-.46,1.02-.55,2.06-.27,3.14.04.14.12.2.26.2.63-.03,1.06-.33,1.27-.89.05-.14.15-.24.3-.29.45-.15.88-.07,1.28.24.15.12.21.27.17.46l-.1.52c-.04.2.04.31.25.33l1.13.11c.19.02.25-.07.2-.24-.13-.47-.04-.88.28-1.25.09-.1.21-.15.35-.14l1.02.11c.18.02.25.11.22.29l-.15.83c-.03.15,0,.28.1.41.62.79,1.27.89,1.96.3.13-.11.27-.16.43-.18l.79-.08c.15-.01.26-.1.31-.25.03-.09.04-.17.01-.26-.05-.14-.04-.28.03-.42.28-.58.76-.68,1.45-.29.18.1.26.32.19.51l-.08.23c-.14.41.33.75.67.49,1.44-1.08,2.66-2.37,3.66-3.86.31-.46.39-.43.23.11Z"/>
  <path class="elementor-shape-fill"  d="m420.83,95.29c-.05.05-.11.09-.16.14-.01.01-.03.02-.04.04.06-.06.14-.12.2-.18Z"/>
</svg>