<svg xmlns="http://www.w3.org/2000/svg" viewBox="0 0 719.93 127.51" preserveAspectRatio="xMidYMax slice">
  <path class="elementor-shape-fill" d="m317.01,96.04h-.01c.06-.18.11-.37.16-.57.69-3.14-1.3-6.25-4.44-6.94s-6.25,1.3-6.94,4.44c-.04.2-.08.39-.1.59-.34,2.93,1.6,5.71,4.54,6.35,2.94.65,5.86-1.07,6.79-3.87Zm-3.01,1.62c-.75.55-1.68.84-2.6.83-.56,0-1.15-.14-1.66-.36-.85-.37-1.56-1.03-2.02-1.84v.02c-.28-.51-.46-1.05-.52-1.62-.03-.26-.03-.53-.01-.79.02-.2.04-.4.09-.59.1-.46.27-.89.51-1.29.29-.49.68-.91,1.15-1.26.75-.55,1.67-.84,2.6-.83.28,0,.57.04.85.1.28.06.55.15.81.26.85.37,1.56,1.03,2.02,1.84.28.51.46,1.05.52,1.62.05.46.02.92-.08,1.38-.04.2-.1.39-.17.57-.09.25-.21.49-.34.71-.29.49-.68.91-1.15,1.25Zm11.66-19.8l.24-14.7-14.82,11.5,14.58,3.2ZM0,0v114.67s65.06-15.07,154.41-21.15l.1-7.22c-5.46-.21-9.77-2.99-9.77-14.72s4.7-27.15,10.49-27.15,10.49,14.91,10.49,27.15-4.37,14.55-9.89,14.73l-.1,7.13c11.42-.77,22.57-1.39,33.17-1.8l.04-3.02c-3.72-.15-6.67-2.04-6.67-10.04s3.21-18.53,7.16-18.53,7.16,10.18,7.16,18.53-2.99,9.92-6.75,10.05l-.04,2.99c13.33-.51,25.8-.7,36.89-.48l.12-8.87c-5.46-.21-9.77-2.99-9.77-14.72s4.7-27.15,10.49-27.15,10.49,14.91,10.49,27.15-4.37,14.55-9.89,14.72l-.12,8.9c6.15.15,11.87.43,17.05.86,20.51,1.71,40.56,4.94,60.01,8.71-2.03-1.99-3.09-4.88-2.64-7.84.03-.2.07-.39.11-.59,1.07-4.89,5.92-7.99,10.81-6.92,4.2.92,7.09,4.64,7.13,8.77,0,.67-.06,1.35-.21,2.04-.67,3.04-2.8,5.39-5.49,6.47,16.12,3.28,31.81,6.81,47.01,10.04-1.66-1.95-2.49-4.57-2.08-7.25.03-.2.07-.39.11-.59,1.07-4.89,5.92-7.99,10.81-6.92,4.2.92,7.09,4.64,7.13,8.77,0,.67-.06,1.35-.21,2.04-.62,2.82-2.49,5.04-4.91,6.21,30.29,6.17,58.47,10.48,83.97,8.17,1.75-.16,3.44-.33,5.09-.5l.05-3.58c-2.86-.11-5.12-1.57-5.12-7.72s2.47-14.25,5.51-14.25,5.51,7.82,5.51,14.25-2.3,7.63-5.19,7.72l-.05,3.5c26.47-2.85,40.04-7.58,50.43-11.39l.07-5.26c-3.72-.15-6.67-2.04-6.67-10.04s3.21-18.53,7.16-18.53,7.16,10.18,7.16,18.53-2.99,9.92-6.75,10.05l-.07,4.92c9.9-3.63,17.08-6.31,30.41-5.48,24.63,1.54,34.93,19.4,68.7,21.86l.05-3.34c-3.72-.15-6.67-2.04-6.67-10.04s3.21-18.53,7.16-18.53,7.16,10.18,7.16,18.53-2.99,9.92-6.75,10.05l-.05,3.4c4.99.32,10.49.3,16.62-.15,48.44-3.56,78.89-28.89,89.56-27.56V0H0Zm132.89,79.74c-1.37,0-2.47-1.11-2.47-2.47s1.11-2.47,2.47-2.47,2.47,1.11,2.47,2.47-1.11,2.47-2.47,2.47Zm47.55-30.94c-2.47,0-4.47-2-4.47-4.47s2-4.47,4.47-4.47,4.47,2,4.47,4.47-2,4.47-4.47,4.47Zm62.42-8.94c-1.37,0-2.47-1.11-2.47-2.47s1.11-2.47,2.47-2.47,2.47,1.11,2.47,2.47-1.11,2.47-2.47,2.47Zm141.5,62.66v-.03s-.59,2.68-.59,2.68c-.1.45-.55.74-1.01.64l-1.7-.37-.08.37c-.07.31-.38.51-.69.44l-1.19-.26c-.34-4.45-3.56-8.36-8.14-9.36-5.6-1.23-11.16,2.33-12.38,7.93-.04.2-.08.39-.11.59l-4.3-.94c-.09-.02-.18-.06-.25-.12l-3.25-2.75c-.07-.06-.16-.1-.25-.12l-5.95-1.3s-.08-.01-.12-.01l-4.6-.05s-.08,0-.12-.01l-17.86-3.92c.89-5.41-2.62-10.65-8.03-11.84-5.42-1.19-10.79,2.1-12.25,7.39l-3.94-.86c-.31-.07-.51-.38-.44-.69l.32-1.48-2.67-.59c-.61-.13-.99-.73-.86-1.34l.47-2.15c.13-.61.73-.99,1.34-.86l2.14.47.4-1.82c-.74.69-1.79,1.02-2.85.79l-1.53-.33c-1.7-.37-2.78-2.06-2.41-3.77l2.73-12.44c.37-1.7,2.06-2.78,3.77-2.41l1.53.33c1.7.37,2.78,2.06,2.41,3.77l-.95,4.35,2.27.5,4.76,1.05,18.05-14.01s.03-.05.04-.07c.25-.49.8-.74,1.34-.63l18.81,4.18c.69.15,1.23.67,1.4,1.35l3.76,14.46,5.71,1.25,21.87,7.58c1.08.38,1.71,1.5,1.47,2.62l-.39,1.77.97.21c.56.12,1.01.54,1.18,1.09l1.39,4.6c.09.29.02.6-.19.82-.21.22-.51.32-.8.25l-.43-.09.02.05-.92-.2-.37,1.67s.1,0,.15.02l2.68.59c.45.1.74.55.64,1.01Zm47.2-1.5c-1.37,0-2.47-1.11-2.47-2.47s1.11-2.47,2.47-2.47,2.47,1.11,2.47,2.47-1.11,2.47-2.47,2.47Zm56.86-40.28c-2.47,0-4.47-2-4.47-4.47s2-4.47,4.47-4.47,4.47,2,4.47,4.47-2,4.47-4.47,4.47Zm52.35,22.6c-1.68,0-3.04-1.36-3.04-3.04s1.36-3.04,3.04-3.04,3.04,1.36,3.04,3.04-1.36,3.04-3.04,3.04Zm-166.49,25.28c.06-.19.11-.38.16-.58.69-3.14-1.31-6.25-4.44-6.94-3.14-.69-6.25,1.3-6.94,4.44-.04.2-.08.39-.1.59-.34,2.93,1.6,5.71,4.54,6.35,2.94.65,5.86-1.07,6.79-3.87h-.01Zm-1.34-.92c-.04.2-.1.39-.17.57-.09.25-.21.49-.34.71-.29.49-.68.91-1.15,1.25-.75.55-1.68.84-2.6.83-.56,0-1.15-.14-1.66-.36-.85-.37-1.56-1.03-2.02-1.84v.02c-.28-.51-.46-1.05-.52-1.62-.03-.26-.03-.53-.01-.79.02-.2.04-.4.09-.59.1-.46.27-.89.51-1.29.29-.49.68-.91,1.15-1.26.75-.55,1.67-.84,2.6-.83.28,0,.57.04.85.1.28.06.55.15.81.26.85.37,1.56,1.03,2.02,1.84.28.51.46,1.05.52,1.62.05.46.03.92-.08,1.38Zm-29.51-41.63v.02s-11.56-2.54-11.56-2.54c-.1,0-.95-.08-1.57.44-.44.36-.68.94-.72,1.72-.13,2.38-.09,6.49-.08,7.48l14.86,3.26.54-2.46c.07-.33.4-.54.73-.47h.03l-1.72-6.95c-.06-.25-.26-.44-.51-.5Z"/>
</svg>