<svg viewBox="0 0 720 142" xmlns="http://www.w3.org/2000/svg" preserveAspectRatio="xMidYMax slice">
<path class="elementor-shape-fill" fill-rule="evenodd" clip-rule="evenodd" d="M0 141.82H212.42V134.86H216.2C215.44 132.52 214.69 128.45 216.61 124.35C217.56 122.26 219.5 120.35 221.7 118.62C223.86 116.96 226.23 115.54 228.16 114.49C227.21 112.05 229.33 110.39 231.35 109.31L231.4 108.56C231.1 108.34 230.9 107.99 230.9 107.58C230.9 107.14 231.13 106.76 231.48 106.55L231.51 105.81C231.29 105.63 231.14 105.36 231.14 105.05C231.14 104.71 231.32 104.41 231.58 104.24L231.6 103.51L231.93 96.86C231.93 96.8 232.06 96.72 232.1 96.67C232.14 96.71 232.27 96.79 232.27 96.86L232.6 103.51L232.62 104.24C232.89 104.41 233.06 104.71 233.06 105.05C233.06 105.36 232.92 105.63 232.69 105.81L232.72 106.55C233.07 106.76 233.3 107.14 233.3 107.58C233.3 107.98 233.1 108.34 232.8 108.56L232.85 109.31C234.86 110.38 236.99 112.05 236.04 114.49C237.97 115.54 240.33 116.96 242.5 118.62C244.7 120.34 246.63 122.25 247.59 124.35C249.52 128.46 248.77 132.52 248 134.86H253.92V126.25H260.73V110.84H258.14V103.7H265.72C264.72 100.6 263.75 95.25 266.28 89.84C267.54 87.07 270.1 84.54 273.01 82.26C275.87 80.06 279 78.18 281.55 76.8C280.29 73.58 283.1 71.38 285.76 69.96L285.83 68.97C285.43 68.68 285.17 68.21 285.17 67.68C285.17 67.1 285.48 66.6 285.93 66.32L285.97 65.35C285.67 65.12 285.48 64.75 285.48 64.35C285.48 63.9 285.71 63.5 286.06 63.28L286.09 62.31L286.53 53.51C286.53 53.42 286.71 53.32 286.75 53.27C286.8 53.33 286.97 53.43 286.97 53.51L287.41 62.31L287.44 63.28C287.79 63.51 288.02 63.9 288.02 64.35C288.02 64.76 287.83 65.12 287.53 65.35L287.57 66.32C288.03 66.6 288.33 67.1 288.33 67.68C288.33 68.21 288.07 68.68 287.67 68.97L287.74 69.96C290.4 71.38 293.21 73.58 291.95 76.8C294.5 78.18 297.63 80.06 300.49 82.26C303.4 84.54 305.96 87.07 307.22 89.84C309.76 95.24 308.78 100.6 307.78 103.7H311.29V88.13H316.16V79.25C315.21 76.9 314.7 74.42 314.7 71.87C314.7 61.31 323.41 52.07 336.45 46.91C341.58 44.87 346.25 42.41 350.38 39.62C350.56 35.68 353.15 32.39 356.7 31.1L358.04 27C357.79 26.63 357.61 26.21 357.61 25.72C357.61 24.78 358.18 23.99 358.98 23.62L359.31 17.42C355.47 17.27 352.91 14.16 352.91 10.29C352.91 6.42 355.98 3.04 359.95 3.04C360.19 3.04 360.43 3.05 360.67 3.08C357.75 3.4 355.47 5.88 355.47 8.88C355.47 12.1 358.08 14.72 361.31 14.72C364.32 14.72 366.79 12.45 367.11 9.52C367.13 9.76 367.15 9.99 367.15 10.24C367.15 14.12 364.43 17.28 360.59 17.43L360.92 23.63C361.72 24 362.3 24.79 362.3 25.73C362.3 26.21 362.12 26.64 361.85 27.02L363.2 31.11C366.76 32.4 369.34 35.69 369.53 39.63C373.67 42.42 378.33 44.88 383.46 46.92C396.5 52.08 405.21 61.32 405.21 71.88C405.21 74.43 404.7 76.9 403.75 79.26V88.14H408.62V103.71H412.13C411.13 100.61 410.16 95.26 412.69 89.85C413.95 87.08 416.51 84.55 419.42 82.27C422.28 80.07 425.41 78.19 427.96 76.81C426.7 73.59 429.51 71.39 432.17 69.97L432.24 68.98C431.84 68.69 431.58 68.22 431.58 67.69C431.58 67.11 431.88 66.61 432.34 66.33L432.38 65.36C432.08 65.13 431.89 64.76 431.89 64.36C431.89 63.91 432.12 63.51 432.47 63.29L432.5 62.32L432.94 53.52C432.94 53.43 433.12 53.33 433.16 53.28C433.21 53.34 433.38 53.44 433.38 53.52L433.82 62.32L433.85 63.29C434.2 63.52 434.43 63.91 434.43 64.36C434.43 64.77 434.24 65.13 433.94 65.36L433.98 66.33C434.44 66.61 434.74 67.11 434.74 67.69C434.74 68.22 434.48 68.69 434.08 68.98L434.15 69.97C436.81 71.39 439.62 73.59 438.36 76.81C440.91 78.19 444.04 80.07 446.9 82.27C449.81 84.55 452.37 87.08 453.63 89.85C456.17 95.25 455.19 100.61 454.19 103.71H461.77V110.85H459.18V126.26H465.99V134.87H471.91C471.15 132.53 470.4 128.46 472.32 124.36C473.27 122.27 475.21 120.36 477.41 118.63C479.57 116.97 481.94 115.55 483.87 114.5C482.92 112.06 485.04 110.4 487.06 109.32L487.11 108.57C486.81 108.35 486.61 108 486.61 107.59C486.61 107.15 486.84 106.77 487.19 106.56L487.22 105.82C487 105.64 486.85 105.37 486.85 105.06C486.85 104.72 487.03 104.42 487.29 104.25L487.31 103.52L487.64 96.87C487.64 96.81 487.77 96.73 487.81 96.68C487.85 96.72 487.98 96.8 487.98 96.87L488.31 103.52L488.33 104.25C488.6 104.42 488.77 104.72 488.77 105.06C488.77 105.37 488.63 105.64 488.4 105.82L488.43 106.56C488.78 106.77 489.01 107.15 489.01 107.59C489.01 107.99 488.81 108.35 488.51 108.57L488.56 109.32C490.57 110.39 492.7 112.06 491.75 114.5C493.68 115.55 496.05 116.97 498.21 118.63C500.41 120.35 502.34 122.26 503.3 124.36C505.23 128.47 504.48 132.53 503.71 134.87H507.49V141.83H719.91V0H0V141.82Z" />
</svg>
