<svg viewBox="0 0 720 157" xmlns="http://www.w3.org/2000/svg" preserveAspectRatio="xMidYMax slice">
<path class="elementor-shape-fill" fill-rule="evenodd" clip-rule="evenodd" d="M0 138.78H212.42V131.82H216.2C215.44 129.48 214.69 125.41 216.61 121.31C217.56 119.22 219.5 117.31 221.7 115.58C223.86 113.92 226.23 112.5 228.16 111.45C227.21 109.01 229.33 107.35 231.35 106.27L231.4 105.52C231.1 105.3 230.9 104.95 230.9 104.54C230.9 104.1 231.13 103.72 231.48 103.51L231.51 102.77C231.29 102.59 231.14 102.32 231.14 102.01C231.14 101.67 231.32 101.37 231.58 101.2L231.6 100.47L231.93 93.82C231.93 93.76 232.06 93.68 232.1 93.63C232.14 93.67 232.27 93.75 232.27 93.82L232.6 100.47L232.62 101.2C232.89 101.37 233.06 101.67 233.06 102.01C233.06 102.32 232.92 102.59 232.69 102.77L232.72 103.51C233.07 103.72 233.3 104.1 233.3 104.54C233.3 104.94 233.1 105.3 232.8 105.52L232.85 106.27C234.86 107.34 236.99 109.01 236.04 111.45C237.97 112.5 240.33 113.92 242.5 115.58C244.7 117.3 246.63 119.21 247.59 121.31C249.52 125.42 248.77 129.48 248 131.82H253.92V123.21H260.73V107.8H258.14V100.66H265.72C264.72 97.56 263.75 92.21 266.28 86.8C267.54 84.03 270.1 81.5 273.01 79.22C275.87 77.02 279 75.14 281.55 73.76C280.29 70.54 283.1 68.34 285.76 66.92L285.83 65.93C285.43 65.64 285.17 65.17 285.17 64.64C285.17 64.06 285.48 63.56 285.93 63.28L285.97 62.31C285.67 62.08 285.48 61.71 285.48 61.31C285.48 60.86 285.71 60.46 286.06 60.24L286.09 59.27L286.53 50.47C286.53 50.38 286.71 50.28 286.75 50.23C286.8 50.29 286.97 50.39 286.97 50.47L287.41 59.27L287.44 60.24C287.79 60.47 288.02 60.86 288.02 61.31C288.02 61.72 287.83 62.08 287.53 62.31L287.57 63.28C288.03 63.56 288.33 64.06 288.33 64.64C288.33 65.17 288.07 65.64 287.67 65.93L287.74 66.92C290.4 68.34 293.21 70.54 291.95 73.76C294.5 75.14 297.63 77.02 300.49 79.22C303.4 81.5 305.96 84.03 307.22 86.8C309.76 92.2 308.78 97.56 307.78 100.66H311.29V85.09H316.16V76.21C315.21 73.86 314.7 71.38 314.7 68.83C314.7 58.27 323.41 49.03 336.45 43.87C341.58 41.83 346.25 39.37 350.38 36.58C350.56 32.64 353.15 29.35 356.7 28.06L358.04 23.96C357.79 23.59 357.61 23.17 357.61 22.68C357.61 21.74 358.18 20.95 358.98 20.58L359.31 14.38C355.47 14.23 352.91 11.12 352.91 7.25C352.91 3.38 355.98 0 359.95 0C360.19 0 360.43 0.01 360.67 0.04C357.75 0.36 355.47 2.84 355.47 5.84C355.47 9.06 358.08 11.68 361.31 11.68C364.32 11.68 366.79 9.41 367.11 6.48C367.13 6.72 367.15 6.95 367.15 7.2C367.15 11.08 364.43 14.24 360.59 14.39L360.92 20.59C361.72 20.96 362.3 21.75 362.3 22.69C362.3 23.17 362.12 23.6 361.85 23.98L363.2 28.07C366.76 29.36 369.34 32.65 369.53 36.59C373.67 39.38 378.33 41.84 383.46 43.88C396.5 49.04 405.21 58.28 405.21 68.84C405.21 71.39 404.7 73.86 403.75 76.22V85.1H408.62V100.67H412.13C411.13 97.57 410.16 92.22 412.69 86.81C413.95 84.04 416.51 81.51 419.42 79.23C422.28 77.03 425.41 75.15 427.96 73.77C426.7 70.55 429.51 68.35 432.17 66.93L432.24 65.94C431.84 65.65 431.58 65.18 431.58 64.65C431.58 64.07 431.88 63.57 432.34 63.29L432.38 62.32C432.08 62.09 431.89 61.72 431.89 61.32C431.89 60.87 432.12 60.47 432.47 60.25L432.5 59.28L432.94 50.48C432.94 50.39 433.12 50.29 433.16 50.24C433.21 50.3 433.38 50.4 433.38 50.48L433.82 59.28L433.85 60.25C434.2 60.48 434.43 60.87 434.43 61.32C434.43 61.73 434.24 62.09 433.94 62.32L433.98 63.29C434.44 63.57 434.74 64.07 434.74 64.65C434.74 65.18 434.48 65.65 434.08 65.94L434.15 66.93C436.81 68.35 439.62 70.55 438.36 73.77C440.91 75.15 444.04 77.03 446.9 79.23C449.81 81.51 452.37 84.04 453.63 86.81C456.17 92.21 455.19 97.57 454.19 100.67H461.77V107.81H459.18V123.22H465.99V131.83H471.91C471.15 129.49 470.4 125.42 472.32 121.32C473.27 119.23 475.21 117.32 477.41 115.59C479.57 113.93 481.94 112.51 483.87 111.46C482.92 109.02 485.04 107.36 487.06 106.28L487.11 105.53C486.81 105.31 486.61 104.96 486.61 104.55C486.61 104.11 486.84 103.73 487.19 103.52L487.22 102.78C487 102.6 486.85 102.33 486.85 102.02C486.85 101.68 487.03 101.38 487.29 101.21L487.31 100.48L487.64 93.83C487.64 93.77 487.77 93.69 487.81 93.64C487.85 93.68 487.98 93.76 487.98 93.83L488.31 100.48L488.33 101.21C488.6 101.38 488.77 101.68 488.77 102.02C488.77 102.33 488.63 102.6 488.4 102.78L488.43 103.52C488.78 103.73 489.01 104.11 489.01 104.55C489.01 104.95 488.81 105.31 488.51 105.53L488.56 106.28C490.57 107.35 492.7 109.02 491.75 111.46C493.68 112.51 496.05 113.93 498.21 115.59C500.41 117.31 502.34 119.22 503.3 121.32C505.23 125.43 504.48 129.49 503.71 131.83H507.49V138.79H719.91V156.97H0V138.79V138.78Z" />
</svg>
