<svg viewBox="0 0 721 143" xmlns="http://www.w3.org/2000/svg" preserveAspectRatio="xMidYMax slice">
<path class="elementor-shape-fill" d="M569.57 119.25C565.89 117.57 562.29 115.67 558.74 113.65C550.26 108.82 541.8 103.93 532.77 100.19C527.88 98.16 522.8 96.42 517.56 95.62C516.61 95.48 515.61 95.33 514.83 94.78C514.05 94.23 513.55 93.12 513.99 92.27C514.92 90.51 518.11 91.85 519.36 90.3C520.01 89.5 519.74 88.23 519.01 87.49C518.28 86.75 517.24 86.45 516.22 86.27C511.3 85.41 506 87.12 502.51 90.69C501.42 91.8 500.49 93.09 499.22 93.98C497.95 94.87 496.16 95.28 494.84 94.45C493.24 93.44 492.97 91.09 491.43 89.99C489.49 88.61 486.84 89.91 484.85 91.2C481.45 93.41 478.27 95.94 474.93 98.25C468.17 102.91 460.13 105.35 452.4 107.93C452.32 107.96 452.23 107.99 452.15 108.01C450.13 108.68 448.11 109.32 446.07 109.92C445.07 110.21 444.08 110.5 443.08 110.77C442.18 111.02 441 111.55 440.07 111.55C439.81 111.62 439.55 111.68 439.29 111.75C431.68 113.69 423.96 115.23 416.16 116.14C410.14 116.85 404.02 117.23 397.96 116.79C393.63 116.47 388.65 116.08 385.17 113.22C382.81 111.28 380.89 108.23 380.89 105.1C380.89 101.62 383.91 98.94 386.32 96.79C391.32 92.32 396.91 88.34 403.08 85.65C404.44 85.06 405.83 84.52 407.25 84.07C417.18 80.86 427.88 81.56 438.24 80.34C441.21 79.99 444.55 79.23 446.03 76.63C446.81 75.27 446.92 73.59 446.58 72.06C445.44 67 439.93 64.12 434.78 63.51C428.23 62.74 421.61 64.54 415.58 67.22C404.92 71.97 395.75 79.39 387.29 87.33C383.21 91.16 371.13 105.71 371.36 91.59C371.69 70.98 413.83 56.4 419.69 54.8C425.55 53.2 424.31 47.51 423.07 44.14C421.83 40.76 426.62 43.07 430.89 39.34C435.15 35.61 428.58 32.59 423.43 35.25C418.28 37.92 423.61 48.93 415.61 43.42C407.61 37.91 389.84 50.17 379.36 65.28C368.88 80.38 367.81 97.8 364.08 91.05C360.35 84.3 363 61.8 367.62 50.43C372.24 39.06 400.69 19.62 386.47 15.35C372.25 11.09 361.24 43.43 360.88 62.5C360.52 81.57 355.13 85.55 353.71 83.41C352.29 81.28 354.48 43.07 352.67 33.12C350.86 23.17 348.44 30.99 344.53 27.79C340.62 24.59 348.08 18.55 347.73 8.24001C347.37 -2.06999 343.11 -1.35999 334.58 2.91001C326.05 7.18001 336 8.24001 339.56 16.41C343.11 24.58 328.54 18.19 333.87 33.11C337.37 42.92 344.83 61.98 346.89 73.79C347.43 76.9 343.52 78.73 341.51 76.29L341.47 76.24C340.05 74.5 339.42 72.27 338.96 70.08C338.5 67.89 338.17 65.64 337.25 63.59C336.31 61.5 334.74 59.69 332.81 58.45C331.47 57.59 329.94 56.98 328.87 55.81C326.14 52.81 327.71 47.84 325.91 44.2C323.99 40.33 318.75 38.93 316.98 34.99C316.02 32.86 316.25 30.29 315.56 28.12C314.49 24.75 310.22 23.33 307.45 25.53C304.76 27.67 305.53 32.38 308.5 33.82C309.58 34.34 310.82 34.46 311.93 34.94C314.36 35.98 315.8 38.59 316.25 41.19C316.7 43.79 316.35 46.46 316.2 49.09C316.05 51.73 316.14 54.49 317.37 56.83C320.06 61.94 327.25 63.39 329.91 68.52C330.94 70.51 331.18 72.88 332.48 74.7C334.07 76.93 336.87 77.87 339.45 78.78C340.83 79.27 342.71 80.05 344.34 81.04C345.74 81.89 345.09 84.03 343.45 84C343.44 84 343.43 84 343.42 84C335.72 83.65 329.05 78.07 323.59 73.16C318.5 68.59 313.82 63.58 308.63 59.11C303.44 54.64 298.19 50.79 292.38 47.54C289.84 46.12 287.18 44.82 284.32 44.31C282.46 43.98 280.29 44.17 279.36 46.07C277.94 48.97 279.27 53.18 280.76 55.82C282.43 58.77 285.02 61.15 287.96 62.81C300.24 69.74 312.8 76.51 326.01 81.51C352.31 91.46 346.49 99.38 341.4 95.82C337.89 93.37 329.27 85 297.64 80.02C266.01 75.04 247.06 77.54 253.45 88.46C257.11 94.72 285.2 94.23 312.56 93.94C339.93 93.65 342.06 100.63 336.73 109.47C335.31 111.83 332.49 113.05 329.97 113.83C325.79 115.12 321.33 115.45 316.98 115.49C310.89 115.55 304.79 114.94 298.77 113.99C291.19 112.8 283.71 111.04 276.35 108.91C270.02 107.07 263.68 104.98 257.48 102.61C255.47 101.84 253.48 101.05 251.5 100.22C244.38 97.25 237.59 93.6 230.61 90.34C224.27 87.37 217.71 84.84 210.78 83.69C208.61 83.33 206.25 83.07 204.33 84.15C202.41 85.23 201.48 88.21 203.13 89.66C204.31 90.7 206.09 90.48 207.66 90.63C209.23 90.78 211.07 91.97 210.65 93.48C210.2 95.1 207.92 95.02 206.27 94.71C194.54 92.5 182.07 98.01 172.29 103.98C167.76 106.75 163.48 109.81 159.03 112.7C136.64 127.27 105.37 130.82 62.01 112.7C36.83 102.18 14.41 100.28 0.0400009 100.54V142H720.04L720.07 102.45C705.69 102.19 683.26 104.08 658.07 114.61C646.7 119.36 634.88 123.19 622.72 125.27C612.99 126.93 603.02 127.46 593.21 126.23C584.89 125.19 577.09 122.62 569.61 119.19L569.57 119.25Z" />
</svg>
