<svg viewBox="0 0 721 145" xmlns="http://www.w3.org/2000/svg" preserveAspectRatio="xMidYMax slice">
<path class="elementor-shape-fill" d="M0 118.54C14.38 118.28 36.8 120.18 61.97 130.7C105.33 148.82 136.6 145.27 158.99 130.7C163.44 127.8 167.71 124.75 172.25 121.98C182.03 116.01 194.5 110.5 206.23 112.71C207.88 113.02 210.16 113.1 210.61 111.48C211.03 109.96 209.18 108.78 207.62 108.63C206.06 108.48 204.27 108.7 203.09 107.66C201.44 106.21 202.37 103.23 204.29 102.15C206.21 101.07 208.57 101.33 210.74 101.69C217.67 102.84 224.23 105.37 230.57 108.34C237.55 111.61 244.34 115.26 251.46 118.22C253.44 119.04 255.43 119.84 257.44 120.61C263.65 122.98 269.98 125.08 276.31 126.91C283.67 129.04 291.16 130.8 298.73 131.99C304.75 132.93 310.84 133.55 316.94 133.49C321.29 133.45 325.75 133.12 329.93 131.83C332.45 131.05 335.27 129.83 336.69 127.47C342.02 118.62 339.89 111.64 312.52 111.94C285.15 112.23 257.07 112.72 253.41 106.46C247.01 95.53 265.97 93.04 297.6 98.02C329.23 103 337.85 111.37 341.36 113.82C346.45 117.37 352.27 109.46 325.97 99.51C312.76 94.51 300.2 87.74 287.92 80.81C284.98 79.15 282.39 76.77 280.72 73.82C279.23 71.18 277.9 66.98 279.32 64.07C280.25 62.17 282.41 61.98 284.28 62.31C287.14 62.82 289.8 64.12 292.34 65.54C298.16 68.79 303.55 72.77 308.59 77.11C313.63 81.45 318.46 86.58 323.55 91.16C329.01 96.07 335.68 101.65 343.38 102C343.39 102 343.4 102 343.41 102C345.05 102.03 345.7 99.9 344.3 99.04C342.67 98.05 340.79 97.27 339.41 96.78C336.83 95.86 334.03 94.93 332.44 92.7C331.14 90.88 330.9 88.5 329.87 86.52C327.21 81.39 320.02 79.94 317.33 74.83C316.1 72.49 316.01 69.73 316.16 67.09C316.31 64.45 316.66 61.79 316.21 59.19C315.76 56.59 314.32 53.97 311.89 52.94C310.78 52.47 309.54 52.35 308.46 51.82C305.49 50.38 304.72 45.67 307.41 43.53C310.18 41.33 314.45 42.75 315.52 46.12C316.21 48.3 315.99 50.86 316.94 52.99C318.71 56.93 323.95 58.33 325.87 62.2C327.67 65.83 326.1 70.81 328.83 73.81C329.9 74.98 331.43 75.59 332.77 76.45C334.7 77.69 336.27 79.5 337.21 81.59C338.13 83.63 338.46 85.88 338.92 88.08C339.38 90.27 340.02 92.51 341.43 94.24L341.47 94.29C343.48 96.73 347.39 94.9 346.85 91.79C344.79 79.98 337.33 60.92 333.83 51.11C328.5 36.18 343.07 42.58 339.52 34.41C335.97 26.24 326.02 25.17 334.54 20.91C343.06 16.65 347.33 15.93 347.69 26.24C348.05 36.55 340.58 42.59 344.49 45.79C348.4 48.99 350.82 41.17 352.63 51.12C354.44 61.07 352.25 99.28 353.67 101.41C355.09 103.54 360.48 99.57 360.84 80.5C361.2 61.43 372.21 29.09 386.43 33.35C400.65 37.61 372.2 57.06 367.58 68.43C362.96 79.8 360.31 102.3 364.04 109.05C367.77 115.8 368.84 98.39 379.32 83.28C389.8 68.18 407.57 55.91 415.57 61.42C423.57 66.93 418.24 55.91 423.39 53.25C428.54 50.58 435.12 53.61 430.85 57.34C426.59 61.07 421.79 58.76 423.03 62.14C424.27 65.52 425.52 71.2 419.65 72.8C413.78 74.4 371.64 88.98 371.32 109.59C371.1 123.71 383.17 109.16 387.25 105.33C395.7 97.4 404.87 89.97 415.54 85.22C421.57 82.54 428.18 80.74 434.74 81.51C439.89 82.12 445.4 85 446.54 90.06C446.88 91.59 446.77 93.27 445.99 94.63C444.5 97.22 441.17 97.99 438.2 98.34C427.84 99.56 417.13 98.86 407.21 102.07C405.8 102.53 404.4 103.06 403.04 103.65C396.87 106.34 391.29 110.32 386.28 114.79C383.87 116.94 380.86 119.62 380.85 123.1C380.85 126.23 382.77 129.28 385.13 131.22C388.61 134.08 393.6 134.47 397.92 134.79C403.98 135.23 410.09 134.85 416.12 134.14C423.92 133.22 431.64 131.68 439.25 129.75C439.51 129.68 439.77 129.62 440.03 129.55C440.96 129.55 442.14 129.01 443.04 128.77C444.04 128.5 445.04 128.21 446.03 127.92C448.07 127.32 450.09 126.68 452.11 126.01C452.19 125.98 452.28 125.95 452.36 125.93C460.09 123.35 468.13 120.91 474.89 116.25C478.23 113.95 481.41 111.41 484.81 109.2C486.8 107.9 489.45 106.6 491.39 107.99C492.93 109.09 493.2 111.45 494.8 112.45C496.12 113.28 497.9 112.87 499.18 111.98C500.46 111.09 501.39 109.8 502.47 108.69C505.96 105.11 511.26 103.4 516.18 104.27C517.2 104.45 518.24 104.76 518.97 105.49C519.7 106.22 519.96 107.49 519.32 108.3C518.07 109.85 514.88 108.52 513.95 110.27C513.5 111.12 514 112.22 514.79 112.78C515.58 113.34 516.57 113.48 517.52 113.62C522.77 114.42 527.85 116.16 532.73 118.19C541.76 121.93 550.22 126.82 558.7 131.65C562.25 133.67 565.85 135.56 569.53 137.25C577.01 140.68 584.81 143.25 593.13 144.29C602.94 145.52 612.91 145 622.64 143.33C634.8 141.25 646.62 137.42 657.99 132.67C683.18 122.14 705.61 120.25 719.99 120.51V0H0V118.54Z" />
</svg>
