<?xml version="1.0" encoding="UTF-8"?>
<svg id="Layer_1" data-name="Layer 1" xmlns="http://www.w3.org/2000/svg" xmlns:xlink="http://www.w3.org/1999/xlink" viewBox="0 0 500 500">
  <defs>
    <linearGradient id="linear-gradient" x1="64.34" y1="163.86" x2="338.91" y2="163.86" gradientUnits="userSpaceOnUse">
      <stop offset="0" stop-color="#08aeec"/>
      <stop offset="1" stop-color="#20e2ad"/>
    </linearGradient>
    <linearGradient id="linear-gradient-2" x1="117.69" y1="164.29" x2="286.75" y2="164.29" xlink:href="#linear-gradient"/>
    <linearGradient id="linear-gradient-3" x1="332.71" y1="320.86" x2="444.69" y2="320.86" xlink:href="#linear-gradient"/>
    <linearGradient id="linear-gradient-4" x1="281.12" y1="406.08" x2="444.69" y2="406.08" xlink:href="#linear-gradient"/>
  </defs>
  <g style="opacity: .25;">
    <path d="m340.07,432.4l-55.37-50.02-19.46,72.04c-4.25,15.73-26.56,15.74-30.83.02l-19.54-72.01-55.32,50.08c-12.08,10.93-30.85-1.12-25.94-16.65l22.49-71.15-131.79,21.88,102.75-85.39L4.35,228.36l132.6-16.28L62.3,101.28l120.35,57.99-2.9-133.56,69.89,113.85,69.77-113.93-2.75,133.57,120.29-58.13-74.53,110.87,132.62,16.13-122.64,52.98,102.84,85.27-131.81-21.73,22.57,71.12c4.93,15.53-13.83,27.6-25.92,16.68Z" style="fill: #96ccc2; stroke-width: 0px;"/>
  </g>
  <g>
    <g>
      <path d="m214.51,279.83s30.29,115.89,30.68,193.36c0,0,81.21,9.5,107.42,6.28,0,0-45.84-163.79-69.51-233.54l-68.58,33.9Z" style="fill: #d8d8d8; stroke: #000; stroke-miterlimit: 10; stroke-width: 2px;"/>
      <polygon points="338.91 153.76 88.59 238.38 103.77 195.56 64.34 173.97 314.66 89.34 301.41 130.77 338.91 153.76" style="fill: url(#linear-gradient); stroke: #000; stroke-miterlimit: 10; stroke-width: 2px;"/>
      <g>
        <circle cx="202.22" cy="164.29" r="84.5" style="fill: url(#linear-gradient-2); stroke: #000; stroke-miterlimit: 10; stroke-width: 2px;"/>
        <circle cx="202.22" cy="164.29" r="64.53" style="fill: #fff; stroke: #000; stroke-miterlimit: 10; stroke-width: 2px;"/>
        <text transform="translate(171.66 196.47) rotate(-20.63)" style="fill: #ff6903; font-family: Inter-Bold, Inter; font-size: 39.2px; font-variation-settings: &apos;opsz&apos; 14, &apos;wght&apos; 700; font-weight: 700;"><tspan x="0" y="0">PRO</tspan></text>
        <polygon points="222.54 207.7 217.5 207.07 214.12 210.86 213.16 205.87 208.51 203.83 212.96 201.38 213.47 196.32 217.17 199.8 222.14 198.72 219.98 203.31 222.54 207.7" style="stroke-width: 0px;"/>
        <polygon points="236.37 196.8 232.53 196.32 229.96 199.2 229.23 195.4 225.69 193.85 229.08 191.98 229.47 188.13 232.29 190.78 236.07 189.96 234.42 193.46 236.37 196.8" style="stroke-width: 0px;"/>
        <polygon points="202.57 209.53 198.73 209.05 196.15 211.93 195.43 208.13 191.88 206.58 195.27 204.71 195.66 200.86 198.48 203.51 202.26 202.69 200.62 206.19 202.57 209.53" style="stroke-width: 0px;"/>
      </g>
      <path d="m281.94,260.68c-20.28,20.29-52.3,34.41-84.67,19.26-18.54-8.67-47.56-49.55-48.46-50.83,11.3,10.29,30.93,19.87,58.26,19.53,24.78.33,49.07-15.55,53.1-24.89.03-1.05.05-2.11.07-3.13-.56.23-30.24,12.46-35.46-9-3.13-12.82,19.13-20.57,37.83-24.76,2.97-.67,5.85-1.25,8.52-1.74,9.21-1.7,18.15,4.14,20.29,13.26,4.11,17.52,7.14,45.66-9.49,62.3Z" style="fill: #d8d8d8; stroke: #000; stroke-miterlimit: 10; stroke-width: 2px;"/>
    </g>
    <path d="m165.67,138.34l10.79,10.8c.76.77,1.91,1.01,2.92.63l31.36-11.81c1.07-.4,1.78-1.43,1.78-2.58v-16.75c0-2.53-3.13-3.72-4.81-1.83l-8.26,9.3c-.92,1.03-2.49,1.13-3.53.22l-11.72-12.15c-1.46-1.52-4.03-.42-3.95,1.68l.64,16.15c-.14,1.34-1.31,2.33-2.65,2.25l-10.45-.62c-2.53-.15-3.9,2.9-2.11,4.7Z" style="stroke-width: 0px;"/>
  </g>
  <g>
    <path d="m334.59,485.41c-1.68,1.87-3.43,3.6-5.23,5.23h-61.41c-7.5-14.64-2.89-36.66,12.56-53.84,6.89-7.66,14.97-13.29,23.16-16.63,13.87-5.68,28.07-4.86,37.47,3.57,14.94,13.43,12.02,41.03-6.54,61.67Z" style="fill: #fff; stroke-width: 0px;"/>
    <path d="m266.2,487.85c-.74.82-1.5,1.65-2.26,2.43h-103.5c-7.95-22.45-.15-53.3,21.88-77.82,9.83-10.95,21.25-19.22,32.94-24.52,22.43-10.19,45.85-9.43,61.08,4.26,4.14,3.71,7.36,8.12,9.75,13.06,11.01,22.68,3.73,56.3-19.9,82.59Z" style="fill: #ddd; stroke-width: 0px;"/>
    <path d="m196.42,484.9c-1.69,1.88-3.42,3.67-5.17,5.38h-110.5c-10.09-24.88-1.6-60.22,23.51-88.18,31.8-35.39,78.2-45.53,103.64-22.66,2.83,2.55,5.3,5.4,7.36,8.5,16.61,24.75,9.39,65.54-18.84,96.96Z" style="fill: #ddd; stroke-width: 0px;"/>
    <path d="m334.59,485.4c-1.69,1.88-3.42,3.61-5.23,5.23h-61.4c-.53-1.03-.99-2.11-1.39-3.21-.11.15-.23.27-.36.42-.74.82-1.5,1.65-2.26,2.43H80.75c-10.09-24.88-1.6-60.22,23.51-88.18,31.8-35.39,78.2-45.53,103.64-22.66,2.83,2.55,5.3,5.4,7.36,8.5,22.43-10.19,45.85-9.43,61.08,4.26,4.14,3.71,7.36,8.12,9.75,13.06,3.19,6.56,4.83,14.03,4.98,21.99,4.05-2.98,8.31-5.34,12.58-7.09,13.88-5.68,28.08-4.85,37.47,3.57,14.94,13.44,12.03,41.04-6.54,61.68Z" style="fill: none; stroke: #000; stroke-miterlimit: 10; stroke-width: 2px;"/>
    <path d="m155.15,381.08s54.51,4.98,31.88,56.57c0,0,42.13-58.83-31.88-56.57Z" style="fill: #c1c1c1; stroke-width: 0px;"/>
    <path d="m234.8,396.37s54.51,4.98,31.88,56.57c0,0,42.13-58.83-31.88-56.57Z" style="fill: #c1c1c1; stroke-width: 0px;"/>
    <path d="m310.25,430.04s37.05,3.38,21.67,38.45c0,0,28.64-39.99-21.67-38.45Z" style="fill: #d8d8d8; stroke-width: 0px;"/>
    <g>
      <path d="m336.21,291.49l-3.28,12.31c-.97,3.62,1.19,7.34,4.81,8.31h0c3.62.97,7.34-1.19,8.31-4.81l3.28-12.31c6.03-22.62,29.63-35.95,52.22-29.23,21.78,6.48,34.01,29.67,28.16,51.63l-18.75,70.38s0,.05.03.06l13.03,3.47s.05,0,.06-.03l18.73-70.29c7.89-29.61-9.67-61.1-39.34-68.77-14.62-3.78-29.41-1.33-41.54,5.69-12.25,7.09-21.79,18.85-25.72,33.6Z" style="fill: url(#linear-gradient-3); stroke: #000; stroke-miterlimit: 10; stroke-width: 2px;"/>
      <path d="m305.95,342.12l-24.27,91.1c-2.31,8.66,2.83,17.54,11.49,19.85l106.86,28.47c8.65,2.3,17.53-2.85,19.84-11.5l24.27-91.1c2.31-8.66-2.84-17.55-11.49-19.85l-106.86-28.47c-8.66-2.31-17.53,2.85-19.84,11.5Z" style="fill: url(#linear-gradient-4); stroke: #000; stroke-miterlimit: 10; stroke-width: 2px;"/>
      <path d="m377.39,344.36l-51.6-13.75c-8.66-2.31-17.53,2.85-19.84,11.5l-24.27,91.1" style="fill: none; stroke: #000; stroke-miterlimit: 10;"/>
      <g>
        <rect x="354.75" y="383.9" width="20.57" height="20.57" rx="7.57" ry="7.57" transform="translate(616.27 869.06) rotate(-165.08)" style="stroke-width: 0px;"/>
        <rect x="357.6" y="397.12" width="7.95" height="20.04" rx="2.93" ry="2.93" transform="translate(606.15 893.65) rotate(-165.08)" style="stroke-width: 0px;"/>
      </g>
      <path d="m393.46,360.69h33.1v113.82h-33.1c-4.46,0-8.08-3.62-8.08-8.08v-97.65c0-4.46,3.62-8.08,8.08-8.08Z" transform="translate(690.74 925.64) rotate(-165.08)" style="fill: #fff; opacity: .5; stroke-width: 0px;"/>
    </g>
    <g>
      <path d="m377.2,490.64c0-33.24-26.95-60.19-60.19-60.19-33.24,0-60.19,26.95-60.19,60.19h120.37" style="fill: #fff; stroke: #000; stroke-miterlimit: 10; stroke-width: 2px;"/>
      <path d="m493.74,490.64c0-46.6-37.78-84.38-84.38-84.38s-84.38,37.78-84.38,84.38h168.77Z" style="fill: #fff; stroke: #000; stroke-miterlimit: 10; stroke-width: 2px;"/>
    </g>
  </g>
</svg>