<svg id="Layer_1" data-name="Layer 1" xmlns="http://www.w3.org/2000/svg" xmlns:xlink="http://www.w3.org/1999/xlink" viewBox="0 0 590.91 98.21"><defs><linearGradient id="linear-gradient" x1="92.26" y1="-1174.52" x2="12.82" y2="-1251" gradientTransform="translate(0 1262.67)" gradientUnits="userSpaceOnUse"><stop offset="0" stop-color="#08aeec"/><stop offset="1" stop-color="#20e2ad"/></linearGradient></defs><path d="M97.25,99.11H9.12a4.58,4.58,0,0,1-4.57-4.58V6.4A4.57,4.57,0,0,1,9.12,1.83h88A4.57,4.57,0,0,1,101.7,6.4V94.53A4.55,4.55,0,0,1,97.25,99.11Z" transform="translate(-4.55 -0.89)" style="fill:url(#linear-gradient)"/><path d="M38.88,78.36H30.45a1.55,1.55,0,0,1-1.53-1.52V24.22a1.56,1.56,0,0,1,1.53-1.53h8.43a1.56,1.56,0,0,1,1.53,1.53v52.5A1.58,1.58,0,0,1,38.88,78.36Z" transform="translate(-4.55 -0.89)" style="fill:#fff"/><path d="M77.44,24.22V33a1.55,1.55,0,0,1-1.52,1.52H46.5A1.55,1.55,0,0,1,45,33V24.22a1.55,1.55,0,0,1,1.52-1.53H75.92A1.55,1.55,0,0,1,77.44,24.22Z" transform="translate(-4.55 -0.89)" style="fill:#fff"/><path d="M77.44,46.13v8.79a1.55,1.55,0,0,1-1.52,1.53H46.5A1.55,1.55,0,0,1,45,54.92V46.13a1.55,1.55,0,0,1,1.52-1.52H75.92A1.41,1.41,0,0,1,77.44,46.13Z" transform="translate(-4.55 -0.89)" style="fill:#fff"/><path d="M77.44,67.93v8.79a1.55,1.55,0,0,1-1.52,1.52H46.5A1.55,1.55,0,0,1,45,76.72V67.93a1.55,1.55,0,0,1,1.52-1.52H75.92A1.55,1.55,0,0,1,77.44,67.93Z" transform="translate(-4.55 -0.89)" style="fill:#fff"/><path d="M67.48,22.69h8.44a1.55,1.55,0,0,1,1.52,1.53v30.7a1.55,1.55,0,0,1-1.52,1.53H67.48A1.55,1.55,0,0,1,66,54.92V24.22A1.48,1.48,0,0,1,67.48,22.69Z" transform="translate(-4.55 -0.89)" style="fill:#fff"/><path d="M132.88,35.82V47.3h17.46l2,8.09H132.76V66.88h23.56V75H124.67V27.85h31.65v8.09H132.88Z" transform="translate(-4.55 -0.89)" style="fill:#121315"/><path d="M189.72,66.76v8.09H163.23v-47h8.09V66.76Z" transform="translate(-4.55 -0.89)" style="fill:#121315"/><path d="M203.78,35.82V47.3h17.46l2,8.09H203.66V66.88h23.56V75H195.58V27.85h31.64v8.09H203.78Z" transform="translate(-4.55 -0.89)" style="fill:#121315"/><path d="M281.13,27.73v47H273V41.44l-15.47,24-15.47-24V74.73H234v-47h8.79l14.76,22.86,14.89-22.86Z" transform="translate(-4.55 -0.89)" style="fill:#121315"/><path d="M297.3,35.82V47.3h17.47l2,8.09H297.19V66.88h23.55V75H289.1V27.85h31.64v8.09H297.3Z" transform="translate(-4.55 -0.89)" style="fill:#121315"/><path d="M363.29,27.73v47h-8.68L335.75,42.62V74.73h-8.09v-47h8.67L355.2,59.84V27.73Z" transform="translate(-4.55 -0.89)" style="fill:#121315"/><path d="M405,35.82H391.18V74.73h-8.09V35.82H369.26V27.73H405Z" transform="translate(-4.55 -0.89)" style="fill:#121315"/><path d="M448.61,29.14A19.21,19.21,0,0,1,454,32.77a17.63,17.63,0,0,1,3.63,5.39,15.28,15.28,0,0,1,1.29,6.57,17.24,17.24,0,0,1-1.29,6.56A19.07,19.07,0,0,1,454,56.68a17.45,17.45,0,0,1-5.39,3.63A15.28,15.28,0,0,1,442,61.6h-6.68l3.28-8.08H442a8.13,8.13,0,0,0,6.21-2.58,8.5,8.5,0,0,0,2.58-6.21,8.15,8.15,0,0,0-2.58-6.22A8.5,8.5,0,0,0,442,35.94h-9.49V74.85h-8.09v-47h17.47A15.78,15.78,0,0,1,448.61,29.14Z" transform="translate(-4.55 -0.89)" style="fill:#121315"/><path d="M506.85,74.85H498l-3.64-8.09-3.63-8.09-9.49-21.09-9.5,21.09h12.19l3.64,8.09H468.06l-3.63,8.09h-8.91l21.21-47h8.91Z" transform="translate(-4.55 -0.89)" style="fill:#121315"/><path d="M552,68.52a25.19,25.19,0,0,1-7.73,5.27,24.92,24.92,0,0,1-19,0,23.94,23.94,0,0,1-7.73-5.27,25.21,25.21,0,0,1-5.28-7.74,23.81,23.81,0,0,1-1.87-9.49,23.4,23.4,0,0,1,1.87-9.49,23.85,23.85,0,0,1,5.28-7.74,27.42,27.42,0,0,1,7.73-5.27,23.66,23.66,0,0,1,9.5-1.88,23.24,23.24,0,0,1,9.49,1.88A25,25,0,0,1,552,34.06l-5.74,5.74A18.48,18.48,0,0,0,541,36.17a16.5,16.5,0,0,0-6.33-1.29,15.46,15.46,0,0,0-6.21,1.29,14.79,14.79,0,0,0-5.28,3.63,20.36,20.36,0,0,0-3.63,5.28A16.37,16.37,0,0,0,523.14,63a16.38,16.38,0,0,0,23.09,0Z" transform="translate(-4.55 -0.89)" style="fill:#121315"/><path d="M584,75,566.16,57.15v17.7h-8.09v-47h8.09V45.66L583.85,28h11.49L571.9,51.41,595.45,75Z" transform="translate(-4.55 -0.89)" style="fill:#121315"/><path d="M593.23,25.62H550.57a2,2,0,0,1-2-2V2.89a2,2,0,0,1,2-2h42.66a2,2,0,0,1,2,2V23.63A2,2,0,0,1,593.23,25.62Z" transform="translate(-4.55 -0.89)" style="fill:#ff004f"/><path d="M555.26,6.29h2.22V20.11h-2.22Zm1,6.21h4.45a2.13,2.13,0,0,0,.94-.24,1.17,1.17,0,0,0,.59-.7,3.6,3.6,0,0,0,.23-1.06,2.91,2.91,0,0,0-.23-1.05,1.17,1.17,0,0,0-.59-.7,2.13,2.13,0,0,0-.94-.24h-4.45V6.4h4.34a4.74,4.74,0,0,1,2.22.47,3.79,3.79,0,0,1,1.53,1.52,4.9,4.9,0,0,1,.58,2.23,4.87,4.87,0,0,1-.58,2.23,3.79,3.79,0,0,1-1.53,1.52,4.44,4.44,0,0,1-2.22.47h-4.34Z" transform="translate(-4.55 -0.89)" style="fill:#fff"/><path d="M567.09,6.29h2.23V20.11h-2.23Zm.94,5.86h4.81a1.69,1.69,0,0,0,.82-.24,1.22,1.22,0,0,0,.58-.7,2.21,2.21,0,0,0,.24-.94,2.21,2.21,0,0,0-.24-.94,3.26,3.26,0,0,0-.58-.7,1.69,1.69,0,0,0-.82-.24H568V6.29h4.81a3.6,3.6,0,0,1,2,.46,4.11,4.11,0,0,1,1.4,1.41,4,4,0,0,1,.47,2.11,4,4,0,0,1-.47,2.11,4.11,4.11,0,0,1-1.4,1.41,3.87,3.87,0,0,1-2,.46H568v-2.1Zm3.4,1.75,2.34-.47L577.41,20h-2.7Z" transform="translate(-4.55 -0.89)" style="fill:#fff"/><path d="M581.51,19.53a6.28,6.28,0,0,1-1.76-1.76,6.53,6.53,0,0,1-.59-2.69v-4a6.61,6.61,0,0,1,.59-2.7,3.21,3.21,0,0,1,1.76-1.75,4.65,4.65,0,0,1,2.58-.59,6,6,0,0,1,2.57.59,6.24,6.24,0,0,1,1.76,1.75,6.19,6.19,0,0,1,.59,2.7v4a6.53,6.53,0,0,1-.59,2.69,3.2,3.2,0,0,1-1.76,1.76,6,6,0,0,1-5.15,0Zm4-1.88a3.47,3.47,0,0,0,.94-.93,2.86,2.86,0,0,0,.35-1.41v-4.1a2.54,2.54,0,0,0-.35-1.41,2.42,2.42,0,0,0-.94-.94,2.52,2.52,0,0,0-1.4-.35,2.83,2.83,0,0,0-1.41.35,3.82,3.82,0,0,0-.94.94,2.83,2.83,0,0,0-.35,1.41v4.1a2.56,2.56,0,0,0,.35,1.41,2.4,2.4,0,0,0,.94.93,2.45,2.45,0,0,0,1.41.36A2.73,2.73,0,0,0,585.49,17.65Z" transform="translate(-4.55 -0.89)" style="fill:#fff"/></svg>